<?xml version="1.0" encoding="UTF-8" standalone="no"?>
<svg width="64px" height="64px" viewBox="0 0 64 64" version="1.1" xmlns="http://www.w3.org/2000/svg" xmlns:xlink="http://www.w3.org/1999/xlink" xmlns:sketch="http://www.bohemiancoding.com/sketch/ns">
    <!-- Generator: Sketch 3.3.2 (12043) - http://www.bohemiancoding.com/sketch -->
    <title>activity-icon-2</title>
    <desc>Created with Sketch.</desc>
    <defs></defs>
    <g id="Page-1" stroke="none" stroke-width="1" fill="none" fill-rule="evenodd" sketch:type="MSPage">
        <g id="index" sketch:type="MSArtboardGroup" transform="translate(-427.000000, -1074.000000)" fill="#000000">
            <g id="Group" sketch:type="MSLayerGroup" transform="translate(134.000000, 1081.000000)">
                <g id="手作" transform="translate(311.000000, 0.000000)" sketch:type="MSShapeGroup">
                    <path d="M24.9052941,12.5182353 C24.9052941,11.8776471 24.3844118,11.3583824 23.7454412,11.3583824 L22.4852941,11.3583824 C21.8447059,11.3583824 21.3222059,11.8776471 21.3222059,12.5182353 L21.3222059,25.1245588 C21.3222059,25.605 20.9307353,25.9980882 20.4470588,25.9980882 C19.9682353,25.9980882 19.5751471,25.605 19.5751471,25.1245588 L19.5751471,4.16308824 C19.5751471,3.51926471 19.0542647,3 18.4136765,3 L17.1519118,3 C16.5145588,3 15.9920588,3.51926471 15.9920588,4.16308824 L15.9920588,17.5022059 C15.9872059,17.5022059 15.9710294,18.235 15.9710294,18.235 C15.9710294,18.7170588 15.5795588,19.1085294 15.0958824,19.1085294 C14.6122059,19.1085294 14.2207353,18.7170588 14.2207353,18.235 L14.2207353,9.50779412 C14.2207353,9.47058824 14.245,4.16308824 14.245,4.16308824 C14.245,3.51926471 13.7241176,3 13.0835294,3 L11.8217647,3 C11.1811765,3 10.6602941,3.51926471 10.6602941,4.16308824 L10.6602941,19.06 C10.6602941,19.5420588 10.2672059,19.9367647 9.78352941,19.9367647 C9.30470588,19.9367647 8.91161765,19.5420588 8.91161765,19.06 L8.91161765,10.3327941 L8.91161765,6.89044118 C8.91161765,6.24823529 8.39073529,5.72897059 7.75338235,5.72897059 L6.49,5.72897059 C5.84779412,5.72897059 5.33014706,6.24823529 5.33014706,6.89044118 L5.33014706,11.8808824 C5.33661765,11.9164706 5.35117647,20.7116176 5.35117647,20.7116176 C5.35117647,21.1952941 4.95970588,21.5851471 4.47602941,21.5851471 C3.99235294,21.5851471 3.60088235,21.1952941 3.60088235,20.7116176 L3.60088235,18.0732353 C3.59441176,18.0748529 3.58308824,11.4958824 3.58308824,11.4958824 C3.58308824,10.8536765 3.06382353,10.3344118 2.42323529,10.3344118 L1.15823529,10.3344118 C0.517647059,10.3344118 0,10.8536765 0,11.4958824 L0,23.5036765 C0.00647058824,23.6233824 0,23.68 0,23.7495588 L0,33.1125 C0,39.9955882 5.57926471,45.5732353 12.4607353,45.5732353 C19.3422059,45.5732353 24.9214706,39.9955882 24.9214706,33.1125 L24.9214706,23.7495588 C24.9214706,23.6298529 24.9085294,23.5263235 24.9052941,23.4130882 L24.9052941,12.5182353 Z" id="Imported-Layers"></path>
                </g>
            </g>
        </g>
    </g>
</svg>