<?xml version="1.0" encoding="UTF-8" standalone="no"?>
<svg width="64px" height="64px" viewBox="0 0 64 64" version="1.1" xmlns="http://www.w3.org/2000/svg" xmlns:xlink="http://www.w3.org/1999/xlink" xmlns:sketch="http://www.bohemiancoding.com/sketch/ns">
    <!-- Generator: Sketch 3.3.2 (12043) - http://www.bohemiancoding.com/sketch -->
    <title>activity-icon-3</title>
    <desc>Created with Sketch.</desc>
    <defs></defs>
    <g id="Page-1" stroke="none" stroke-width="1" fill="none" fill-rule="evenodd" sketch:type="MSPage">
        <g id="index" sketch:type="MSArtboardGroup" transform="translate(-728.000000, -1073.000000)" fill="#000000">
            <g id="Group" sketch:type="MSLayerGroup" transform="translate(134.000000, 1081.000000)">
                <g id="二手" transform="translate(603.000000, 0.000000)" sketch:type="MSShapeGroup">
                    <g id="Imported-Layers" transform="translate(0.000000, 6.000000)">
                        <path d="M37.715,2.0955 L37.703,2.1045 L37.703,2.0955 L31.6415,0.663 L31.6175,0.663 C30.833,2.9565 28.685,4.617 26.1275,4.617 C23.567,4.617 21.419,2.9565 20.6375,0.663 L20.6105,0.663 L14.552,2.0955 L14.552,2.124 L10.691,6.531 C13.4705,6.6375 15.791,8.5755 16.445,11.181 L19.8785,11.181 C21.0305,11.181 21.9695,12.12 21.9695,13.275 L21.9695,31.863 L37.703,31.863 L37.703,13.14 L40.172,15.96 L45.707,11.2215 L37.715,2.0955" id="Fill-1"></path>
                        <path d="M19.8785,12.681 L15.1295,12.681 C15.1295,10.1055 13.034,8.013 10.463,8.013 C7.8875,8.013 5.792,10.1055 5.792,12.681 L1.046,12.681 C0.719,12.681 0.455,12.9465 0.455,13.275 L0.455,35.397 C0.455,35.724 0.719,35.9895 1.046,35.9895 L19.8785,35.9895 C20.204,35.9895 20.471,35.724 20.471,35.397 L20.471,13.275 C20.471,12.9465 20.204,12.681 19.8785,12.681 L19.8785,12.681 Z M6.824,12.681 C6.824,10.6755 8.456,9.0435 10.463,9.0435 C12.4655,9.0435 14.0975,10.6755 14.0975,12.681 L6.824,12.681 L6.824,12.681 Z" id="Fill-2"></path>
                    </g>
                </g>
            </g>
        </g>
    </g>
</svg>