<?xml version="1.0" encoding="UTF-8" standalone="no"?>
<svg width="64px" height="64px" viewBox="0 0 64 64" version="1.1" xmlns="http://www.w3.org/2000/svg" xmlns:xlink="http://www.w3.org/1999/xlink" xmlns:sketch="http://www.bohemiancoding.com/sketch/ns">
    <!-- Generator: Sketch 3.3.2 (12043) - http://www.bohemiancoding.com/sketch -->
    <title>activity-icon-5</title>
    <desc>Created with Sketch.</desc>
    <defs></defs>
    <g id="Page-1" stroke="none" stroke-width="1" fill="none" fill-rule="evenodd" sketch:type="MSPage">
        <g id="index" sketch:type="MSArtboardGroup" transform="translate(-136.000000, -1302.000000)" fill="#000000">
            <g id="點亮舞台-+-地方縣市-+-在地創新" sketch:type="MSLayerGroup" transform="translate(154.000000, 1306.000000)">
                <g id="點亮舞台" transform="translate(0.489258, 0.000000)" sketch:type="MSShapeGroup">
                    <g id="Imported-Layers" transform="translate(0.000000, 5.000000)">
                        <path d="M12.5432632,9.87122581 L21.9652105,15.5630968 L22.0003158,15.5073548 C23.6441579,15.0722581 25.1216316,14.051871 26.1793684,12.5793548 L13.2667368,4.7723871 C12.5356316,6.33470968 12.3494211,8.03483871 12.6791053,9.63896774 C12.6607895,9.6683871 12.6348421,9.68851613 12.6180526,9.71948387 L12.5432632,9.87122581" id="Fill-1"></path>
                        <path d="M9.20673684,44.6634839 C7.59494737,45.608 5.655,45.2874839 4.263,43.8552258 C3.31668421,42.8766452 2.57794737,41.2461935 2.88015789,39.3432258 C4.42936842,39.7256774 6.10678947,39.0861935 6.96457895,37.619871 L20.4694211,17.7602581 L11.3496842,12.2526452 L0.564736842,33.752 C-0.454842105,35.4892903 0.0686842105,37.7143226 1.70794737,38.8214194 C1.18442105,41.3065806 2.146,43.4650323 3.38078947,44.7362581 C4.13173684,45.5135484 5.01242105,46.0322581 5.93736842,46.2846452 C7.22252632,46.6392258 8.59468421,46.4750968 9.82489474,45.7581935 C10.1225263,45.5832258 10.2247895,45.196129 10.0553684,44.8972903 C9.88442105,44.5938065 9.50436842,44.4900645 9.20673684,44.6634839" id="Fill-2"></path>
                        <path d="M26.651,11.8856774 C28.6977895,8.25316129 27.5164211,3.61574194 23.9570526,1.46503226 C20.3976842,-0.685677419 15.8172105,0.469419355 13.6422105,4.02451613 L26.651,11.8856774" id="Fill-3"></path>
                    </g>
                </g>
            </g>
        </g>
    </g>
</svg>