<?xml version="1.0" encoding="UTF-8" standalone="no"?>
<svg width="64px" height="64px" viewBox="0 0 64 64" version="1.1" xmlns="http://www.w3.org/2000/svg" xmlns:xlink="http://www.w3.org/1999/xlink" xmlns:sketch="http://www.bohemiancoding.com/sketch/ns">
    <!-- Generator: Sketch 3.3.2 (12043) - http://www.bohemiancoding.com/sketch -->
    <title>Imported Layers</title>
    <desc>Created with Sketch.</desc>
    <defs></defs>
    <g id="page-design" stroke="none" stroke-width="1" fill="none" fill-rule="evenodd" sketch:type="MSPage">
        <g id="index" sketch:type="MSArtboardGroup" transform="translate(-641.000000, -999.000000)" fill="#1A1918">
            <path d="M676.090212,1017.01571 C675.797085,1017.0062 675.497902,1017.00086 675.193874,1017.00026 C674.232127,1016.99848 673.166818,1016.99967 672.076071,1017.02819 C669.913958,1012.65723 664.912029,1011 664.532902,1011 C664.048395,1011 664.116832,1011.5021 664.116832,1011.5021 L664.116832,1018.42457 C660.671381,1019.89046 658.021733,1022.02543 655.986198,1025.37377 L654.980846,1027.23541 L652.64855,1027.25264 C652.64855,1027.25264 652.001733,1027.09933 652.001733,1027.892 L652.001733,1035.39975 C652.001733,1035.39975 651.948437,1035.87096 652.432944,1035.87096 C652.918663,1035.87096 654.332818,1035.84897 654.332818,1035.84897 L654.850634,1037.85262 C655.848719,1040.38274 657.638973,1042.90454 659.928874,1044.77271 L660.848226,1045.52022 L660.805832,1051.00412 L669.219296,1051.02432 L669.19386,1049.1098 L670.308226,1049.294 C670.995015,1049.4069 671.700578,1049.49365 672.403113,1049.55307 C674.405339,1049.71648 676.404536,1049.65171 678.343775,1049.35936 L679.70948,1049.15317 L679.700395,1051.04928 L688.700113,1051.04928 L688.735846,1045.00564 L689.423846,1044.39599 C692.387212,1041.76783 694.11448,1038.49258 694.421536,1034.92261 C695.243987,1025.35238 685.186832,1017.31638 676.090212,1017.01571 L676.090212,1017.01571 Z M662.636057,1028.12671 C661.536832,1028.03639 660.722254,1027.08864 660.813099,1026.01135 C660.906367,1024.93346 661.870536,1024.13188 662.969761,1024.2222 C664.067775,1024.31193 664.885381,1025.26028 664.792719,1026.33816 C664.700663,1027.41664 663.735282,1028.21643 662.636057,1028.12671 L662.636057,1028.12671 Z" id="Imported-Layers" sketch:type="MSShapeGroup"></path>
        </g>
    </g>
</svg>