<?xml version="1.0" encoding="UTF-8" standalone="no"?>
<svg width="64px" height="64px" viewBox="0 0 64 64" version="1.1" xmlns="http://www.w3.org/2000/svg" xmlns:xlink="http://www.w3.org/1999/xlink" xmlns:sketch="http://www.bohemiancoding.com/sketch/ns">
    <!-- Generator: Sketch 3.3.2 (12043) - http://www.bohemiancoding.com/sketch -->
    <title>activity-icon-7</title>
    <desc>Created with Sketch.</desc>
    <defs></defs>
    <g id="Page-1" stroke="none" stroke-width="1" fill="none" fill-rule="evenodd" sketch:type="MSPage">
        <g id="index" sketch:type="MSArtboardGroup" transform="translate(-720.000000, -1310.000000)" fill="#000000">
            <g id="點亮舞台-+-地方縣市-+-在地創新" sketch:type="MSLayerGroup" transform="translate(154.000000, 1306.000000)">
                <g id="在地創新" transform="translate(573.000000, 0.000000)" sketch:type="MSShapeGroup">
                    <g id="Imported-Layers" transform="translate(0.000000, 21.000000)">
                        <path d="M48.2920345,29.2501053 C48.2920345,29.7772632 47.8628621,30.2050526 47.3323103,30.2050526 L1.93803448,30.2050526 C1.41086207,30.2050526 0.981689655,29.7772632 0.981689655,29.2501053 L0.981689655,26.1090526 C0.981689655,25.5802105 1.41086207,25.1524211 1.93803448,25.1524211 L47.3323103,25.1524211 C47.8628621,25.1524211 48.2920345,25.5802105 48.2920345,26.1090526 L48.2920345,29.2501053" id="Fill-1"></path>
                        <path d="M38.2166207,20.1957895 C37.3464483,20.1957895 36.4982414,19.7477895 36.0285172,18.9444211 C35.3222414,17.7402105 35.7277586,16.1924211 36.9358621,15.4884211 L42.869931,12.0307368 C44.0814138,11.3233684 45.6325172,11.7326316 46.3387931,12.9368421 C47.045069,14.1410526 46.6361724,15.6888421 45.428069,16.3928421 L39.494,19.8505263 C39.0918621,20.0863158 38.6525517,20.1957895 38.2166207,20.1957895" id="Fill-2"></path>
                        <path d="M32.1845517,14.2488421 C31.7587586,14.2488421 31.3262069,14.1410526 30.9308276,13.9153684 C29.7159655,13.2248421 29.2901724,11.6821053 29.982931,10.4711579 L33.3858966,4.52084211 C34.0786552,3.30989474 35.6263793,2.88547368 36.8446207,3.57936842 C38.0577931,4.26989474 38.4835862,5.81263158 37.7908276,7.02526316 L34.3895517,12.9738947 C33.9198276,13.7907368 33.0648621,14.2488421 32.1845517,14.2488421" id="Fill-3"></path>
                        <path d="M23.9795862,12.0997895 C22.5873103,12.0997895 21.4552414,10.9781053 21.4451034,9.58863158 L21.4062414,2.74736842 C21.3994828,1.35284211 22.5281724,0.214315789 23.9272069,0.205894737 C25.3363793,0.251368421 26.4684483,1.32252632 26.4752069,2.71705263 L26.514069,9.56 C26.5242069,10.9545263 25.3955172,12.0913684 23.9964828,12.0997895 L23.9795862,12.0997895" id="Fill-4"></path>
                        <path d="M15.7965862,14.3347368 C14.9247241,14.3347368 14.0765172,13.8867368 13.6051034,13.0833684 L10.1396207,7.17852632 C9.43334483,5.97431579 9.83886207,4.42821053 11.0503448,3.72252632 C12.2584483,3.02189474 13.8095517,3.42273684 14.5158276,4.62694737 L17.9813103,10.5317895 C18.6875862,11.736 18.2803793,13.2837895 17.0722759,13.9877895 C16.6701379,14.2218947 16.2308276,14.3347368 15.7965862,14.3347368" id="Fill-5"></path>
                        <path d="M9.83210345,20.3557895 C9.40631034,20.3557895 8.97544828,20.248 8.57837931,20.024 L2.60544828,16.632 C1.39058621,15.9397895 0.964793103,14.3987368 1.65755172,13.1844211 C2.352,11.9701053 3.89972414,11.5507368 5.11627586,12.2395789 L11.0892069,15.6332632 C12.304069,16.3254737 12.7298621,17.8665263 12.0371034,19.0808421 C11.569069,19.8976842 10.7141034,20.3557895 9.83210345,20.3557895" id="Fill-6"></path>
                    </g>
                </g>
            </g>
        </g>
    </g>
</svg>