<?xml version="1.0" encoding="UTF-8" standalone="no"?>
<svg width="64px" height="64px" viewBox="0 0 64 64" version="1.1" xmlns="http://www.w3.org/2000/svg" xmlns:xlink="http://www.w3.org/1999/xlink" xmlns:sketch="http://www.bohemiancoding.com/sketch/ns">
    <!-- Generator: Sketch 3.3.2 (12043) - http://www.bohemiancoding.com/sketch -->
    <title>activity-icon-6</title>
    <desc>Created with Sketch.</desc>
    <defs></defs>
    <g id="Page-1" stroke="none" stroke-width="1" fill="none" fill-rule="evenodd" sketch:type="MSPage">
        <g id="index" sketch:type="MSArtboardGroup" transform="translate(-418.000000, -1301.000000)" fill="#000000">
            <g id="點亮舞台-+-地方縣市-+-在地創新" sketch:type="MSLayerGroup" transform="translate(154.000000, 1306.000000)">
                <g id="地方縣市" transform="translate(282.000000, 0.000000)" sketch:type="MSShapeGroup">
                    <path d="M13.5105882,4 C6.04905882,4 0,10.0805714 0,17.5771429 C0,21.1822857 1.33911765,24.8834286 3.886,27.7394286 C8.03641176,32.3988571 13.0687647,42.8491429 13.0687647,50.5702857 L14.4215294,50.5702857 C14.4215294,42.8491429 19.4538824,32.3988571 23.6042941,27.7394286 C26.1494706,24.8834286 27.4902941,21.1822857 27.4902941,17.5771429 C27.4902941,10.0805714 21.4412353,4 13.978,4 L13.5105882,4 Z M13.6214706,22.7697143 C10.8545294,22.7697143 8.60958824,20.5137143 8.60958824,17.7348571 C8.60958824,14.9525714 10.8545294,12.6948571 13.6214706,12.6948571 C16.3901176,12.6948571 18.6333529,14.9525714 18.6333529,17.7348571 C18.6333529,20.5137143 16.3901176,22.7697143 13.6214706,22.7697143 L13.6214706,22.7697143 Z" id="Imported-Layers"></path>
                </g>
            </g>
        </g>
    </g>
</svg>