<?xml version="1.0" encoding="UTF-8" standalone="no"?>
<svg width="64px" height="64px" viewBox="0 0 64 64" version="1.1" xmlns="http://www.w3.org/2000/svg" xmlns:xlink="http://www.w3.org/1999/xlink" xmlns:sketch="http://www.bohemiancoding.com/sketch/ns">
    <!-- Generator: Sketch 3.3.2 (12043) - http://www.bohemiancoding.com/sketch -->
    <title>activity-icon-1</title>
    <desc>Created with Sketch.</desc>
    <defs></defs>
    <g id="Page-1" stroke="none" stroke-width="1" fill="none" fill-rule="evenodd" sketch:type="MSPage">
        <g id="index" sketch:type="MSArtboardGroup" transform="translate(-122.000000, -1074.000000)" fill="#000000">
            <g id="Group" sketch:type="MSLayerGroup" transform="translate(134.000000, 1081.000000)">
                <g id="人生海海" sketch:type="MSShapeGroup">
                    <g id="Imported-Layers" transform="translate(0.000000, 6.000000)">
                        <path d="M20.07408,8.60184 C13.97604,8.60184 9.0324,13.54704 9.0324,19.64508 C9.0324,25.74312 13.97604,30.68832 20.07408,30.68832 C26.17368,30.68832 31.11732,25.74312 31.11732,19.64508 C31.11732,13.54704 26.17368,8.60184 20.07408,8.60184" id="Fill-1"></path>
                        <path d="M20.07564,34.42452 C19.53744,34.42452 19.10064,34.86288 19.10064,35.39952 L19.10064,37.479 C19.10064,38.0172 19.53744,38.454 20.07564,38.454 C20.61384,38.454 21.05064,38.0172 21.05064,37.479 L21.05064,35.39952 C21.05064,34.86288 20.61384,34.42452 20.07564,34.42452" id="Fill-2"></path>
                        <path d="M20.07564,4.86252 C20.61384,4.86252 21.05064,4.42572 21.05064,3.88752 L21.05064,1.8096 C21.05064,1.2714 20.61384,0.8346 20.07564,0.8346 C19.53744,0.8346 19.10064,1.2714 19.10064,1.8096 L19.10064,3.88752 C19.10064,4.42572 19.53744,4.86252 20.07564,4.86252" id="Fill-3"></path>
                        <path d="M5.29464,19.64508 C5.29464,19.10688 4.85784,18.67008 4.31964,18.67008 L2.24172,18.67008 C1.70196,18.67008 1.26672,19.10688 1.26672,19.64508 C1.26672,20.18328 1.70196,20.62008 2.24172,20.62008 L4.31964,20.62008 C4.85784,20.62008 5.29464,20.18328 5.29464,19.64508" id="Fill-4"></path>
                        <path d="M37.908,18.67008 L35.83008,18.67008 C35.29032,18.67008 34.85508,19.10688 34.85508,19.64508 C34.85508,20.18328 35.29032,20.62008 35.83008,20.62008 L37.908,20.62008 C38.4462,20.62008 38.883,20.18328 38.883,19.64508 C38.883,19.10688 38.4462,18.67008 37.908,18.67008" id="Fill-5"></path>
                        <path d="M28.79448,32.79588 C28.52304,32.331 27.92556,32.1672 27.46224,32.4402 C26.9958,32.70852 26.83512,33.30444 27.105,33.77088 L28.14552,35.57736 C28.32648,35.88936 28.65408,36.06408 28.9926,36.06408 C29.1564,36.06408 29.32488,36.02352 29.47776,35.93304 C29.9442,35.66472 30.10488,35.0688 29.835,34.60236 L28.79448,32.79588" id="Fill-6"></path>
                        <path d="M11.35212,6.48648 C11.53464,6.79848 11.86068,6.97476 12.19764,6.97476 C12.363,6.97476 12.52992,6.93108 12.68592,6.84372 C13.15236,6.57384 13.30992,5.97792 13.0416,5.51148 L12.00264,3.71436 C11.73276,3.24636 11.1384,3.08724 10.67196,3.35556 C10.20396,3.62544 10.04484,4.22292 10.31316,4.68936 L11.35212,6.48648" id="Fill-7"></path>
                        <path d="M5.94672,26.67756 L4.1418,27.71808 C3.67692,27.9864 3.51624,28.58388 3.78612,29.04876 C3.96552,29.36076 4.29468,29.53704 4.63008,29.53704 C4.79544,29.53704 4.96392,29.49492 5.1168,29.40756 L6.92016,28.36548 C7.3866,28.0956 7.54572,27.49968 7.2774,27.03324 C7.00752,26.56524 6.4116,26.40612 5.94672,26.67756" id="Fill-8"></path>
                        <path d="M33.71472,12.74208 C33.8832,12.74208 34.05012,12.70152 34.203,12.61104 L36.0048,11.57208 C36.4728,11.3022 36.63036,10.70472 36.36204,10.2414 C36.09216,9.7734 35.49624,9.61428 35.0298,9.8826 L33.228,10.92312 C32.76156,11.193 32.60244,11.78892 32.87076,12.2538 C33.05172,12.56736 33.38088,12.74208 33.71472,12.74208" id="Fill-9"></path>
                        <path d="M36.00324,27.71808 L34.19988,26.67756 C33.73344,26.40612 33.13596,26.56524 32.86764,27.03324 C32.59932,27.50124 32.75844,28.0956 33.22488,28.36548 L35.0298,29.40756 C35.18424,29.49492 35.35116,29.53704 35.51652,29.53704 C35.85348,29.53704 36.18108,29.36076 36.36204,29.04876 C36.63036,28.58232 36.47124,27.9864 36.00324,27.71808" id="Fill-10"></path>
                        <path d="M4.1418,11.57364 L5.94984,12.61728 C6.10428,12.7062 6.2712,12.74832 6.43656,12.74832 C6.77508,12.74832 7.10268,12.5736 7.28364,12.26004 C7.55196,11.7936 7.39128,11.19768 6.92484,10.9278 L5.1168,9.88416 C4.65036,9.61272 4.05444,9.77652 3.78612,10.2414 C3.51624,10.70784 3.67692,11.30376 4.1418,11.57364" id="Fill-11"></path>
                        <path d="M12.68592,32.44176 C12.21948,32.17032 11.62356,32.33256 11.35368,32.79744 L10.3116,34.60392 C10.04484,35.0688 10.2024,35.66628 10.66884,35.9346 C10.82328,36.02508 10.9902,36.06564 11.15556,36.06564 C11.49096,36.06564 11.82012,35.89092 11.99952,35.57892 L13.0416,33.77244 C13.31304,33.30756 13.15392,32.71008 12.68592,32.44176" id="Fill-12"></path>
                        <path d="M27.46224,6.8484 C27.61512,6.93576 27.78516,6.97788 27.95052,6.97788 C28.28592,6.97788 28.61508,6.8016 28.79448,6.4896 L29.835,4.68936 C30.10488,4.22292 29.94576,3.62544 29.47776,3.35556 C29.01444,3.08724 28.41696,3.24636 28.14552,3.71436 L27.10656,5.5146 C26.83668,5.98104 26.99736,6.57852 27.46224,6.8484" id="Fill-13"></path>
                    </g>
                </g>
            </g>
        </g>
    </g>
</svg>