<?xml version="1.0" encoding="UTF-8" standalone="no"?>
<svg width="64px" height="64px" viewBox="0 0 64 64" version="1.1" xmlns="http://www.w3.org/2000/svg" xmlns:xlink="http://www.w3.org/1999/xlink" xmlns:sketch="http://www.bohemiancoding.com/sketch/ns">
    <!-- Generator: Sketch 3.3.2 (12043) - http://www.bohemiancoding.com/sketch -->
    <title>activity-icon-4</title>
    <desc>Created with Sketch.</desc>
    <defs></defs>
    <g id="Page-1" stroke="none" stroke-width="1" fill="none" fill-rule="evenodd" sketch:type="MSPage">
        <g id="index" sketch:type="MSArtboardGroup" transform="translate(-1034.000000, -1073.000000)" fill="#000000">
            <g id="Group" sketch:type="MSLayerGroup" transform="translate(134.000000, 1081.000000)">
                <g id="阿英冰果" transform="translate(911.000000, 0.000000)" sketch:type="MSShapeGroup">
                    <g id="Imported-Layers" transform="translate(0.000000, 9.000000)">
                        <path d="M20.5926,24.8159545 C27.1138,24.8159545 33.2444,22.2598636 37.8546,17.6183182 L20.5954,0.248454545 L3.3334,17.6183182 C7.9436,22.2598636 14.0742,24.8159545 20.5926,24.8159545 L20.5926,24.8159545 Z M28.5278,15.4342273 C28.5278,15.4342273 29.7206,17.6239545 29.7206,18.2862273 C29.7206,18.9499091 29.1872,19.4881818 28.5278,19.4881818 C27.8684,19.4881818 27.3322,18.9499091 27.3322,18.2862273 C27.3322,17.6239545 28.5278,15.4342273 28.5278,15.4342273 L28.5278,15.4342273 Z M24.5322,8.50572727 C24.5322,8.50572727 25.725,10.6954545 25.725,11.3577273 C25.725,12.0214091 25.1916,12.5596818 24.5322,12.5596818 C23.8714,12.5596818 23.338,12.0214091 23.338,11.3577273 C23.338,10.6954545 24.5322,8.50572727 24.5322,8.50572727 L24.5322,8.50572727 Z M20.5352,15.4342273 C20.5352,15.4342273 21.7294,17.6239545 21.7294,18.2862273 C21.7294,18.9499091 21.1946,19.4881818 20.5352,19.4881818 C19.8758,19.4881818 19.3424,18.9499091 19.3424,18.2862273 C19.3424,17.6239545 20.5352,15.4342273 20.5352,15.4342273 L20.5352,15.4342273 Z M16.5396,8.50572727 C16.5396,8.50572727 17.7324,10.6954545 17.7324,11.3577273 C17.7324,12.0214091 17.199,12.5596818 16.5396,12.5596818 C15.8816,12.5596818 15.3454,12.0214091 15.3454,11.3577273 C15.3454,10.6954545 16.5396,8.50572727 16.5396,8.50572727 L16.5396,8.50572727 Z M13.7368,18.2862273 C13.7368,18.9499091 13.2048,19.4881818 12.5426,19.4881818 C11.8832,19.4881818 11.3498,18.9499091 11.3498,18.2862273 C11.3498,17.6239545 12.5426,15.4342273 12.5426,15.4342273 C12.5426,15.4342273 13.7368,17.6239545 13.7368,18.2862273 L13.7368,18.2862273 Z" id="Fill-1"></path>
                        <path d="M38.5952,18.3651364 C33.7862,23.2067727 27.3924,25.8727727 20.5926,25.8727727 C13.7942,25.8727727 7.399,23.2067727 2.5928,18.3651364 L0.1372,20.8352727 L0.1372,20.8380909 C11.4352,32.2080455 29.7528,32.2080455 41.0508,20.8352727 L38.5952,18.3651364" id="Fill-2"></path>
                    </g>
                </g>
            </g>
        </g>
    </g>
</svg>