<?xml version="1.0" encoding="UTF-8" standalone="no"?>
<svg width="29px" height="51px" viewBox="0 0 29 51" version="1.1" xmlns="http://www.w3.org/2000/svg" xmlns:xlink="http://www.w3.org/1999/xlink" xmlns:sketch="http://www.bohemiancoding.com/sketch/ns">
    <!-- Generator: Sketch 3.3.2 (12043) - http://www.bohemiancoding.com/sketch -->
    <title>arrow-right</title>
    <desc>Created with Sketch.</desc>
    <defs></defs>
    <g id="Page-1" stroke="none" stroke-width="1" fill="none" fill-rule="evenodd" sketch:type="MSPage">
        <path d="M-14.9897316,41.25 C-14.9965322,41.1675667 -15,41.0841883 -15,41 L-15,10 C-15,8.3431458 -13.6568542,7 -12,7 C-10.3431458,7 -9,8.3431458 -9,10 L-9,38.5 L19,38.5 C20.6568542,38.5 22,39.8431458 22,41.5 C22,43.1568542 20.6568542,44.5 19,44.5 L-12,44.5 C-13.6568542,44.5 -15,43.1568542 -15,41.5 C-15,41.4158117 -14.9965322,41.3324333 -14.9897316,41.25 L-14.9897316,41.25 Z" id="Shape" fill="#FFFFFF" sketch:type="MSShapeGroup" transform="translate(3.500000, 25.750000) scale(-1, 1) rotate(45.000000) translate(-3.500000, -25.750000) "></path>
    </g>
</svg>