<?xml version="1.0" encoding="UTF-8" standalone="no"?>
<svg width="29px" height="51px" viewBox="0 0 29 51" version="1.1" xmlns="http://www.w3.org/2000/svg" xmlns:xlink="http://www.w3.org/1999/xlink" xmlns:sketch="http://www.bohemiancoding.com/sketch/ns">
    <!-- Generator: Sketch 3.3.2 (12043) - http://www.bohemiancoding.com/sketch -->
    <title>arrow-left</title>
    <desc>Created with Sketch.</desc>
    <defs></defs>
    <g id="Page-1" stroke="none" stroke-width="1" fill="none" fill-rule="evenodd" sketch:type="MSPage">
        <path d="M7.0102684,41.25 C7.0034678,41.1675667 7,41.0841883 7,41 L7,10 C7,8.3431458 8.3431458,7 10,7 C11.6568542,7 13,8.3431458 13,10 L13,38.5 L41,38.5 C42.6568543,38.5 44,39.8431458 44,41.5 C44,43.1568542 42.6568543,44.5 41,44.5 L10,44.5 C8.3431458,44.5 7,43.1568542 7,41.5 C7,41.4158117 7.0034678,41.3324333 7.0102684,41.25 L7.0102684,41.25 Z" id="Shape" fill="#FFFFFF" sketch:type="MSShapeGroup" transform="translate(25.500000, 25.750000) rotate(45.000000) translate(-25.500000, -25.750000) "></path>
    </g>
</svg>