<?xml version="1.0" encoding="UTF-8" standalone="no"?>
<svg width="36px" height="36px" viewBox="0 0 36 36" version="1.1" xmlns="http://www.w3.org/2000/svg" xmlns:xlink="http://www.w3.org/1999/xlink" xmlns:sketch="http://www.bohemiancoding.com/sketch/ns">
    <!-- Generator: Sketch 3.3.2 (12043) - http://www.bohemiancoding.com/sketch -->
    <title>close</title>
    <desc>Created with Sketch.</desc>
    <defs></defs>
    <g id="Page-1" stroke="none" stroke-width="1" fill="none" fill-rule="evenodd" sketch:type="MSPage">
        <g id="slices" sketch:type="MSLayerGroup" transform="translate(-365.000000, -14.000000)"></g>
        <path d="M8.87867966,13.4748737 L23.0208153,27.6170094 C24.1923882,28.7885822 26.0918831,28.7885822 27.263456,27.6170094 C28.4350288,26.4454365 28.4350288,24.5459415 27.263456,23.3743687 L13.1213203,9.23223305 C11.9497475,8.06066017 10.0502525,8.06066017 8.87867966,9.23223305 C7.70710678,10.4038059 7.70710678,12.3033009 8.87867966,13.4748737 L8.87867966,13.4748737 Z" id="Shape" fill="#81BF63" sketch:type="MSShapeGroup"></path>
        <path d="M23.1672619,8.87867966 L9.02512627,23.0208153 C7.85355339,24.1923882 7.85355339,26.0918831 9.02512627,27.263456 C10.1966991,28.4350288 12.0961941,28.4350288 13.267767,27.263456 L27.4099026,13.1213203 C28.5814755,11.9497475 28.5814755,10.0502525 27.4099026,8.87867966 C26.2383297,7.70710678 24.3388348,7.70710678 23.1672619,8.87867966 L23.1672619,8.87867966 Z" id="Shape" fill="#88C8AB" sketch:type="MSShapeGroup"></path>
    </g>
</svg>