<?xml version="1.0" encoding="UTF-8" standalone="no"?>
<svg width="40px" height="62px" viewBox="0 0 40 62" version="1.1" xmlns="http://www.w3.org/2000/svg" xmlns:xlink="http://www.w3.org/1999/xlink" xmlns:sketch="http://www.bohemiancoding.com/sketch/ns">
    <!-- Generator: Sketch 3.3.2 (12043) - http://www.bohemiancoding.com/sketch -->
    <title>gallery-arrow-next</title>
    <desc>Created with Sketch.</desc>
    <defs></defs>
    <g id="Page-1" stroke="none" stroke-width="1" fill="none" fill-rule="evenodd" sketch:type="MSPage">
        <g id="slices" sketch:type="MSLayerGroup" transform="translate(-227.000000, 0.000000)"></g>
        <g id="Shape-+-Shape" sketch:type="MSLayerGroup" transform="translate(-13.500000, 31.000000) rotate(-315.000000) translate(13.500000, -31.000000) translate(-32.000000, 12.000000)" fill="#81BF63">
            <path d="M0.0102684442,34.75 C0.00346783221,34.6675667 0,34.5841883 0,34.5 L0,3.5 C0,1.84314575 1.34314575,0.5 3,0.5 C4.65685425,0.5 6,1.84314575 6,3.5 L6,32 L34,32 C35.6568542,32 37,33.3431458 37,35 C37,36.6568542 35.6568542,38 34,38 L3,38 C1.34314575,38 0,36.6568542 0,35 C0,34.9158117 0.00346783221,34.8324333 0.0102684442,34.75 Z" id="Shape" sketch:type="MSShapeGroup"></path>
        </g>
        <g id="Shape-+-Shape-Copy" sketch:type="MSLayerGroup" transform="translate(9.500000, 31.000000) scale(-1, 1) rotate(-315.000000) translate(-9.500000, -31.000000) translate(-9.000000, 12.000000)" fill="#81BF63">
            <path d="M0.0102684442,34.75 C0.00346783221,34.6675667 0,34.5841883 0,34.5 L0,3.5 C0,1.84314575 1.34314575,0.5 3,0.5 C4.65685425,0.5 6,1.84314575 6,3.5 L6,32 L34,32 C35.6568542,32 37,33.3431458 37,35 C37,36.6568542 35.6568542,38 34,38 L3,38 C1.34314575,38 0,36.6568542 0,35 C0,34.9158117 0.00346783221,34.8324333 0.0102684442,34.75 Z" id="Shape" sketch:type="MSShapeGroup"></path>
        </g>
    </g>
</svg>