<?xml version="1.0" encoding="UTF-8" standalone="no"?>
<svg width="400px" height="400px" viewBox="0 0 400 400" version="1.1" xmlns="http://www.w3.org/2000/svg" xmlns:xlink="http://www.w3.org/1999/xlink" xmlns:sketch="http://www.bohemiancoding.com/sketch/ns">
    <!-- Generator: Sketch 3.3.2 (12043) - http://www.bohemiancoding.com/sketch -->
    <title>join local light</title>
    <desc>Created with Sketch.</desc>
    <defs></defs>
    <g id="logos" stroke="none" stroke-width="1" fill="none" fill-rule="evenodd" sketch:type="MSPage">
        <g id="Tile" sketch:type="MSArtboardGroup" fill="#FFFFFF">
            <g id="Logo-+-Group" sketch:type="MSLayerGroup" transform="translate(116.000000, 116.000000)">
                <g id="Logo" sketch:type="MSShapeGroup">
                    <path d="M51.76376,161.75438 C53.14544,161.75438 54.46214,160.9541 55.05551,159.61004 C55.83869,157.83848 55.07261,155.77622 53.34893,154.93148 C52.42553,154.52279 51.51239,154.09529 50.60438,153.6524 C50.5907,153.64556 50.57702,153.63701 50.56163,153.63017 C49.77845,153.24542 49.0004,152.85041 48.2309,152.44001 C47.84273,152.23481 47.4614,152.01764 47.07836,151.8056 C46.68848,151.59014 46.29518,151.37639 45.90872,151.15238 C45.15803,150.72146 44.4176,150.27344 43.6823,149.81687 C43.66349,149.8049 43.64297,149.79464 43.62416,149.78096 C42.76745,149.24915 41.921,148.70024 41.08823,148.13594 C39.45689,147.1202 37.30229,147.56309 36.21473,149.16707 C35.09981,150.81038 35.52731,153.04706 37.17233,154.16198 C38.04101,154.75364 38.91995,155.32649 39.80744,155.88053 C39.83309,155.89592 39.85703,155.91131 39.88097,155.9267 C40.68467,156.42773 41.49521,156.91166 42.31259,157.38362 C42.73154,157.62473 43.15733,157.85729 43.5797,158.09156 C44.00549,158.32754 44.42786,158.56523 44.85707,158.79437 C45.68642,159.23555 46.52432,159.66476 47.37077,160.07858 C47.40155,160.09226 47.43062,160.10765 47.45969,160.12304 C48.40019,160.57961 49.35095,161.0225 50.31197,161.44658 C50.78393,161.6552 51.27812,161.75438 51.76376,161.75438" id="Fill-57"></path>
                    <path d="M36.21473,19.51829 C36.9107,20.54429 38.04272,21.09662 39.19526,21.09662 C39.88952,21.09662 40.59233,20.89484 41.21135,20.47589 C48.40874,15.59213 56.29355,12.00455 64.5785,9.80036 C71.93663,7.83557 79.58033,6.97031 87.29756,7.26101 C89.29655,7.33283 90.95354,5.78699 91.02878,3.80168 C91.1006,1.85741 89.61803,0.22094 87.69257,0.08243 C86.61869,0.04139 85.54139,0.01916 84.46238,0.01916 C76.63058,0.01916 68.93045,1.1033 61.52957,3.1895 C53.9252,5.34239 46.60811,8.56574 39.77837,12.8339 C38.86181,13.40675 37.95893,13.9967 37.06802,14.60033 C35.51192,15.73919 35.12375,17.91089 36.21473,19.51829" id="Fill-58" opacity="0.6"></path>
                    <path d="M132.71003,149.16707 C131.59511,147.52376 129.36014,147.09284 127.71341,148.20947 C121.27355,152.58023 114.28307,155.9096 106.94717,158.13944 C98.79902,160.6292 90.26612,161.75267 81.6272,161.42435 C79.62479,161.33885 77.97293,162.89837 77.89769,164.88368 C77.82416,166.82624 79.30844,168.46442 81.2339,168.60293 C82.30778,168.64397 83.38337,168.66449 84.46238,168.66449 C89.72234,168.66449 94.92245,168.18056 100.01312,167.23151 C100.13453,167.20928 100.25423,167.18363 100.37564,167.1614 C101.21696,167.00066 102.05486,166.82624 102.89105,166.63985 C103.15439,166.58171 103.41602,166.51844 103.67765,166.45859 C104.35652,166.29956 105.03368,166.13198 105.70742,165.95756 C106.09559,165.85667 106.48205,165.75236 106.86851,165.64634 C107.40032,165.49928 107.93042,165.34709 108.46052,165.18977 C108.96326,165.041 109.46429,164.88881 109.96361,164.72978 C110.35691,164.60495 110.7485,164.47499 111.1418,164.34503 C111.75227,164.13983 112.36445,163.93121 112.9715,163.71233 C113.22971,163.61999 113.48792,163.52252 113.74442,163.42676 C114.46433,163.16 115.18253,162.8864 115.8956,162.59912 C116.0153,162.55124 116.13329,162.50165 116.25299,162.45206 C120.69899,160.63604 125.01332,158.43527 129.14639,155.85146 C130.06466,155.2769 130.97096,154.68524 131.86358,154.0799 C133.41284,152.94104 133.7993,150.77105 132.71003,149.16707" id="Fill-59" opacity="0.6"></path>
                    <path d="M17.6219,133.21106 C18.31787,133.21106 19.02068,133.01099 19.6397,132.59033 C21.28301,131.47541 21.71051,129.23702 20.59559,127.59371 C15.97175,120.78107 12.52439,113.3477 10.29797,105.54668 C8.07497,97.7867 7.0712,89.69498 7.38071,81.5075 C7.45595,79.52219 5.90669,77.85152 3.92138,77.77628 C1.97027,77.70788 0.34064,79.18703 0.20213,81.11078 C0.16109,82.18637 0.14057,83.26196 0.14057,84.34268 C0.14057,92.30102 1.25891,100.12085 3.4118,107.63117 C5.56469,115.109 8.75213,122.30297 12.9536,129.02669 C13.51961,129.93299 14.10101,130.82561 14.6978,131.70455 C15.39719,132.68267 16.49843,133.21106 17.6219,133.21106" id="Fill-60" opacity="0.6"></path>
                    <path d="M9.19502,54.93581 C9.66698,55.14443 10.16117,55.24361 10.64681,55.24361 C12.00113,55.24361 13.29047,54.47069 13.89923,53.1728 C14.29766,52.27334 14.71319,51.38243 15.14753,50.49665 C15.16634,50.45903 15.18686,50.42141 15.20567,50.38208 C15.57845,49.62455 15.95978,48.87044 16.35821,48.12317 C16.57709,47.70764 16.80965,47.30066 17.03537,46.89197 C17.23886,46.52774 17.43551,46.16351 17.64413,45.8027 C18.5966,44.14742 19.60892,42.52976 20.67767,40.95656 C21.68315,39.32522 21.23855,37.18088 19.6397,36.09503 C17.99468,34.9784 15.758,35.40761 14.64308,37.05092 C14.04971,37.92473 13.47515,38.80709 12.91598,39.69971 C12.91598,39.70142 12.91598,39.70142 12.91427,39.70313 C12.39785,40.52906 11.90024,41.36354 11.4146,42.20486 C11.18546,42.59987 10.96658,43.00172 10.74599,43.40186 C10.49633,43.84988 10.24496,44.29619 10.00385,44.74763 C9.57464,45.55817 9.1574,46.37384 8.75384,47.19806 C8.72819,47.24936 8.70254,47.29895 8.67689,47.35025 C8.22032,48.28733 7.78085,49.23467 7.35848,50.19227 C6.55478,52.01 7.37729,54.13382 9.19502,54.93581" id="Fill-61" opacity="0.6"></path>
                    <path d="M113.86754,9.07532 C113.08607,10.84688 113.85044,12.90743 115.57412,13.75217 C116.49752,14.16086 117.41237,14.58836 118.32209,15.03296 C118.33235,15.0398 118.34432,15.04493 118.35458,15.05006 C119.14118,15.43652 119.92094,15.83153 120.69557,16.24535 C121.08203,16.45055 121.46165,16.66601 121.84469,16.87634 C122.23457,17.09522 122.62787,17.30726 123.01604,17.53127 C123.76844,17.9639 124.50887,18.41192 125.24417,18.86849 C125.26298,18.88046 125.28179,18.89072 125.3006,18.90269 C126.15731,19.43621 127.00205,19.98341 127.83482,20.54942 C129.46787,21.56516 131.62247,21.12227 132.71003,19.51829 C133.82666,17.87498 133.39745,15.63659 131.75414,14.52167 C130.88546,13.93343 130.00823,13.36058 129.12245,12.80654 C129.08825,12.78602 129.05063,12.76379 129.01643,12.74156 C128.22299,12.24737 127.42271,11.77028 126.6173,11.30345 C126.1898,11.05721 125.75546,10.81952 125.32112,10.58012 C124.90559,10.34927 124.49177,10.11671 124.07282,9.8927 C123.23492,9.4481 122.38847,9.01376 121.53176,8.59652 C121.51124,8.58626 121.49072,8.57429 121.4702,8.56403 C120.52628,8.10575 119.57552,7.66286 118.61279,7.23878 C116.79677,6.43508 114.67124,7.25759 113.86754,9.07532" id="Fill-62" opacity="0.5"></path>
                    <path d="M149.28677,36.09503 C147.64175,37.20995 147.21425,39.44663 148.32917,41.09165 C152.8829,47.80169 156.29777,55.11365 158.5259,62.78642 C160.82072,70.65413 161.85869,78.86726 161.54405,87.17786 C161.47052,89.16317 163.01807,90.83213 165.00338,90.90737 C165.04955,90.90908 165.09572,90.91079 165.14189,90.91079 C167.01776,90.91079 168.57557,89.46242 168.72092,87.59339 C168.76196,86.51267 168.78419,85.42853 168.78419,84.34268 C168.78419,76.31081 167.64533,68.41745 165.45311,60.84557 C163.30022,53.44127 160.1333,46.31741 155.97116,39.65867 C155.40173,38.74553 154.8152,37.84607 154.21328,36.96029 C153.07784,35.39564 150.8993,35.00063 149.28677,36.09503" id="Fill-63" opacity="0.6"></path>
                    <path d="M157.4999,126.49931 C157.74956,126.06668 157.98896,125.62892 158.23007,125.19116 C158.45921,124.77905 158.69006,124.37036 158.91065,123.95483 C159.35696,123.11351 159.79301,122.26535 160.21196,121.40693 C160.22051,121.38812 160.23077,121.36931 160.23932,121.3505 C160.69931,120.40829 161.1422,119.45582 161.56628,118.49309 C162.36998,116.67536 161.54747,114.55154 159.72974,113.74784 C157.95989,112.96466 155.89763,113.73074 155.05118,115.45442 C154.6442,116.37782 154.21499,117.29438 153.77039,118.20239 C153.76526,118.21265 153.76013,118.2212 153.755,118.23146 C153.37025,119.01977 152.97182,119.80295 152.558,120.57758 C152.35622,120.95891 152.14418,121.33169 151.93556,121.7096 C151.71497,122.10632 151.49951,122.50646 151.27037,122.89976 C150.84287,123.6419 150.40169,124.37378 149.95025,125.10053 C149.93315,125.1296 149.91605,125.15867 149.89895,125.18603 C149.36714,126.03932 148.82165,126.88064 148.25906,127.7117 C147.23819,129.34304 147.68108,131.50106 149.28677,132.59033 C149.90579,133.01099 150.60689,133.21106 151.30286,133.21106 C152.4554,133.21106 153.58742,132.65873 154.28339,131.63444 C154.87163,130.76747 155.44106,129.89024 155.9951,129.00617 C156.02075,128.96513 156.0464,128.92238 156.07205,128.88134 C156.56111,128.09474 157.03649,127.29959 157.4999,126.49931" id="Fill-64" opacity="0.6"></path>
                    <path d="M148.32575,41.09678 C147.21083,39.45176 147.64175,37.20995 149.28677,36.09503 C150.8993,35.00063 153.07784,35.39564 154.21328,36.96029 C148.17698,28.06145 140.57261,20.49128 131.77637,14.54048 C133.40087,15.66053 133.81982,17.88182 132.71003,19.51829 C131.62247,21.12227 129.46787,21.56516 127.83482,20.54942 C135.87182,26.00432 142.81271,32.94521 148.32575,41.09678" id="Fill-65" opacity="0.4"></path>
                    <path d="M165.14189,90.91079 C165.09572,90.91079 165.04955,90.90908 165.00338,90.90737 C163.01807,90.83213 161.4671,89.14436 161.54063,87.15905 C161.18666,97.0001 158.97734,106.56413 155.05118,115.45442 C155.89763,113.73074 157.95989,112.96466 159.72974,113.74784 C161.53892,114.54812 162.36143,116.65655 161.57654,118.46744 C165.87719,108.77003 168.31394,98.32877 168.72092,87.59339 C168.57557,89.46242 167.01776,90.91079 165.14189,90.91079" id="Fill-66" opacity="0.4"></path>
                    <path d="M151.30286,133.21106 C150.60689,133.21106 149.90579,133.01099 149.28677,132.59033 C147.68108,131.50106 147.23819,129.34304 148.25906,127.7117 C142.78706,135.77093 135.84275,142.71866 127.66211,148.23854 C127.68776,148.22144 127.63646,148.25735 127.66211,148.23854 C129.30713,147.12191 131.59511,147.52376 132.71003,149.16707 C133.7993,150.77105 133.41284,152.94104 131.86358,154.0799 C140.75558,148.04531 148.32062,140.44436 154.268,131.65325 C153.57032,132.66557 152.44685,133.21106 151.30286,133.21106" id="Fill-67" opacity="0.4"></path>
                    <path d="M77.89769,164.88368 C77.97122,162.90863 79.60769,161.35082 81.59642,161.41751 C71.77589,161.05841 62.22212,158.84909 53.34893,154.93148 C55.07261,155.77622 55.83869,157.83848 55.05551,159.61004 C54.46214,160.9541 53.14544,161.75438 51.76376,161.75438 C51.28667,161.75438 50.80103,161.65862 50.33591,161.45684 C60.04187,165.76091 70.48997,168.19766 81.2339,168.60293 C79.30844,168.46442 77.82416,166.82624 77.89769,164.88368" id="Fill-68" opacity="0.4"></path>
                    <path d="M36.21473,149.16707 C37.30229,147.56309 39.45689,147.1202 41.08823,148.13594 C32.90588,142.58015 25.85897,135.48194 20.29976,127.13885 C20.40065,127.28933 20.4947,127.44323 20.59559,127.59371 C21.71051,129.23702 21.28301,131.47541 19.6397,132.59033 C19.02068,133.01099 18.31787,133.21106 17.6219,133.21106 C16.49843,133.21106 15.39719,132.68267 14.6978,131.70455 C20.73752,140.61365 28.34702,148.19066 37.1501,154.14659 C35.52389,153.02654 35.10494,150.80354 36.21473,149.16707" id="Fill-69"></path>
                    <path d="M7.38071,81.5075 L7.37216,82.01024 C7.67141,71.9828 9.89441,62.22383 13.89923,53.1728 C13.29047,54.47069 12.00113,55.24361 10.64681,55.24361 C10.16117,55.24361 9.66698,55.14443 9.19502,54.93581 C7.38584,54.13724 6.56504,52.03052 7.34822,50.21963 C3.04415,59.92388 0.6074,70.37027 0.20213,81.11078 C0.34064,79.18703 1.97027,77.70788 3.92138,77.77628 C5.90669,77.85152 7.45595,79.52219 7.38071,81.5075" id="Fill-70" opacity="0.4"></path>
                    <path d="M39.19526,21.09662 C38.04272,21.09662 36.9107,20.54429 36.21473,19.51829 C35.12375,17.91089 35.51192,15.73919 37.06802,14.60033 C28.1726,20.63663 20.60414,28.241 14.65505,37.03553 C15.77339,35.4059 17.99981,34.98353 19.6397,36.09503 C21.23855,37.18088 21.68315,39.32522 20.67767,40.95656 C26.23004,32.78276 33.32141,25.74269 41.65595,20.1869 C41.50889,20.28608 41.35841,20.37671 41.21135,20.47589 C40.59233,20.89484 39.88952,21.09662 39.19526,21.09662" id="Fill-71" opacity="0.4"></path>
                    <path d="M118.60082,7.23365 C108.89486,2.92958 98.43479,0.4877 87.69257,0.08243 C89.61803,0.22094 91.1006,1.85741 91.02878,3.80168 C90.95354,5.78699 89.29655,7.33283 87.29756,7.26101 L86.79311,7.25246 C96.80003,7.55 106.54019,9.76445 115.57412,13.75217 C113.85044,12.90743 113.08607,10.84688 113.86754,9.07532 C114.66782,7.26614 116.78993,6.44876 118.60082,7.23365" id="Fill-72" opacity="0.4"></path>
                </g>
                <g id="Group" transform="translate(23.000000, 26.000000)" sketch:type="MSShapeGroup">
                    <path d="M43.5794268,37.1296663 L22.7395999,16.0131181 C21.4787944,14.735571 19.421053,14.7219993 18.1435058,15.9828048 C16.8659587,17.2436104 16.8523869,19.3013518 18.1131925,20.5788989 L38.9530193,41.6954471 C40.2138249,42.9729942 42.2715663,42.9865659 43.5491134,41.7257604 C44.8266606,40.4649548 44.8402323,38.4072134 43.5794268,37.1296663 L43.5794268,37.1296663 Z" id="Shape" opacity="0.3"></path>
                    <path d="M103.377935,97.4409578 L83.0402723,76.0732886 C81.8027916,74.7731353 79.7456327,74.7223291 78.4454793,75.9598099 C77.145326,77.1972906 77.0945199,79.2544495 78.3320006,80.5546029 L98.6696629,101.922272 C99.9071437,103.222425 101.964303,103.273232 103.264456,102.035751 C104.564609,100.79827 104.615415,98.7411112 103.377935,97.4409578 L103.377935,97.4409578 Z" id="Shape" opacity="0.2"></path>
                    <path d="M118.73497,56 L102.25,56 C100.455075,56 99,57.4550746 99,59.25 C99,61.0449254 100.455075,62.5 102.25,62.5 L118.73497,62.5 C120.529895,62.5 121.98497,61.0449254 121.98497,59.25 C121.98497,57.4550746 120.529895,56 118.73497,56 L118.73497,56 Z" id="Shape" opacity="0.8"></path>
                    <path d="M64.1006386,114.771256 L64.1006386,100.183857 C64.1006386,98.3889311 62.6455641,96.9338565 60.8506386,96.9338565 C59.0557132,96.9338565 57.6006386,98.3889311 57.6006386,100.183857 L57.6006386,114.771256 C57.6006386,116.566181 59.0557132,118.021256 60.8506386,118.021256 C62.6455641,118.021256 64.1006386,116.566181 64.1006386,114.771256 L64.1006386,114.771256 Z" id="Shape"></path>
                    <path d="M64.5,17.8373992 L64.5,3.25 C64.5,1.45507456 63.0449254,8.48210391e-14 61.25,0 C59.4550746,-8.48210391e-14 58,1.45507456 58,3.25 L58,17.8373992 C58,19.6323246 59.4550746,21.0873992 61.25,21.0873992 C63.0449254,21.0873992 64.5,19.6323246 64.5,17.8373992 L64.5,17.8373992 Z" id="Shape" opacity="0.8"></path>
                    <path d="M19.8377728,55.75 L3.35280314,55.75 C1.5578777,55.75 0.102803139,57.2050746 0.102803139,59 C0.102803139,60.7949254 1.5578777,62.25 3.35280314,62.25 L19.8377728,62.25 C21.6326982,62.25 23.0877728,60.7949254 23.0877728,59 C23.0877728,57.2050746 21.6326982,55.75 19.8377728,55.75 L19.8377728,55.75 Z" id="Shape"></path>
                    <path d="M98.9766064,16.5003313 L78.513788,36.9663139 C77.2446822,38.235616 77.2448413,40.2934022 78.5141433,41.562508 C79.7834454,42.8316138 81.8412316,42.8314547 83.1103374,41.5621527 L103.573156,21.09617 C104.842262,19.826868 104.842102,17.7690818 103.5728,16.499976 C102.303498,15.2308702 100.245712,15.2310292 98.9766064,16.5003313 L98.9766064,16.5003313 Z" id="Shape" opacity="0.2"></path>
                    <path d="M38.9957989,76.2620033 L17.9048898,96.8539321 C16.6205844,98.1078528 16.5959527,100.165492 17.8498733,101.449797 C19.1037939,102.734102 21.1614327,102.758734 22.4457381,101.504813 L43.5366472,80.9128846 C44.8209526,79.658964 44.8455843,77.6013252 43.5916637,76.3170198 C42.3377431,75.0327144 40.2801043,75.0080827 38.9957989,76.2620033 L38.9957989,76.2620033 Z" id="Oval-13-Copy" opacity="0.3"></path>
                    <g id="Oval-13-+-Oval-13-+-Oval-13-+-Oval-13" transform="translate(26.971851, 25.869955)">
                        <g id="Oval-13-+-Oval-13" transform="translate(0.502165, 0.000000)">
                            <path d="M30.6287879,4 C30.6287879,21.8858284 45.1792417,36.3800448 63.1218569,36.3800448 C64.9167823,36.3800448 66.3718569,34.9249703 66.3718569,33.1300448 C66.3718569,31.3351194 64.9167823,29.8800448 63.1218569,29.8800448 C48.7634699,29.8800448 37.1287879,18.2903307 37.1287879,4 C37.1287879,2.20507456 35.6737133,0.75 33.8787879,0.75 C32.0838624,0.75 30.6287879,2.20507456 30.6287879,4 L30.6287879,4 Z" id="Shape" opacity="0.4"></path>
                            <path d="M29.993069,4 C29.993069,18.2903307 18.3583869,29.8800448 4,29.8800448 C2.20507456,29.8800448 0.75,31.3351194 0.75,33.1300448 C0.75,34.9249703 2.20507456,36.3800448 4,36.3800448 C21.9426152,36.3800448 36.493069,21.8858284 36.493069,4 C36.493069,2.20507456 35.0379944,0.75 33.243069,0.75 C31.4481436,0.75 29.993069,2.20507456 29.993069,4 L29.993069,4 Z" id="Shape" opacity="0.6"></path>
                        </g>
                        <g id="Oval-13-+-Oval-13" transform="translate(34.207211, 47.674748) rotate(-180.000000) translate(-34.207211, -47.674748) translate(0.707211, 29.174748)">
                            <path d="M30.6287879,4 C30.6287879,21.8858284 45.1792417,36.3800448 63.1218569,36.3800448 C64.9167823,36.3800448 66.3718569,34.9249703 66.3718569,33.1300448 C66.3718569,31.3351194 64.9167823,29.8800448 63.1218569,29.8800448 C48.7634699,29.8800448 37.1287879,18.2903307 37.1287879,4 C37.1287879,2.20507456 35.6737133,0.75 33.8787879,0.75 C32.0838624,0.75 30.6287879,2.20507456 30.6287879,4 L30.6287879,4 Z" id="Shape"></path>
                            <path d="M29.993069,4 C29.993069,18.2903307 18.3583869,29.8800448 4,29.8800448 C2.20507456,29.8800448 0.75,31.3351194 0.75,33.1300448 C0.75,34.9249703 2.20507456,36.3800448 4,36.3800448 C21.9426152,36.3800448 36.493069,21.8858284 36.493069,4 C36.493069,2.20507456 35.0379944,0.75 33.243069,0.75 C31.4481436,0.75 29.993069,2.20507456 29.993069,4 L29.993069,4 Z" id="Shape" opacity="0.6"></path>
                        </g>
                    </g>
                    <ellipse id="Oval-13" opacity="0.6" cx="118.249498" cy="59.25" rx="3.24949753" ry="3.25"></ellipse>
                    <ellipse id="Oval-13" opacity="0.6" cx="61.25" cy="3.25050255" rx="3.25" ry="3.25050255"></ellipse>
                </g>
            </g>
        </g>
    </g>
</svg>