<?xml version="1.0" encoding="UTF-8" standalone="no"?>
<svg width="400px" height="287px" viewBox="0 0 400 287" version="1.1" xmlns="http://www.w3.org/2000/svg" xmlns:xlink="http://www.w3.org/1999/xlink" xmlns:sketch="http://www.bohemiancoding.com/sketch/ns">
    <!-- Generator: Sketch 3.3.2 (12043) - http://www.bohemiancoding.com/sketch -->
    <title>join local light big</title>
    <desc>Created with Sketch.</desc>
    <defs></defs>
    <g id="logos" stroke="none" stroke-width="1" fill="none" fill-rule="evenodd" sketch:type="MSPage">
        <g id="big-title" sketch:type="MSArtboardGroup" transform="translate(0.000000, -57.000000)">
            <g id="join-local-light" sketch:type="MSLayerGroup" transform="translate(0.000000, 61.000000)">
                <g id="Logo-+-Group" transform="translate(101.000000, 0.000000)" sketch:type="MSShapeGroup">
                    <g id="Logo">
                        <path d="M60.923019,187.950511 C62.5183587,187.950511 64.0386699,187.026339 64.7237972,185.474204 C65.6280863,183.428388 64.7435415,181.046868 62.7533159,180.071353 C61.6871235,179.599393 60.6327778,179.105712 59.5843554,178.594257 C59.5685599,178.586359 59.5527645,178.576485 59.5349946,178.568586 C58.6307056,178.124273 57.7323398,177.668111 56.8438462,177.194176 C56.3956505,176.957209 55.9553526,176.706419 55.5130802,176.461553 C55.0629101,176.212737 54.6087912,175.965897 54.16257,175.707207 C53.2957951,175.209576 52.4408668,174.692198 51.5918618,174.164946 C51.5701431,174.151123 51.5464499,174.139275 51.5247312,174.123477 C50.5355416,173.509337 49.5581987,172.87545 48.5966511,172.22379 C46.7130447,171.050803 44.2252626,171.562257 42.969525,173.41455 C41.6821965,175.312262 42.1758041,177.895204 44.0752059,179.182726 C45.0782165,179.865981 46.0930736,180.527515 47.1178029,181.167326 C47.1474194,181.185098 47.1750614,181.202871 47.2027034,181.220644 C48.1306856,181.799238 49.0665655,182.358086 50.0103432,182.90311 C50.4940786,183.181547 50.9857117,183.45011 51.473396,183.720647 C51.9650291,183.993159 52.4527134,184.267646 52.9482954,184.53226 C53.905894,185.041739 54.8733648,185.537396 55.8507078,186.015279 C55.8862475,186.031077 55.9198129,186.04885 55.9533782,186.066622 C57.0393148,186.593874 58.137098,187.105328 59.2467278,187.59506 C59.7916705,187.835977 60.3622809,187.950511 60.923019,187.950511" id="Fill-57" fill="#A7CD6A"></path>
                        <path d="M42.969525,23.6947423 C43.7731181,24.8795782 45.0801909,25.5174148 46.4109569,25.5174148 C47.2125756,25.5174148 48.0240664,25.2843971 48.7388101,24.8005891 C57.0491869,19.1607705 66.1532847,15.0177944 75.7193992,12.4723721 C84.2153724,10.2034114 93.0410755,9.20419984 101.951679,9.53990334 C104.259788,9.62284184 106.173011,7.83768916 106.259886,5.54503179 C106.342812,3.29976785 104.630981,1.40995466 102.407773,1.25000182 C101.16783,1.20260839 99.9239393,1.17693695 98.6780738,1.17693695 C89.6351834,1.17693695 80.7443241,2.4289135 72.1989901,4.83807973 C63.4186989,7.32426029 54.9701119,11.0466196 47.0842376,15.9755367 C46.025943,16.6370701 44.9834438,17.3183507 43.9547657,18.0154291 C42.1580342,19.3305969 41.7098385,21.8384995 42.969525,23.6947423" id="Fill-58" fill="#50B584"></path>
                        <path d="M154.386623,173.41455 C153.099294,171.516838 150.518714,171.019207 148.617338,172.308703 C141.181633,177.356104 133.110163,181.200896 124.639857,183.77594 C115.231697,186.651141 105.37929,187.948536 95.4044685,187.569389 C93.0924107,187.470653 91.1851111,189.271603 91.0982362,191.564261 C91.0133357,193.80755 92.7271411,195.699338 94.9503496,195.859291 C96.1902917,195.906684 97.4322084,195.930381 98.6780738,195.930381 C104.751421,195.930381 110.755664,195.371533 116.633542,194.27556 C116.773727,194.249888 116.911937,194.220268 117.052122,194.194596 C118.023541,194.008972 118.991012,193.80755 119.956508,193.592305 C120.260571,193.525164 120.562658,193.452099 120.864746,193.382984 C121.648595,193.199334 122.430469,193.005811 123.208395,192.804389 C123.656591,192.68788 124.102812,192.567422 124.549033,192.444989 C125.163081,192.275162 125.775154,192.099411 126.387228,191.917737 C126.96771,191.745935 127.546218,191.570185 128.122752,191.386535 C128.576871,191.24238 129.029015,191.092301 129.483134,190.942222 C130.188006,190.705255 130.894852,190.464338 131.595775,190.211573 C131.893914,190.104938 132.192052,189.992378 132.488217,189.881794 C133.319452,189.573736 134.148713,189.25778 134.97205,188.926026 C135.11026,188.870734 135.246496,188.813467 135.384706,188.7562 C140.518225,186.65904 145.499712,184.117567 150.27191,181.133756 C151.332179,180.470248 152.378627,179.786992 153.40928,179.087939 C155.198113,177.772771 155.644335,175.266843 154.386623,173.41455" id="Fill-59" fill="#53B475"></path>
                        <path d="M21.5015452,154.988378 C22.3051383,154.988378 23.1166291,154.757335 23.8313728,154.271552 C25.7288003,152.98403 26.2224078,150.399114 24.9350793,148.501402 C19.59622,140.634091 15.6157687,132.049956 13.0450605,123.041254 C10.4783012,114.079945 9.31931067,104.73554 9.67668254,95.2805498 C9.76355747,92.9878924 7.97472368,91.0585847 5.68241019,90.9716967 C3.4295853,90.8927077 1.5479533,92.600846 1.38802445,94.8224132 C1.34063812,96.0645162 1.31694496,97.3066191 1.31694496,98.5546462 C1.31694496,107.745023 2.60822233,116.775447 5.09402998,125.448445 C7.57983764,134.083924 11.2601756,142.391598 16.1113506,150.156222 C16.764887,151.202827 17.4361933,152.233634 18.1252695,153.248644 C18.9328114,154.378187 20.2043445,154.988378 21.5015452,154.988378" id="Fill-60" fill="#81C063"></path>
                        <path d="M11.771553,64.5952759 C12.3164957,64.8361925 12.8871061,64.9507267 13.4478443,64.9507267 C15.011593,64.9507267 16.5003134,64.0581503 17.2032106,62.559333 C17.6632528,61.5206269 18.1430393,60.4917944 18.6445446,59.4688861 C18.6662634,59.4254422 18.6899565,59.3819982 18.7116753,59.3365795 C19.142101,58.4617757 19.582399,57.5909213 20.0424412,56.7279659 C20.2951683,56.2481073 20.5636908,55.7781225 20.8243156,55.3061628 C21.0592728,54.8855461 21.2863323,54.4649294 21.5272128,54.0482621 C22.6269704,52.1367269 23.7958331,50.2686357 25.029852,48.4518874 C26.1908169,46.5679984 25.6774651,44.0916915 23.8313728,42.8377402 C21.9319709,41.5482439 19.3494162,42.0439002 18.0620877,43.9416123 C17.3769604,44.9506975 16.7135519,45.9696563 16.0679132,47.0004635 C16.0679132,47.0024382 16.0679132,47.0024382 16.0659387,47.004413 C15.4696608,47.9582058 14.8951016,48.9218723 14.3343634,49.8934377 C14.0697898,50.3495995 13.8170627,50.8136602 13.5623612,51.2757462 C13.2740944,51.7931245 12.9838532,52.3085281 12.7054585,52.8298559 C12.2098765,53.7658762 11.7281155,54.7078207 11.26215,55.6596389 C11.2325336,55.7188807 11.2029171,55.7761477 11.1733006,55.8353895 C10.6461278,56.9175396 10.1386992,58.011538 9.65101494,59.1173848 C8.72303274,61.216519 9.67273368,63.6691292 11.771553,64.5952759" id="Fill-61" fill="#53B475"></path>
                        <path d="M132.630376,11.6350881 C131.728061,13.6809046 132.610632,16.06045 134.600857,17.0359648 C135.66705,17.5079244 136.72337,18.001606 137.773767,18.5150349 C137.785613,18.5229338 137.799434,18.528858 137.811281,18.5347822 C138.719519,18.9810703 139.619859,19.4372322 140.514276,19.9151159 C140.960497,20.1520831 141.398821,20.4008986 141.841093,20.64379 C142.291263,20.896555 142.745382,21.1414211 143.193578,21.4001102 C144.062327,21.899716 144.917255,22.4170943 145.76626,22.9443463 C145.787979,22.9581694 145.809698,22.9700177 145.831416,22.9838408 C146.820606,23.5999554 147.795975,24.2318679 148.757522,24.8855023 C150.643103,26.0584898 153.130885,25.5470357 154.386623,23.6947423 C155.675926,21.7970302 155.180344,19.2121133 153.282916,17.9245917 C152.279906,17.2452858 151.267023,16.5837525 150.244268,15.9439411 C150.204779,15.9202444 150.161342,15.894573 150.121853,15.8689015 C149.205718,15.2982056 148.281684,14.7472569 147.351728,14.2081566 C146.85812,13.923796 146.356615,13.649309 145.85511,13.3728473 C145.375323,13.1062592 144.897511,12.8376965 144.413776,12.5790073 C143.446305,12.0655784 142.468962,11.5639979 141.479772,11.0821647 C141.456079,11.0703163 141.432386,11.0564932 141.408693,11.0446449 C140.318807,10.5154182 139.221024,10.003964 138.10942,9.51423189 C136.012575,8.58611047 133.558358,9.53595388 132.630376,11.6350881" id="Fill-62" fill="#53B475"></path>
                        <path d="M173.526749,42.8377402 C171.627347,44.1252619 171.13374,46.708204 172.421068,48.6078908 C177.678976,56.3567173 181.621913,64.8006475 184.194596,73.6612449 C186.844281,82.7469612 188.04276,92.2315722 187.679465,101.828743 C187.594565,104.1214 189.381424,106.048733 191.673737,106.135621 C191.727047,106.137596 191.780357,106.13957 191.833666,106.13957 C193.999616,106.13957 195.798322,104.466977 195.966149,102.308601 C196.013535,101.060574 196.039203,99.8085974 196.039203,98.5546462 C196.039203,89.2793562 194.724232,80.164019 192.193013,71.4199304 C189.707205,62.869365 186.05056,54.6426548 181.244797,46.9530701 C180.587312,45.8985662 179.910082,44.8598601 179.215083,43.8369518 C177.904061,42.0300771 175.388637,41.5739153 173.526749,42.8377402" id="Fill-63" fill="#54B36C"></path>
                        <path d="M183.009938,147.237577 C183.298204,146.737971 183.574625,146.232441 183.853019,145.726911 C184.117593,145.251002 184.384141,144.779042 184.638843,144.299184 C185.154169,143.327618 185.657649,142.348154 186.141384,141.356841 C186.151256,141.335119 186.163103,141.313397 186.172975,141.291675 C186.704097,140.203601 187.215474,139.103678 187.705133,137.991908 C188.633115,135.892773 187.683414,133.440163 185.584595,132.512042 C183.541059,131.607617 181.159897,132.492294 180.182554,134.482819 C179.712639,135.549171 179.217057,136.607624 178.703705,137.656204 C178.697782,137.668052 178.691859,137.677926 178.685935,137.689774 C178.241689,138.600123 177.781646,139.504548 177.303834,140.399099 C177.070852,140.839463 176.826022,141.269953 176.585142,141.706368 C176.33044,142.164504 176.081662,142.62659 175.817088,143.080777 C175.323481,143.937809 174.814078,144.782992 174.292828,145.62225 C174.273084,145.655821 174.25334,145.689391 174.233595,145.720987 C173.619547,146.706375 172.989704,147.677941 172.340117,148.637658 C171.161382,150.521547 171.672759,153.013651 173.526749,154.271552 C174.241493,154.757335 175.051009,154.988378 175.854602,154.988378 C177.185368,154.988378 178.492441,154.350541 179.296034,153.16768 C179.975238,152.166494 180.632724,151.153459 181.272439,150.132526 C181.302055,150.085132 181.331672,150.035764 181.361288,149.988371 C181.925975,149.079996 182.474867,148.161749 183.009938,147.237577" id="Fill-64" fill="#54B36C"></path>
                        <path d="M172.417119,48.613815 C171.129791,46.7141282 171.627347,44.1252619 173.526749,42.8377402 C175.388637,41.5739153 177.904061,42.0300771 179.215083,43.8369518 C172.245344,33.5604755 163.465053,24.8183616 153.308584,17.9463137 C155.184292,19.2397595 155.668028,21.8049291 154.386623,23.6947423 C153.130885,25.5470357 150.643103,26.0584898 148.757522,24.8855023 C158.037344,31.1848796 166.051556,39.2002942 172.417119,48.613815" id="Fill-65" fill="#89C693"></path>
                        <path d="M191.833666,106.13957 C191.780357,106.13957 191.727047,106.137596 191.673737,106.135621 C189.381424,106.048733 187.590616,104.099678 187.675516,101.807021 C187.266809,113.171571 184.715845,124.216216 180.182554,134.482819 C181.159897,132.492294 183.541059,131.607617 185.584595,132.512042 C187.673542,133.436214 188.623243,135.871051 187.716979,137.962287 C192.682671,126.763613 195.496234,114.705934 195.966149,102.308601 C195.798322,104.466977 193.999616,106.13957 191.833666,106.13957" id="Fill-66" fill="#89C693"></path>
                        <path d="M175.854602,154.988378 C175.051009,154.988378 174.241493,154.757335 173.526749,154.271552 C171.672759,153.013651 171.161382,150.521547 172.340117,148.637658 C166.02194,157.944543 158.003779,165.967857 148.558105,172.342274 C148.587721,172.322526 148.528488,172.363996 148.558105,172.342274 C150.457507,171.052777 153.099294,171.516838 154.386623,173.41455 C155.644335,175.266843 155.198113,177.772771 153.40928,179.087939 C163.676317,172.119129 172.411196,163.341471 179.278265,153.189402 C178.472697,154.35844 177.175496,154.988378 175.854602,154.988378" id="Fill-67" fill="#89C693"></path>
                        <path d="M91.0982362,191.564261 C91.1831367,189.283452 93.0726664,187.484476 95.3689288,187.56149 C84.029776,187.146798 72.9986343,184.595451 62.7533159,180.071353 C64.7435415,181.046868 65.6280863,183.428388 64.7237972,185.474204 C64.0386699,187.026339 62.5183587,187.950511 60.923019,187.950511 C60.372153,187.950511 59.8114148,187.839927 59.2743698,187.606909 C70.4812358,192.577295 82.5450045,195.39128 94.9503496,195.859291 C92.7271411,195.699338 91.0133357,193.80755 91.0982362,191.564261" id="Fill-68" fill="#88C8AB"></path>
                        <path d="M42.969525,173.41455 C44.2252626,171.562257 46.7130447,171.050803 48.5966511,172.22379 C39.1490025,165.807904 31.0123756,157.610814 24.5935029,147.976124 C24.7099943,148.1499 24.8185879,148.327626 24.9350793,148.501402 C26.2224078,150.399114 25.7288003,152.98403 23.8313728,154.271552 C23.1166291,154.757335 22.3051383,154.988378 21.5015452,154.988378 C20.2043445,154.988378 18.9328114,154.378187 18.1252695,153.248644 C25.098957,163.536968 33.8851715,172.286981 44.0495383,179.164953 C42.1718552,177.871508 41.6881198,175.304363 42.969525,173.41455" id="Fill-69" fill="#E8E979"></path>
                        <path d="M9.67668254,95.2805498 L9.66681039,95.8611193 C10.0123357,84.2813236 12.579095,73.0115599 17.2032106,62.559333 C16.5003134,64.0581503 15.011593,64.9507267 13.4478443,64.9507267 C12.8871061,64.9507267 12.3164957,64.8361925 11.771553,64.5952759 C9.68260583,63.6730787 8.73487932,61.2402157 9.63916836,59.1489805 C4.66952748,70.3555529 1.85596441,82.4191566 1.38802445,94.8224132 C1.5479533,92.600846 3.4295853,90.8927077 5.68241019,90.9716967 C7.97472368,91.0585847 9.76355747,92.9878924 9.67668254,95.2805498" id="Fill-70" fill="#89C693"></path>
                        <path d="M46.4109569,25.5174148 C45.0801909,25.5174148 43.7731181,24.8795782 42.969525,23.6947423 C41.7098385,21.8384995 42.1580342,19.3305969 43.9547657,18.0154291 C33.6837797,24.9862134 24.9449515,33.7678218 18.0759087,43.9238398 C19.3671861,42.0419255 21.9378942,41.5541681 23.8313728,42.8377402 C25.6774651,44.0916915 26.1908169,46.5679984 25.029852,48.4518874 C31.4408269,39.0126952 39.6287891,30.8827465 49.252162,24.4668603 C49.082361,24.5813945 48.9086111,24.686055 48.7388101,24.8005891 C48.0240664,25.2843971 47.2125756,25.5174148 46.4109569,25.5174148" id="Fill-71" fill="#88C8AB"></path>
                        <path d="M138.095599,9.50830771 C126.888733,4.53792131 114.811143,1.71801199 102.407773,1.25000182 C104.630981,1.40995466 106.342812,3.29976785 106.259886,5.54503179 C106.173011,7.83768916 104.259788,9.62284184 101.951679,9.53990334 L101.369222,9.5300297 C112.923588,9.8736321 124.169942,12.4309028 134.600857,17.0359648 C132.610632,16.06045 131.728061,13.6809046 132.630376,11.6350881 C133.554409,9.54582751 136.004677,8.60190829 138.095599,9.50830771" id="Fill-72" fill="#88C8AB"></path>
                    </g>
                    <g id="Group" transform="translate(27.842105, 30.157895)">
                        <path d="M50.7955164,43.3301312 L26.7692006,18.9885463 C25.3092062,17.5093941 22.9265571,17.4938636 21.4474049,18.9538581 C19.9682527,20.4138525 19.9527222,22.7965016 21.4127166,24.2756538 L45.4390324,48.6172387 C46.8990268,50.0963909 49.2816759,50.1119213 50.7608281,48.6519269 C52.2399804,47.1919325 52.2555108,44.8092834 50.7955164,43.3301312 L50.7955164,43.3301312 Z" id="Shape" opacity="0.3" fill="#88C8AB"></path>
                        <path d="M119.737652,112.852714 L96.2902839,88.2216551 C94.8572953,86.7163251 92.4753173,86.6576808 90.9699873,88.0906695 C89.4646573,89.5236581 89.406013,91.9056361 90.8390017,93.4109661 L114.28637,118.042025 C115.719359,119.547355 118.101337,119.605999 119.606667,118.17301 C121.111997,116.740022 121.170641,114.358044 119.737652,112.852714 L119.737652,112.852714 Z" id="Shape" opacity="0.3" fill="#53B375"></path>
                        <path d="M136.886017,64.7894738 L117.880432,64.7894738 C115.802098,64.7894738 114.117274,66.4742969 114.117274,68.5526316 C114.117274,70.6309662 115.802098,72.3157894 117.880432,72.3157894 L136.886017,72.3157894 C138.964351,72.3157894 140.649174,70.6309662 140.649174,68.5526316 C140.649174,66.4742969 138.964351,64.7894738 136.886017,64.7894738 L136.886017,64.7894738 Z" id="Shape" fill="#88C8AB"></path>
                        <path d="M74.4593796,132.841584 L74.4593796,116.026316 C74.4593796,113.947981 72.7745564,112.263158 70.6962218,112.263158 C68.6178871,112.263158 66.933064,113.947981 66.933064,116.026316 L66.933064,132.841584 C66.933064,134.919918 68.6178871,136.604742 70.6962218,136.604742 C72.7745564,136.604742 74.4593796,134.919918 74.4593796,132.841584 L74.4593796,132.841584 Z" id="Shape" fill="#89C693"></path>
                        <path d="M74.4593796,21.1047416 L74.4593796,4.28947368 C74.4593796,2.21113902 72.7745564,0.526315889 70.6962218,0.526315889 C68.6178871,0.526315889 66.933064,2.21113902 66.933064,4.28947368 L66.933064,21.1047416 C66.933064,23.1830763 68.6178871,24.8678994 70.6962218,24.8678994 C72.7745564,24.8678994 74.4593796,23.1830763 74.4593796,21.1047416 L74.4593796,21.1047416 Z" id="Shape" fill="#53B375"></path>
                        <path d="M23.4123324,64.7894738 L4.40674808,64.7894738 C2.32841342,64.7894738 0.643590289,66.4742969 0.643590289,68.5526316 C0.643590289,70.6309662 2.32841342,72.3157894 4.40674808,72.3157894 L23.4123324,72.3157894 C25.4906671,72.3157894 27.1754902,70.6309662 27.1754902,68.5526316 C27.1754902,66.4742969 25.4906671,64.7894738 23.4123324,64.7894738 L23.4123324,64.7894738 Z" id="Shape" fill="#81BF63"></path>
                        <path d="M114.640531,19.550093 L91.0488692,43.1417544 C89.5792647,44.6113589 89.5792647,46.9940586 91.0488693,48.4636632 C92.5184738,49.9332677 94.9011735,49.9332677 96.370778,48.4636632 L119.962439,24.8720018 C121.432044,23.4023973 121.432044,21.0196976 119.962439,19.550093 C118.492835,18.0804885 116.110135,18.0804885 114.640531,19.550093 L114.640531,19.550093 Z" id="Shape" opacity="0.3" fill="#89C693"></path>
                        <path d="M45.4885704,88.4387603 L21.172781,112.175603 C19.6855783,113.627396 19.6568732,116.009923 21.1086663,117.497126 C22.5604594,118.984328 24.9429862,119.013033 26.4301889,117.56124 L50.7459784,93.8243976 C52.233181,92.3726045 52.2618861,89.9900777 50.810093,88.502875 C49.3582999,87.0156723 46.9757731,86.9869672 45.4885704,88.4387603 L45.4885704,88.4387603 Z" id="Shape" opacity="0.3" fill="#E7E879"></path>
                        <path d="M67.5120113,34.9736842 C67.5120113,55.6005594 84.2946909,72.3157894 104.989615,72.3157894 C107.067949,72.3157894 108.752773,70.6309662 108.752773,68.5526316 C108.752773,66.4742969 107.067949,64.7894738 104.989615,64.7894738 C88.4445904,64.7894738 75.0383269,51.4370901 75.0383269,34.9736842 C75.0383269,32.8953495 73.3535038,31.2105264 71.2751691,31.2105264 C69.1968345,31.2105264 67.5120113,32.8953495 67.5120113,34.9736842 L67.5120113,34.9736842 Z" id="Shape" fill="#88C8AB"></path>
                        <path d="M66.7790886,34.9736842 C66.7790886,51.4370901 53.3728252,64.7894738 36.8278007,64.7894738 C34.7494661,64.7894738 33.0646429,66.4742969 33.0646429,68.5526316 C33.0646429,70.6309662 34.7494661,72.3157894 36.8278007,72.3157894 C57.5227247,72.3157894 74.3054042,55.6005594 74.3054042,34.9736842 C74.3054042,32.8953495 72.6205811,31.2105264 70.5422464,31.2105264 C68.4639117,31.2105264 66.7790886,32.8953495 66.7790886,34.9736842 L66.7790886,34.9736842 Z" id="Shape" fill="#53B375"></path>
                        <path d="M33.1605527,68.4542558 C33.1605527,89.081131 49.9432323,105.796361 70.6381562,105.796361 C72.7164909,105.796361 74.401314,104.111538 74.401314,102.033203 C74.401314,99.9548685 72.7164909,98.2700453 70.6381562,98.2700453 C54.0931318,98.2700453 40.6868683,84.9176616 40.6868683,68.4542558 C40.6868683,66.3759211 39.0020452,64.691098 36.9237105,64.691098 C34.8453759,64.691098 33.1605527,66.3759211 33.1605527,68.4542558 L33.1605527,68.4542558 Z" id="Shape" fill="#E7E879" transform="translate(53.780933, 85.243729) rotate(-180.000000) translate(-53.780933, -85.243729) "></path>
                        <path d="M101.322367,68.4542558 C101.322367,84.9176616 87.9161034,98.2700453 71.3710789,98.2700453 C69.2927443,98.2700453 67.6079212,99.9548685 67.6079212,102.033203 C67.6079212,104.111538 69.2927443,105.796361 71.3710789,105.796361 C92.0660029,105.796361 108.848682,89.081131 108.848682,68.4542558 C108.848682,66.3759211 107.163859,64.691098 105.085525,64.691098 C103.00719,64.691098 101.322367,66.3759211 101.322367,68.4542558 L101.322367,68.4542558 Z" id="Shape" fill="#53B375" transform="translate(88.228302, 85.243729) rotate(-180.000000) translate(-88.228302, -85.243729) "></path>
                        <ellipse id="Oval-13" opacity="0.3" fill="#53B375" cx="117.175755" cy="22.363806" rx="3.89987302" ry="3.89987302"></ellipse>
                        <ellipse id="Oval-13" opacity="0.3" fill="#88C8AB" cx="117.175755" cy="115.736842" rx="3.89987302" ry="3.89987302"></ellipse>
                        <ellipse id="Oval-13" opacity="0.3" fill="#E7E879" cx="23.8014849" cy="21.3426264" rx="3.89987302" ry="3.89987302"></ellipse>
                        <ellipse id="Oval-13" fill="#89C693" cx="23.8014849" cy="115.1321" rx="3.89987302" ry="3.89987302"></ellipse>
                    </g>
                </g>
                <g id="Group" transform="translate(210.000000, 158.000000)" sketch:type="MSShapeGroup">
                    <path d="M113.252649,58.5464437 C129.442104,58.5464437 142.579672,45.5284527 142.579672,29.4532218 C142.579672,13.377991 129.442104,0.359999946 113.252649,0.359999946 C97.0631934,0.359999946 83.9256249,13.377991 83.9256249,29.4532218 C83.9256249,45.5284527 97.0631934,58.5464437 113.252649,58.5464437 L113.252649,58.5464437 Z M113.252649,51.2664436 C101.069001,51.2664436 91.2056251,41.4928435 91.2056251,29.4532218 C91.2056251,17.4136001 101.069001,7.64000005 113.252649,7.64000005 C125.436296,7.64000005 135.299672,17.4136001 135.299672,29.4532218 C135.299672,41.4928435 125.436296,51.2664436 113.252649,51.2664436 L113.252649,51.2664436 Z" id="Shape" fill="#E7E879"></path>
                    <rect id="Rectangle-30" fill="#81BF63" x="84.5716066" y="110.157315" width="79.2312103" height="8.37378641" rx="8.96000013"></rect>
                    <rect id="Rectangle-30" fill="#55B36C" transform="translate(84.571607, 89.118721) rotate(-270.000000) translate(-84.571607, -89.118721) " x="75.8544975" y="84.9318279" width="17.4342182" height="8.37378641" rx="8.96000013"></rect>
                    <rect id="Rectangle-30" fill="#88C8AB" transform="translate(168.028169, 77.832276) rotate(-270.000000) translate(-168.028169, -77.832276) " x="146.47545" y="73.6453825" width="43.1054383" height="8.37378641" rx="8.96000013"></rect>
                    <rect id="Rectangle-30" fill="#88C8AB" transform="translate(113.252649, 65.510815) rotate(-270.000000) translate(-113.252649, -65.510815) " x="80.2973493" y="61.3239217" width="65.9105986" height="8.37378641" rx="8.96000013"></rect>
                    <rect id="Rectangle-30" fill="#55B36C" transform="translate(41.933691, 82.345214) rotate(-270.000000) translate(-41.933691, -82.345214) " x="25.967424" y="78.1583212" width="31.9325332" height="8.37378641" rx="8.96000013"></rect>
                    <rect id="Rectangle-30" fill="#E7E879" x="44.8532968" y="110.157315" width="27.6056338" height="8.37378641" rx="8.96000013"></rect>
                    <rect id="Rectangle-30" fill="#55B36C" x="0.460675558" y="92.1398255" width="94.9369498" height="9.71359223" rx="8.96000013"></rect>
                    <rect id="Rectangle-30" fill="#81BF63" x="161.638385" y="92.3491701" width="28.2589105" height="9.71359223" rx="8.96000013"></rect>
                    <rect id="Rectangle-30" fill="#E7E879" x="102.946873" y="92.3491701" width="55.5012791" height="9.71359223" rx="8.96000013"></rect>
                    <path d="M168.028169,73.8876371 C176.980477,73.8876371 184.251178,66.6831135 184.251178,57.7791583 C184.251178,48.8752031 176.980477,41.6706796 168.028169,41.6706796 C159.075861,41.6706796 151.80516,48.8752031 151.80516,57.7791583 C151.80516,66.6831135 159.075861,73.8876371 168.028169,73.8876371 L168.028169,73.8876371 Z M168.028169,66.607637 C163.081669,66.607637 159.085161,62.6475044 159.085161,57.7791583 C159.085161,52.9108122 163.081669,48.9506797 168.028169,48.9506797 C172.974669,48.9506797 176.971177,52.9108122 176.971177,57.7791583 C176.971177,62.6475044 172.974669,66.607637 168.028169,66.607637 L168.028169,66.607637 Z" id="Shape" fill="#81BF63"></path>
                </g>
                <g id="Group-Copy" transform="translate(0.000000, 158.000000)" sketch:type="MSShapeGroup">
                    <path d="M43.2526486,58.5464437 C59.4421039,58.5464437 72.5796723,45.5284527 72.5796723,29.4532218 C72.5796723,13.377991 59.4421039,0.359999946 43.2526486,0.359999946 C27.0631934,0.359999946 13.9256249,13.377991 13.9256249,29.4532218 C13.9256249,45.5284527 27.0631934,58.5464437 43.2526486,58.5464437 L43.2526486,58.5464437 Z M43.2526486,51.2664436 C31.069001,51.2664436 21.2056251,41.4928435 21.2056251,29.4532218 C21.2056251,17.4136001 31.069001,7.64000005 43.2526486,7.64000005 C55.4362962,7.64000005 65.2996722,17.4136001 65.2996722,29.4532218 C65.2996722,41.4928435 55.4362962,51.2664436 43.2526486,51.2664436 L43.2526486,51.2664436 Z" id="Shape" fill="#E7E879"></path>
                    <rect id="Rectangle-30" fill="#81BF63" x="132.571607" y="110.157315" width="79.2312103" height="8.37378641" rx="8.96000013"></rect>
                    <rect id="Rectangle-30" fill="#81BF63" transform="translate(105.890565, 72.528878) rotate(-270.000000) translate(-105.890565, -72.528878) " x="78.9857328" y="68.3419844" width="53.8096636" height="8.37378641" rx="8.96000013"></rect>
                    <rect id="Rectangle-30" fill="#55B36C" transform="translate(74.571607, 89.118721) rotate(-270.000000) translate(-74.571607, -89.118721) " x="65.8544975" y="84.9318279" width="17.4342182" height="8.37378641" rx="8.96000013"></rect>
                    <rect id="Rectangle-30" fill="#88C8AB" transform="translate(43.252649, 65.510815) rotate(-270.000000) translate(-43.252649, -65.510815) " x="10.2973493" y="61.3239217" width="65.9105986" height="8.37378641" rx="8.96000013"></rect>
                    <rect id="Rectangle-30" fill="#E7E879" x="74.8532968" y="110.157315" width="27.6056338" height="8.37378641" rx="8.96000013"></rect>
                    <rect id="Rectangle-30" fill="#55B36C" x="0.460675558" y="92.1398255" width="94.9369498" height="9.71359223" rx="8.96000013"></rect>
                    <rect id="Rectangle-30" fill="#81BF63" x="191.638385" y="92.3491701" width="28.2589105" height="9.71359223" rx="8.96000013"></rect>
                    <rect id="Rectangle-30" fill="#E7E879" x="82.9468728" y="92.3491701" width="55.5012791" height="9.71359223" rx="8.96000013"></rect>
                    <path d="M105.633803,63.4652428 C115.259792,63.4652428 123.07662,55.7195632 123.07662,46.1480583 C123.07662,36.5765533 115.259792,28.8308737 105.633803,28.8308737 C96.0078137,28.8308737 88.1909859,36.5765533 88.1909859,46.1480583 C88.1909859,55.7195632 96.0078137,63.4652428 105.633803,63.4652428 L105.633803,63.4652428 Z M105.633803,56.1852427 C100.013621,56.1852427 95.470986,51.6839541 95.470986,46.1480583 C95.470986,40.6121624 100.013621,36.1108738 105.633803,36.1108738 C111.253984,36.1108738 115.79662,40.6121624 115.79662,46.1480583 C115.79662,51.6839541 111.253984,56.1852427 105.633803,56.1852427 L105.633803,56.1852427 Z" id="Shape" fill="#53B375"></path>
                </g>
                <g id="+" transform="translate(302.000000, 26.000000)" sketch:type="MSShapeGroup">
                    <path d="M23.295058,8.47368431 L4.28947368,8.47368431 C2.21113902,8.47368431 0.526315889,10.1585074 0.526315889,12.2368421 C0.526315889,14.3151768 2.21113902,15.9999999 4.28947368,15.9999999 L23.295058,15.9999999 C25.3733927,15.9999999 27.0582158,14.3151768 27.0582158,12.2368421 C27.0582158,10.1585074 25.3733927,8.47368431 23.295058,8.47368431 L23.295058,8.47368431 Z" id="Shape" fill="#88C8AB"></path>
                    <path d="M17.6315788,21.1047416 L17.6315788,4.28947368 C17.6315788,2.21113902 15.9467557,0.526315889 13.8684211,0.526315889 C11.7900864,0.526315889 10.1052633,2.21113902 10.1052633,4.28947368 L10.1052633,21.1047416 C10.1052633,23.1830763 11.7900864,24.8678994 13.8684211,24.8678994 C15.9467557,24.8678994 17.6315788,23.1830763 17.6315788,21.1047416 L17.6315788,21.1047416 Z" id="Shape" fill="#89C693"></path>
                </g>
                <g id="+" transform="translate(48.000000, 86.000000)" sketch:type="MSShapeGroup">
                    <path d="M17.6315788,21.1047416 L17.6315788,4.28947368 C17.6315788,2.21113902 15.9467557,0.526315889 13.8684211,0.526315889 C11.7900864,0.526315889 10.1052633,2.21113902 10.1052633,4.28947368 L10.1052633,21.1047416 C10.1052633,23.1830763 11.7900864,24.8678994 13.8684211,24.8678994 C15.9467557,24.8678994 17.6315788,23.1830763 17.6315788,21.1047416 L17.6315788,21.1047416 Z" id="Shape" fill="#53B375"></path>
                    <path d="M23.295058,9.0000001 L4.28947368,9.0000001 C2.21113902,9.0000001 0.526315889,10.6848232 0.526315889,12.7631579 C0.526315889,14.8414926 2.21113902,16.5263157 4.28947368,16.5263157 L23.295058,16.5263157 C25.3733927,16.5263157 27.0582158,14.8414926 27.0582158,12.7631579 C27.0582158,10.6848232 25.3733927,9.0000001 23.295058,9.0000001 L23.295058,9.0000001 Z" id="Shape" fill="#81BF63"></path>
                </g>
            </g>
        </g>
    </g>
</svg>