<?xml version="1.0" encoding="UTF-8" standalone="no"?>
<svg width="244px" height="90px" viewBox="0 0 244 90" version="1.1" xmlns="http://www.w3.org/2000/svg" xmlns:xlink="http://www.w3.org/1999/xlink" xmlns:sketch="http://www.bohemiancoding.com/sketch/ns">
    <!-- Generator: Sketch 3.3.2 (12043) - http://www.bohemiancoding.com/sketch -->
    <title>local light logotype</title>
    <desc>Created with Sketch.</desc>
    <defs></defs>
    <g id="logos" stroke="none" stroke-width="1" fill="none" fill-rule="evenodd" sketch:type="MSPage">
        <g id="Logos" sketch:type="MSArtboardGroup" transform="translate(-72.000000, -249.000000)" fill="#FFFFFF">
            <g id="bottom-logotype" sketch:type="MSLayerGroup" transform="translate(73.000000, 259.000000)">
                <path d="M187.394627,43.7511864 L0.678208955,63.5410169 L0.80358209,64.720339 L187.521194,44.9305085 L187.394627,43.7511864" id="Fill-1" opacity="0.5" sketch:type="MSShapeGroup"></path>
                <path d="M130.629254,55.7674576 L130.476418,56.9455932 L226.502687,69.3130508 L226.655522,68.1361017 L130.629254,55.7674576" id="Fill-2" opacity="0.5" sketch:type="MSShapeGroup"></path>
                <path d="M166.844179,52.0633898 C166.029851,53.6828814 165.10806,55.2240678 164.08,56.6845763 C164.488358,56.6240678 164.912239,56.570678 165.355224,56.5267797 C165.258507,56.1910169 165.151045,55.8481356 165.037612,55.4957627 L166.087164,55.1410169 C166.40597,55.9940678 166.65791,56.799661 166.844179,57.5566102 L166.844179,56.9491525 L169.395821,56.9491525 L169.395821,58.2566102 C169.050746,59.9022034 168.189851,61.1788136 166.81791,62.0852542 L165.860299,60.9889831 C166.214925,60.7694915 166.538507,60.5322034 166.831045,60.2771186 L165.807761,60.4871186 C165.719403,59.8808475 165.577313,59.3077966 165.382687,58.770339 L166.40597,58.4666102 C166.635224,59.0218644 166.813134,59.5901695 166.936119,60.1715254 C167.478209,59.6423729 167.877015,59.0052542 168.132537,58.2566102 L166.844179,58.2566102 L166.844179,58.0454237 L165.781493,58.4144068 C165.745672,58.229322 165.714627,58.0454237 165.688358,57.860339 C164.465672,58.0537288 163.34806,58.2566102 162.339104,58.4666102 L161.767164,57.0547458 C162.247164,56.9147458 162.626866,56.6311864 162.909851,56.21 C163.167761,55.8042373 163.424478,55.3949153 163.681194,54.9820339 C163.185672,55.060339 162.729552,55.1445763 162.312836,55.2323729 L161.781493,53.8062712 C162.214925,53.7101695 162.499104,53.5108475 162.631642,53.2130508 C163.056716,52.2710169 163.43403,51.2186441 163.761194,50.0559322 L165.183284,50.200678 C164.828657,51.3455932 164.407164,52.4549153 163.921194,53.5286441 C164.115821,53.5025424 164.323582,53.48 164.544478,53.4622034 C164.864478,52.8737288 165.178507,52.2567797 165.487761,51.6149153 L166.844179,52.0633898 L166.844179,52.0633898 Z M161.767164,61.8740678 C161.998806,61.0649153 162.136119,60.0837288 162.180299,58.929322 L163.389851,58.9957627 C163.397015,60.2367797 163.278806,61.3105085 163.030448,62.2181356 L161.767164,61.8740678 L161.767164,61.8740678 Z M163.973731,61.6759322 C163.983284,60.7338983 163.911642,59.8227119 163.761194,58.9435593 L164.917015,58.8237288 C165.111642,59.7562712 165.222687,60.6947458 165.248955,61.6355932 L163.973731,61.6759322 L163.973731,61.6759322 Z M169.83403,60.3827119 L169.83403,56.1957627 L167.189254,56.1957627 L167.189254,51.0205085 L169.276418,51.0205085 L169.647761,49.990678 L171.242985,50.109322 L170.883582,51.0205085 L173.700299,51.0205085 L173.700299,56.1957627 L171.362388,56.1957627 L171.362388,57.0808475 C171.539104,57.4166102 171.734925,57.7369492 171.947463,58.0454237 C172.434627,57.6147458 172.944478,57.1247458 173.474627,56.5801695 L174.551642,57.5566102 C174.001194,58.0667797 173.405373,58.5638983 172.757015,59.0491525 C173.289552,59.629322 173.904478,60.1454237 174.604179,60.5927119 L173.714627,62.0069492 C172.784478,61.2405085 172,60.3601695 171.362388,59.3647458 L171.362388,61.0815254 C171.362388,61.9879661 170.911045,62.4423729 170.007164,62.4423729 L168.49194,62.4423729 L168.213731,60.9237288 L169.289552,60.9237288 C169.652537,60.9237288 169.83403,60.7422034 169.83403,60.3827119 L169.83403,60.3827119 Z M168.718806,53.0540678 L172.174328,53.0540678 L172.174328,52.2223729 L168.718806,52.2223729 L168.718806,53.0540678 Z M168.718806,54.9820339 L172.174328,54.9820339 L172.174328,54.2167797 L168.718806,54.2167797 L168.718806,54.9820339 Z" id="Fill-3" sketch:type="MSShapeGroup"></path>
                <path d="M190.776119,61.8740678 L178.311642,61.8740678 L178.311642,60.2498305 L183.26806,60.2498305 L183.26806,50.0559322 L184.902687,50.0559322 L184.902687,53.6484746 L189.885373,53.6484746 L189.885373,55.2715254 L184.902687,55.2715254 L184.902687,60.2498305 L190.776119,60.2498305 L190.776119,61.8740678" id="Fill-4" sketch:type="MSShapeGroup"></path>
                <path d="M194.550448,54.9547458 L194.550448,53.3305085 L195.720597,53.3305085 L195.720597,50.0559322 L197.26209,50.0559322 L197.26209,53.3305085 L198.192239,53.3305085 L198.192239,54.9547458 L197.26209,54.9547458 L197.26209,62.4423729 L195.720597,62.4423729 L195.720597,54.9547458 L194.550448,54.9547458 L194.550448,54.9547458 Z M197.927164,58.6255932 L203.879403,58.6255932 L203.879403,58.0584746 L204.33194,58.0584746 L204.118209,57.3311864 L204.663881,57.3311864 C204.88597,57.3311864 204.995821,57.2267797 204.995821,57.0155932 L204.995821,56.8957627 L203.388657,56.8957627 L203.388657,58.0062712 L201.847164,58.0062712 L201.847164,56.8957627 L200.291343,56.8957627 L200.291343,58.2566102 L198.816716,58.2566102 L198.816716,52.7894915 L201.847164,52.7894915 L201.847164,52.2223729 L198.298507,52.2223729 L198.298507,51.0205085 L201.847164,51.0205085 L201.847164,50.0559322 L203.388657,50.0559322 L203.388657,51.0205085 L204.969552,51.0205085 C204.686567,50.9149153 204.379701,50.8128814 204.051343,50.7167797 L204.557612,49.9123729 C205.213134,50.0879661 205.785075,50.289661 206.272239,50.5186441 L205.966567,51.0205085 L207.122388,51.0205085 L207.122388,52.2223729 L203.388657,52.2223729 L203.388657,52.7894915 L206.471642,52.7894915 L206.471642,57.1472881 C206.471642,57.8686441 206.117015,58.2435593 205.407761,58.2684746 L205.407761,58.6255932 L207.176119,58.6255932 L207.176119,59.8808475 L205.407761,59.8808475 L205.407761,61.0815254 C205.407761,61.9879661 204.950448,62.4423729 204.039403,62.4423729 L202.231642,62.4423729 L201.939104,60.9237288 L203.334925,60.9237288 C203.699104,60.9237288 203.879403,60.7422034 203.879403,60.3827119 L203.879403,59.8808475 L200.557612,59.8808475 C201.036418,60.2332203 201.461493,60.5855932 201.832836,60.9355932 L200.650746,61.8740678 C200.269851,61.46 199.712239,60.9842373 198.976716,60.4479661 L199.66806,59.8808475 L197.927164,59.8808475 L197.927164,58.6255932 L197.927164,58.6255932 Z M200.291343,54.4410169 L201.847164,54.4410169 L201.847164,53.8466102 L200.291343,53.8466102 L200.291343,54.4410169 Z M200.291343,55.9454237 L201.847164,55.9454237 L201.847164,55.4032203 L200.291343,55.4032203 L200.291343,55.9454237 Z M203.388657,54.4410169 L204.997015,54.4410169 L204.997015,53.8466102 L203.388657,53.8466102 L203.388657,54.4410169 Z M203.388657,55.9454237 L204.997015,55.9454237 L204.997015,55.4032203 L203.388657,55.4032203 L203.388657,55.9454237 Z" id="Fill-5" sketch:type="MSShapeGroup"></path>
                <path d="M222.084776,55.7081356 L222.084776,60.2771186 L219.52,60.2771186 L219.52,60.8181356 C219.52,61.0554237 219.639403,61.1752542 219.878209,61.1752542 L221.659701,61.1752542 C221.959403,61.1752542 222.112239,61.0257627 222.112239,60.7255932 L222.112239,60.1845763 L223.598806,60.4610169 L223.598806,61.1088136 C223.598806,61.8918644 223.235821,62.2833898 222.508657,62.2833898 L219.080597,62.2833898 C218.354627,62.2833898 217.991642,61.8918644 217.991642,61.1088136 L217.991642,60.2771186 L216.037015,60.2771186 C215.559403,61.0945763 214.961194,61.6498305 214.244776,61.9405085 C213.394627,62.2833898 212.490746,62.4423729 211.533134,62.4150847 L211.02806,61.029322 C211.976119,61.1266102 212.747463,61.099322 213.340896,60.9498305 C213.756418,60.8276271 214.124179,60.6022034 214.444179,60.2771186 L212.357015,60.2771186 L212.357015,55.7081356 L222.084776,55.7081356 L222.084776,55.7081356 Z M216.662687,55.219322 L211.493731,55.219322 L211.493731,50.4 L216.662687,50.4 L216.662687,51.1925424 L215.160597,51.1925424 L215.160597,51.7857627 L216.530149,51.7857627 L216.530149,51.9316949 C217.229851,51.4025424 217.738507,50.7737288 218.058507,50.0440678 L219.506866,50.0440678 C219.426866,50.2279661 219.346866,50.4035593 219.26806,50.5708475 L223.054328,50.5708475 L223.054328,51.4298305 L218.789254,51.4298305 C218.691343,51.5532203 218.598209,51.6813559 218.509851,51.8130508 L222.629254,51.8130508 L222.629254,52.5652542 L218.111045,52.5652542 L218.111045,52.300678 C217.916418,52.5379661 217.712239,52.7586441 217.499701,52.9615254 L216.530149,52.1025424 L216.530149,53.819322 L215.160597,53.819322 L215.160597,54.4137288 L216.662687,54.4137288 L216.662687,55.219322 L216.662687,55.219322 Z M212.822687,51.7857627 L213.93791,51.7857627 L213.93791,51.1913559 L212.822687,51.1913559 L212.822687,51.7857627 Z M212.822687,53.1323729 L215.160597,53.1323729 L215.160597,52.4857627 L212.822687,52.4857627 L212.822687,53.1323729 Z M212.822687,54.4137288 L213.93791,54.4137288 L213.93791,53.819322 L212.822687,53.819322 L212.822687,54.4137288 Z M213.939104,57.0547458 L220.503881,57.0547458 L220.503881,56.5137288 L213.939104,56.5137288 L213.939104,57.0547458 Z M213.939104,58.229322 L220.503881,58.229322 L220.503881,57.7416949 L213.939104,57.7416949 L213.939104,58.229322 Z M213.939104,59.4715254 L220.503881,59.4715254 L220.503881,58.929322 L213.939104,58.929322 L213.939104,59.4715254 Z M217.154627,52.9745763 L222.735522,52.9745763 L222.735522,55.2715254 L217.154627,55.2715254 L217.154627,52.9745763 Z M218.164776,54.4659322 L218.841791,54.4659322 L218.841791,53.7801695 L218.164776,53.7801695 L218.164776,54.4659322 Z M219.6,54.4659322 L220.223284,54.4659322 L220.223284,53.7801695 L219.6,53.7801695 L219.6,54.4659322 Z M221.020896,54.4659322 L221.725373,54.4659322 L221.725373,53.7801695 L221.020896,53.7801695 L221.020896,54.4659322 Z" id="Fill-6" sketch:type="MSShapeGroup"></path>
                <path d="M227.240597,52.6969492 C229.739701,52.0550847 231.865075,51.1177966 233.619104,49.8850847 L234.961194,50.4130508 L234.655522,50.6242373 C236.268657,51.4428814 238.031045,52.0894915 239.945075,52.5652542 L239.373134,53.8857627 C238.266269,53.5772881 237.216716,53.2035593 236.224478,52.7633898 L236.224478,53.2379661 L230.988657,53.2379661 L230.988657,52.7894915 C229.970149,53.2652542 228.89791,53.6615254 227.773134,53.9783051 L227.240597,52.6969492 L227.240597,52.6969492 Z M228.464478,53.8062712 L238.669851,53.8062712 L238.669851,57.4367797 L228.464478,57.4367797 L228.464478,53.8062712 Z M229.168955,58.0062712 L238.019104,58.0062712 L238.019104,62.4423729 L236.435821,62.4423729 L236.435821,62.0852542 L230.749851,62.0852542 L230.749851,62.4423729 L229.168955,62.4423729 L229.168955,58.0062712 L229.168955,58.0062712 Z M231.240597,56.4342373 C230.993433,56.0640678 230.691343,55.6938983 230.336716,55.3249153 L231.10806,54.81 L229.898507,54.81 L229.898507,56.4342373 L231.240597,56.4342373 L231.240597,56.4342373 Z M230.749851,59.5771186 L236.437015,59.5771186 L236.437015,58.9566102 L230.749851,58.9566102 L230.749851,59.5771186 Z M230.749851,61.0684746 L236.437015,61.0684746 L236.437015,60.4752542 L230.749851,60.4752542 L230.749851,61.0684746 Z M231.426866,54.81 C231.789851,55.170678 232.109851,55.539661 232.383284,55.919322 L231.547463,56.4342373 L232.848955,56.4342373 L232.848955,54.81 L231.426866,54.81 L231.426866,54.81 Z M232.064478,52.2757627 L235.147463,52.2757627 C234.606567,51.9922034 234.076418,51.6979661 233.552239,51.3894915 C233.065075,51.6979661 232.569552,51.9922034 232.064478,52.2757627 L232.064478,52.2757627 Z M234.602985,55.8528814 C234.913433,55.5538983 235.237015,55.2050847 235.573731,54.81 L234.231642,54.81 L234.231642,56.4342373 L235.399403,56.4342373 L234.602985,55.8528814 L234.602985,55.8528814 Z M236.688955,55.2976271 C236.38806,55.6867797 236.041791,56.0640678 235.652537,56.4342373 L237.233433,56.4342373 L237.233433,54.81 L236.025075,54.81 L236.688955,55.2976271 L236.688955,55.2976271 Z" id="Fill-7" sketch:type="MSShapeGroup"></path>
                <path d="M15.5295522,28.8672881 L49.5008955,30.4761017 C50.3916418,30.5188136 50.8537313,31.5284746 50.4023881,32.4325424 L48.3307463,36.5791525 C47.8423881,37.5544068 46.8764179,38.1701695 45.9068657,38.1250847 L11.9092537,36.5257627 C11.3802985,36.5008475 11.0328358,35.9266102 11.2298507,35.3986441 L13.0029851,30.6350847 C13.4161194,29.5257627 14.4310448,28.8150847 15.5295522,28.8672881" id="Fill-8" sketch:type="MSShapeGroup"></path>
                <path d="M27.3528358,24.2935593 L33.678806,24.5949153 C34.438209,24.6316949 34.8489552,25.5144068 34.478806,26.2784746 C33.2656716,28.7783051 29.998806,33.9974576 21.6919403,41.0271186 C16.6579104,45.2864407 10.0967164,46.6935593 7.02089552,47.139661 C6.24,47.2535593 5.62865672,46.4527119 5.92,45.6957627 C6.06328358,45.3267797 6.39402985,45.0835593 6.77731343,45.0372881 C8.01910448,44.8889831 11.2489552,43.9137288 17.2823881,38.3849153 C22.3785075,33.7138983 24.6101493,28.3084746 25.4471642,25.7220339 C25.7337313,24.8357627 26.5158209,24.2544068 27.3528358,24.2935593" id="Fill-9" sketch:type="MSShapeGroup"></path>
                <path d="M7.61671642,57.1805085 L10.4,57.3881356 C11.7385075,57.4877966 12.9958209,56.6857627 13.481791,55.4162712 L17.1952239,45.7218644 C17.4149254,45.1476271 17.0244776,44.5330508 16.4334328,44.5271186 L12.3319403,44.4879661 C11.7289552,44.4820339 11.1808955,44.8605085 10.9504478,45.440678 L6.80955224,55.8920339 C6.57432836,56.4840678 6.98268657,57.1330508 7.61671642,57.1805085" id="Fill-10" sketch:type="MSShapeGroup"></path>
                <path d="M22.1898507,41.9086441 L20.6197015,45.4430508 C20.1898507,46.41 20.8023881,47.4837288 21.8053731,47.5311864 L37.0065672,48.2454237 C37.5952239,48.2727119 38.1731343,47.9155932 38.4585075,47.3484746 L40.281791,43.7167797 C40.7749254,42.7355932 40.2220896,41.6298305 39.2119403,41.5894915 L23.6346269,40.9689831 C23.0268657,40.9440678 22.4513433,41.3189831 22.1898507,41.9086441" id="Fill-11" sketch:type="MSShapeGroup"></path>
                <path d="M30.9026866,38.8879661 L35.2632836,39.1786441 C35.8471642,39.2166102 36.1623881,39.8715254 35.8734328,40.4398305 L30.0179104,51.9566102 C29.7373134,52.5094915 29.160597,52.8476271 28.5731343,52.8049153 L25.6895522,52.5913559 C24.7355224,52.5213559 24.1743284,51.5140678 24.5850746,50.5969492 L29.3946269,39.8525424 C29.6704478,39.2344068 30.2770149,38.8464407 30.9026866,38.8879661" id="Fill-12" sketch:type="MSShapeGroup"></path>
                <path d="M19.6656716,50.1615254 L36.4632836,50.8057627 C37.4065672,50.8413559 37.9629851,51.8023729 37.5785075,52.7218644 L36.0764179,56.3120339 C35.5820896,57.4925424 34.4023881,58.2672881 33.1820896,58.2174576 L15.6680597,57.4984746 C14.999403,57.4711864 14.5647761,56.799661 14.8107463,56.1661017 L16.2495522,52.4525424 C16.8,51.0335593 18.1802985,50.1045763 19.6656716,50.1615254" id="Fill-13" sketch:type="MSShapeGroup"></path>
                <path d="M58.1313433,24.0183051 L54.2901493,31.109661 L66.2531343,31.4015254 L69.4614925,24.540339 L58.1313433,24.0183051" id="Fill-14" sketch:type="MSShapeGroup"></path>
                <path d="M65.3779104,17.7384746 L68.6997015,18.049322 C69.480597,18.1228814 69.799403,18.749322 69.4101493,19.4422034 L55.8185075,43.6301695 C55.4674627,44.2566102 54.5922388,44.8011864 53.8746269,44.8415254 L51.9152239,44.9518644 C49.9486567,45.0622034 49.1247761,43.7523729 50.0931343,42.0427119 L63.2167164,18.8762712 C63.6131343,18.1762712 64.5862687,17.6649153 65.3779104,17.7384746" id="Fill-15" sketch:type="MSShapeGroup"></path>
                <path d="M48.6555224,43.6301695 L58.1146269,42.5137288 C58.6328358,42.4520339 58.9838806,42.9432203 58.7570149,43.4071186 L58.1731343,44.6030508 C58.0931343,44.7655932 57.9522388,44.8972881 57.7802985,44.9672881 L45.0149254,50.2077966 C44.4,50.459322 43.8471642,49.8815254 44.1659701,49.320339 L46.6567164,44.9471186 C47.0674627,44.2257627 47.8232836,43.7286441 48.6555224,43.6301695" id="Fill-16" sketch:type="MSShapeGroup"></path>
                <path d="M85.8591045,27.9572881 L64.0991045,33.1764407 C63.879403,33.2286441 63.7122388,33.0138983 63.8197015,32.8169492 L67.3026866,26.3567797 C67.4567164,26.069661 67.7325373,25.859661 68.0501493,25.7849153 L95.5259701,19.330678 C95.9223881,19.2369492 96.2256716,19.640339 96.039403,20.0140678 C94.8119403,22.4842373 91.2453731,29.5613559 87.6501493,35.7628814 C84.3391045,41.4744068 79.6620896,42.0913559 77.4435821,42.0261017 C76.8047761,42.0083051 76.4226866,41.3818644 76.6913433,40.7827119 C76.8465672,40.4350847 77.1856716,40.1847458 77.558209,40.1728814 C78.4477612,40.1444068 80.2531343,39.5725424 82.0310448,35.9183051 C84.7785075,30.2684746 85.8591045,27.9572881 85.8591045,27.9572881" id="Fill-17" sketch:type="MSShapeGroup"></path>
                <path d="M75.8901493,17.0147458 L79.6,17.1594915 C80.2650746,17.1855932 80.6447761,17.8891525 80.318806,18.4871186 L66.5659701,43.6218644 C65.8185075,44.9886441 66.6686567,46.539322 68.1898507,46.5891525 L77.0710448,46.8786441 C79.2728358,46.9498305 81.4686567,46.0161017 83.0376119,44.3491525 L83.6250746,43.7250847 L84.519403,44.2186441 L82.5277612,47.7138983 C80.7044776,50.9137288 77.2214925,52.9318644 73.6334328,52.8440678 L64.5086567,52.6222034 C60.2937313,52.5189831 57.8877612,48.2810169 59.9223881,44.4761017 L74.0358209,18.0920339 C74.401194,17.4086441 75.1307463,16.9850847 75.8901493,17.0147458" id="Fill-18" sketch:type="MSShapeGroup"></path>
                <path d="M86.2149254,12.9630508 L89.8256716,13.1267797 C90.4728358,13.1564407 90.841791,13.8540678 90.520597,14.4437288 L74.4991045,43.4771186 C74.1922388,44.0347458 73.601194,44.3942373 72.9791045,44.4013559 L69.5808955,44.4416949 C68.9576119,44.4488136 68.5898507,43.8235593 68.8871642,43.2623729 L84.4059701,14.0189831 C84.7641791,13.3438983 85.4758209,12.9298305 86.2149254,12.9630508" id="Fill-19" sketch:type="MSShapeGroup"></path>
                <path d="M136.429851,19.2369492 L134.833433,20.3652542 C134.563582,20.5550847 134.138507,20.5455932 133.856716,20.3391525 C132.472836,19.3247458 128.376119,16.3776271 124.785672,14.3274576 C120.682985,11.9842373 114.774925,9.71338983 113.634627,9.28271186 L113.566567,9.09525424 L116.963582,5.90491525 C117.965373,4.9640678 119.799403,4.84542373 121.257313,5.62966102 C123.915224,7.05813559 128.090746,9.43220339 131.43403,11.9261017 C134.450149,14.1755932 136.033433,16.0418644 136.823881,17.1915254 C137.309851,17.8974576 137.146269,18.7315254 136.429851,19.2369492" id="Fill-20" sketch:type="MSShapeGroup"></path>
                <path d="M137.562985,3.88915254 C137.466269,3.75627119 137.256119,3.7159322 137.124776,3.80966102 C135.904478,4.67932203 130.428657,8.47949153 125.049552,10.5474576 C114.028657,14.7854237 109.534328,15.3762712 108.427463,15.4581356 C108.267463,15.47 108.16,15.569661 108.180299,15.6930508 L108.432239,17.1594915 C108.57791,18.0137288 109.66806,18.6876271 110.786866,18.6247458 C114.606567,18.4076271 122.877612,17.7064407 129.675224,15.510339 C137.235821,13.0686441 140.585075,11.3554237 141.757612,10.6755932 C142.064478,10.4976271 142.134925,10.1547458 141.93194,9.8759322 L137.562985,3.88915254" id="Fill-21" sketch:type="MSShapeGroup"></path>
                <path d="M103.158209,20.6405085 L100.700896,24.9876271 C100.428657,25.469322 100.995821,26.0613559 101.768358,26.1088136 L132.342687,27.9762712 C133.228657,28.029661 134.057313,27.7223729 134.505075,27.1718644 L137.992836,22.89 C138.368955,22.429661 137.939104,21.8020339 137.208358,21.7522034 L105.675224,19.5940678 C104.54806,19.5157627 103.561791,19.9262712 103.158209,20.6405085" id="Fill-22" sketch:type="MSShapeGroup"></path>
                <path d="M119.949851,18.0469492 L125.306269,18.6176271 C125.707463,18.660339 125.952239,18.9984746 125.768358,19.2535593 C124.277015,21.3155932 118.263881,28.5184746 104.821493,31.4988136 C98.9552239,32.7991525 95.3910448,32.560678 94,32.3672881 C93.6537313,32.3186441 93.4220896,32.0683051 93.5235821,31.8559322 L93.8698507,31.1369492 C93.9128358,31.0479661 94.0429851,31.0052542 94.1886567,31.0254237 C94.6435821,31.0883051 95.9820896,31.0005085 99.84,29.6930508 C107.448358,27.1149153 114.084776,21.4105085 116.704478,18.9605085 C117.459104,18.2545763 118.673433,17.9105085 119.949851,18.0469492" id="Fill-23" sketch:type="MSShapeGroup"></path>
                <path d="M104.256716,29.9623729 L130.30806,31.6008475 C131.000597,31.6447458 131.43403,32.1905085 131.124776,32.6271186 L123.282388,43.7049153 C121.36597,46.41 117.053134,47.8977966 112.489552,47.4220339 L110.452537,47.209661 L110.816716,46.560678 L110.911045,46.5642373 C112.327164,46.6116949 113.595224,46.1086441 114.155224,45.2757627 L119.29194,37.6528814 C119.490149,37.3574576 119.168955,36.9955932 118.685373,36.9718644 L108.075224,36.4367797 C106.604179,36.3620339 105.307463,36.900678 104.8,37.7964407 L99.8877612,45.2283051 C99.4519403,45.9994915 98.2961194,46.4669492 96.9731343,46.4052542 L93.3707463,46.3767797 C92.3868657,46.3316949 91.6680597,45.6601695 92.0107463,45.0977966 L100.238806,31.5545763 C100.894328,30.4749153 102.472836,29.849661 104.256716,29.9623729" id="Fill-24" sketch:type="MSShapeGroup"></path>
                <path d="M114.851343,29.3122034 L119.572537,29.5649153 C120.33194,29.6052542 120.837015,30.1972881 120.519403,30.6683051 L111.480597,44.2032203 C109.924776,46.5025424 105.277612,49.7628814 101.331343,49.3298305 L101.330149,49.3298305 C101.13791,49.3084746 101.016119,49.1755932 101.087761,49.0652542 L113.063881,30.0276271 C113.379104,29.5483051 114.075224,29.2694915 114.851343,29.3122034" id="Fill-25" sketch:type="MSShapeGroup"></path>
                <path d="M156.790448,1.26474576 L157.42209,4.34355932 C157.459104,4.52271186 157.703881,4.66983051 157.973731,4.67338983 L162.273433,4.72915254 C162.472836,4.73271186 162.638806,4.65559322 162.697313,4.53576271 L164.212537,1.40237288 C164.317612,1.18525424 164.027463,0.937288136 163.665672,0.937288136 L157.221493,0.932542373 C156.946866,0.932542373 156.752239,1.0820339 156.790448,1.26474576" id="Fill-26" sketch:type="MSShapeGroup"></path>
                <path d="M166.125373,3.36711864 L153.402985,3.36949153 C153.044776,3.36949153 152.739104,3.49881356 152.601791,3.70762712 L149.793433,8.01559322 C149.659701,8.21966102 149.923582,8.47237288 150.271045,8.47 L150.675821,8.46881356 C149.722985,10.1072881 147.836418,13.3676271 146.56597,15.6930508 C142.037015,23.9862712 156.24597,21.1767797 157.43403,20.9288136 L157.549851,20.8588136 L158.543284,19.4208475 C158.629254,19.2950847 158.433433,19.1384746 158.235224,19.1788136 C156.447761,19.5394915 151.139104,20.2952542 153.744478,15.919661 C154.827463,14.099661 157.171343,10.0491525 158.054925,8.52101695 L158.238806,8.44033898 L163.423284,8.42016949 C164.237612,8.41779661 164.915821,8.10694915 165.179701,7.61813559 L167.041194,4.17389831 C167.241791,3.80254237 166.745075,3.36711864 166.125373,3.36711864" id="Fill-27" sketch:type="MSShapeGroup"></path>
                <path d="M174.4,0.742711864 C173.838806,0.739152542 173.375522,0.952711864 173.225075,1.2920339 C172.785672,2.28983051 171.626269,4.43966102 169.26209,6.03542373 C167.578507,7.17084746 166.688955,7.40576271 166.385672,7.45440678 L166.235224,7.55288136 L166.021493,8.20661017 C165.989254,8.30271186 166.105075,8.40474576 166.25791,8.41423729 C167.032836,8.4640678 169.222687,8.50440678 171.580896,7.62525424 C177.66806,5.35677966 180.57791,2.85932203 181.746866,1.61118644 C182.056119,1.28016949 181.577313,0.796101695 180.940896,0.791355932 L174.4,0.742711864" id="Fill-28" sketch:type="MSShapeGroup"></path>
                <path d="M178.415522,2.22813559 L189.038806,2.14508475 C189.952239,2.1379661 190.747463,2.73 190.618507,3.30898305 C189.644179,7.68932203 184.753433,18.3162712 172.766567,20.2062712 C165.290746,21.3855932 160.710448,21.0367797 159.498507,20.9145763 C159.334925,20.8991525 159.227463,20.7769492 159.283582,20.6772881 L159.986866,19.4267797 L160.219701,19.3413559 C160.921791,19.4267797 164.034627,19.769661 169.203582,17.2069492 C174.801194,14.4318644 179.379104,7.75932203 179.927164,6.5479661 C179.971343,6.44949153 179.84,6.33915254 179.676418,6.33322034 L172.101493,6.06389831 L178.415522,2.22813559" id="Fill-29" sketch:type="MSShapeGroup"></path>
                <path d="M169.893731,9.37762712 L172.696119,7.88864407 C173.124776,7.66084746 173.776716,7.68457627 174.275821,7.9479661 C175.553433,8.62067797 177.98806,9.81186441 179.264478,9.85101695 C181.053134,9.90440678 176.026269,12.9001695 176.026269,12.9001695 L170.124179,10.3955932 C169.545075,10.15 169.426866,9.62559322 169.893731,9.37762712" id="Fill-30" sketch:type="MSShapeGroup"></path>
                <path d="M166.157612,11.3886441 L163.10209,13.590678 C162.777313,13.8244068 162.889552,14.2301695 163.336119,14.4389831 C165.247761,15.3311864 169.873433,17.4050847 171.615522,17.4430508 C173.841194,17.4916949 176.279403,14.3061017 176.279403,14.3061017 C176.279403,14.3061017 173.768358,14.1708475 170.825075,12.9179661 C169.213134,12.2322034 168.143284,11.7066102 167.50806,11.3720339 C167.067463,11.140678 166.488358,11.1501695 166.157612,11.3886441" id="Fill-31" sketch:type="MSShapeGroup"></path>
                <path d="M153.241791,26.0886441 L145.256119,39.5725424 L152.952836,39.840678 L160.973134,26.7233898 L153.241791,26.0886441" id="Fill-32" sketch:type="MSShapeGroup"></path>
                <path d="M145.143881,24.3161017 L143.626269,27.119661 C143.530746,27.2940678 143.719403,27.5028814 143.998806,27.5242373 C146.595821,27.7283051 157.539104,28.5125424 164.063284,27.8552542 C170.243582,27.2311864 172.507463,26.2084746 173.094925,25.8810169 L173.091343,25.6449153 L168.312836,21.9740678 C168.002388,21.7344068 167.500896,21.6905085 167.21194,21.8838983 C166.544478,22.3276271 164.955224,23.0335593 161.318209,23.4618644 C155.081791,24.1950847 147.363582,24.1215254 145.626269,24.0942373 C145.404179,24.090678 145.21791,24.1772881 145.143881,24.3161017" id="Fill-33" sketch:type="MSShapeGroup"></path>
                <path d="M141.663284,29.0488136 L169.153433,30.0786441 C169.847164,30.1047458 170.391642,30.6101695 170.202985,31.0562712 C169.527164,32.6567797 168.065672,35.7984746 167.004179,35.8186441 C165.781493,35.8435593 144.974328,34.8991525 139.020896,34.6274576 C138.285373,34.5930508 137.773134,34.0247458 138.065672,33.5679661 L140.710448,29.4438983 C140.875224,29.1864407 141.244179,29.0333898 141.663284,29.0488136" id="Fill-34" sketch:type="MSShapeGroup"></path>
                <path d="M168.409552,37.5116949 C169.115224,37.5389831 169.666866,38.0610169 169.474627,38.5213559 C168.785672,40.1728814 167.295522,43.4130508 166.217313,43.4344068 C164.975522,43.4569492 137.794627,41.6832203 131.769552,41.3984746 C131.024478,41.3640678 130.514627,40.7779661 130.81791,40.309322 L132.444179,37.2518644 C132.922985,36.3537288 134.144478,35.810339 135.530746,35.8791525 L168.409552,37.5116949" id="Fill-35" sketch:type="MSShapeGroup"></path>
            </g>
        </g>
    </g>
</svg>