<?xml version="1.0" encoding="UTF-8" standalone="no"?>
<svg width="70px" height="65px" viewBox="0 0 70 65" version="1.1" xmlns="http://www.w3.org/2000/svg" xmlns:xlink="http://www.w3.org/1999/xlink" xmlns:sketch="http://www.bohemiancoding.com/sketch/ns">
    <!-- Generator: Sketch 3.3.2 (12043) - http://www.bohemiancoding.com/sketch -->
    <title>local light web logo</title>
    <desc>Created with Sketch.</desc>
    <defs></defs>
    <g id="logos" stroke="none" stroke-width="1" fill="none" fill-rule="evenodd" sketch:type="MSPage">
        <g id="Logos" sketch:type="MSArtboardGroup" transform="translate(-158.000000, -92.000000)" fill="#FFFFFF">
            <g id="top-logo" sketch:type="MSLayerGroup" transform="translate(168.000000, 102.000000)">
                <path d="M20.2973221,22.9100145 C26.8631216,22.9100145 32.1857537,17.7814331 32.1857537,11.4550073 C32.1857537,5.12858144 26.8631216,0 20.2973221,0 C13.7315227,0 8.4088906,5.12858144 8.4088906,11.4550073 C8.4088906,17.7814331 13.7315227,22.9100145 20.2973221,22.9100145 L20.2973221,22.9100145 Z M20.442303,20.6748911 C15.2377059,20.6748911 11.0185463,16.6095522 11.0185463,11.5947025 C11.0185463,6.57985273 15.2377059,2.51451379 20.442303,2.51451379 C25.6469001,2.51451379 29.8660597,6.57985273 29.8660597,11.5947025 C29.8660597,16.6095522 25.6469001,20.6748911 20.442303,20.6748911 L20.442303,20.6748911 Z" id="Shape" sketch:type="MSShapeGroup"></path>
                <ellipse id="Oval-53" opacity="0.6" sketch:type="MSShapeGroup" cx="32.4757154" cy="23.7481858" rx="1.73977047" ry="1.67634253"></ellipse>
                <path d="M44.0741852,21.2327361 C44.0741852,20.6160407 43.554904,20.1161103 42.9143382,20.1161103 C42.2737724,20.1161103 41.7544913,20.6160407 41.7544913,21.2327361 L41.7544913,33.8071768 C41.7544913,34.4238722 42.2737724,34.9238026 42.9143382,34.9238026 C43.554904,34.9238026 44.0741852,34.4238722 44.0741852,33.8071768 L44.0741852,21.2327361 Z" id="Shape" opacity="0.7" sketch:type="MSShapeGroup"></path>
                <path d="M33.6355624,28.2326605 C33.6355624,27.6075903 33.1162812,27.1008708 32.4757154,27.1008708 C31.8351496,27.1008708 31.3158684,27.6075903 31.3158684,28.2326605 L31.3158684,34.0714034 C31.3158684,34.6964735 31.8351496,35.203193 32.4757154,35.203193 C33.1162812,35.203193 33.6355624,34.6964735 33.6355624,34.0714034 L33.6355624,28.2326605 Z" id="Shape" sketch:type="MSShapeGroup"></path>
                <path d="M21.4571691,13.6965146 C21.4571691,13.0757766 20.9378879,12.5725689 20.2973221,12.5725689 C19.6567563,12.5725689 19.1374752,13.0757766 19.1374752,13.6965146 L19.1374752,34.0792473 C19.1374752,34.6999854 19.6567563,35.203193 20.2973221,35.203193 C20.9378879,35.203193 21.4571691,34.6999854 21.4571691,34.0792473 L21.4571691,13.6965146 Z" id="Shape" opacity="0.7" sketch:type="MSShapeGroup"></path>
                <path d="M8.11892886,25.997687 C8.11892886,25.3725341 7.59964767,24.8657475 6.95908188,24.8657475 C6.31851608,24.8657475 5.7992349,25.3725341 5.7992349,25.997687 L5.7992349,34.0712535 C5.7992349,34.6964064 6.31851608,35.203193 6.95908188,35.203193 C7.59964767,35.203193 8.11892886,34.6964064 8.11892886,34.0712535 L8.11892886,25.997687 Z" id="Shape" opacity="0.7" sketch:type="MSShapeGroup"></path>
                <path d="M6.95908188,29.3359942 C9.68148652,29.3359942 11.8884315,27.2095092 11.8884315,24.586357 C11.8884315,21.9632049 9.68148652,19.8367199 6.95908188,19.8367199 C4.23667723,19.8367199 2.02973221,21.9632049 2.02973221,24.586357 C2.02973221,27.2095092 4.23667723,29.3359942 6.95908188,29.3359942 L6.95908188,29.3359942 Z M4.02973221,24.6306241 C4.02973221,23.0875934 5.32793517,21.8367199 6.92934966,21.8367199 C8.53076416,21.8367199 9.82896711,23.0875934 9.82896711,24.6306241 C9.82896711,26.1736548 8.53076416,27.4245283 6.92934966,27.4245283 C5.32793517,27.4245283 4.02973221,26.1736548 4.02973221,24.6306241 Z" id="Shape" sketch:type="MSShapeGroup"></path>
                <path d="M42.9143382,24.8657475 C46.4374501,24.8657475 49.2934966,22.1138257 49.2934966,18.7191582 C49.2934966,15.3244907 46.4374501,12.5725689 42.9143382,12.5725689 C39.3912263,12.5725689 36.5351798,15.3244907 36.5351798,18.7191582 C36.5351798,22.1138257 39.3912263,24.8657475 42.9143382,24.8657475 L42.9143382,24.8657475 Z M42.884606,22.9542816 C40.4824843,22.9542816 38.5351798,21.0779713 38.5351798,18.7634253 C38.5351798,16.4488792 40.4824843,14.5725689 42.884606,14.5725689 C45.2867278,14.5725689 47.2340322,16.4488792 47.2340322,18.7634253 C47.2340322,21.0779713 45.2867278,22.9542816 42.884606,22.9542816 L42.884606,22.9542816 Z" id="Shape" sketch:type="MSShapeGroup"></path>
                <path d="M32.1269832,23.4799324 C32.1269832,22.7175643 31.4892208,22.0995428 30.7025009,22.0995428 C29.9157811,22.0995428 29.2780186,22.7175643 29.2780186,23.4799324 L29.2780187,46.9283036 C29.2780187,47.6906718 29.9157811,48.3086933 30.702501,48.3086933 C31.4892208,48.3086933 32.1269833,47.6906718 32.1269833,46.9283036 L32.1269832,23.4799324 Z" id="Shape" opacity="0.6" sketch:type="MSShapeGroup" transform="translate(30.702501, 35.204118) rotate(-270.000000) translate(-30.702501, -35.204118) "></path>
                <path d="M13.3263537,24.9203846 C13.3263537,24.1580165 12.6885912,23.539995 11.9018714,23.539995 C11.1151515,23.539995 10.4773891,24.1580165 10.4773891,24.9203846 L10.4773891,45.4878512 C10.4773891,46.2502193 11.1151515,46.8682408 11.9018714,46.8682408 C12.6885912,46.8682408 13.3263537,46.2502193 13.3263537,45.4878512 L13.3263537,24.9203846 Z" id="Shape" sketch:type="MSShapeGroup" transform="translate(11.901871, 35.204118) rotate(-270.000000) translate(-11.901871, -35.204118) "></path>
                <path d="M30.2658118,34.2815608 C30.2658118,33.5191926 29.6280493,32.9011711 28.8413295,32.9011711 C28.0546096,32.9011711 27.4168472,33.5191926 27.4168472,34.2815608 L27.4168473,51.7688392 C27.4168473,52.5312073 28.0546097,53.1492288 28.8413295,53.1492288 C29.6280494,53.1492288 30.2658118,52.5312073 30.2658118,51.7688392 L30.2658118,34.2815608 Z" id="Shape" sketch:type="MSShapeGroup" transform="translate(28.841330, 43.025200) rotate(-270.000000) translate(-28.841330, -43.025200) "></path>
                <path d="M14.3284636,41.9894785 C14.3284636,41.2271104 13.6907011,40.6090889 12.9039813,40.6090889 C12.1172614,40.6090889 11.479499,41.2271104 11.479499,41.9894785 L11.4794989,44.0609215 C11.4794989,44.8232896 12.1172614,45.4413111 12.9039812,45.4413111 C13.6907011,45.4413111 14.3284635,44.8232896 14.3284635,44.0609215 L14.3284636,41.9894785 Z" id="Shape" opacity="0.6" sketch:type="MSShapeGroup" transform="translate(12.903981, 43.025200) rotate(-270.000000) translate(-12.903981, -43.025200) "></path>
                <path d="M43.7784004,30.0677217 C43.7784004,29.3053535 43.140638,28.687332 42.3539181,28.687332 C41.5671983,28.687332 40.9294358,29.3053535 40.9294358,30.0677217 L40.9294358,40.3405142 C40.9294358,41.1028823 41.5671982,41.7209038 42.353918,41.7209038 C43.1406379,41.7209038 43.7784003,41.1028823 43.7784003,40.3405142 L43.7784004,30.0677217 Z" id="Shape" sketch:type="MSShapeGroup" transform="translate(42.353918, 35.204118) rotate(-270.000000) translate(-42.353918, -35.204118) "></path>
            </g>
        </g>
    </g>
</svg>