<?xml version="1.0" encoding="UTF-8" standalone="no"?>
<svg width="258px" height="68px" viewBox="0 0 258 68" version="1.1" xmlns="http://www.w3.org/2000/svg" xmlns:xlink="http://www.w3.org/1999/xlink" xmlns:sketch="http://www.bohemiancoding.com/sketch/ns">
    <!-- Generator: Sketch 3.3.2 (12043) - http://www.bohemiancoding.com/sketch -->
    <title>logo-white</title>
    <desc>Created with Sketch.</desc>
    <defs></defs>
    <g id="Page-1" stroke="none" stroke-width="1" fill="none" fill-rule="evenodd" sketch:type="MSPage">
        <g id="logo-white" sketch:type="MSLayerGroup">
            <path d="M31.7764706,20.6969555 C31.7764706,19.7589513 31.0074538,18.9985486 30.0588235,18.9985486 C29.1101933,18.9985486 28.3411765,19.7589513 28.3411765,20.6969555 L28.3411765,51.4975293 C28.3411765,52.4355335 29.1101933,53.1959361 30.0588235,53.1959361 C31.0074538,53.1959361 31.7764706,52.4355335 31.7764706,51.4975293 L31.7764706,20.6969555 Z" id="Shape" fill="#FFFFFF" sketch:type="MSShapeGroup"></path>
            <path d="M12.0235294,39.2853937 C12.0235294,38.3407181 11.2545126,37.5749073 10.3058824,37.5749073 C9.35725208,37.5749073 8.58823529,38.3407181 8.58823529,39.2853937 L8.58823529,51.4854497 C8.58823529,52.4301253 9.35725208,53.1959361 10.3058824,53.1959361 C11.2545126,53.1959361 12.0235294,52.4301253 12.0235294,51.4854497 L12.0235294,39.2853937 Z" id="Shape" fill="#FFFFFF" sketch:type="MSShapeGroup"></path>
            <path d="M10.3058824,44.3299468 C14.337561,44.3299468 17.6058824,41.1165917 17.6058824,37.1527173 C17.6058824,33.1888429 14.337561,29.9754878 10.3058824,29.9754878 C6.27420368,29.9754878 3.00588235,33.1888429 3.00588235,37.1527173 C3.00588235,41.1165917 6.27420368,44.3299468 10.3058824,44.3299468 L10.3058824,44.3299468 Z M6.01176471,37.1527173 C6.01176471,34.8210265 7.93430666,32.9308176 10.3058824,32.9308176 C12.677458,32.9308176 14.6,34.8210265 14.6,37.1527173 C14.6,39.4844081 12.677458,41.374617 10.3058824,41.374617 C7.93430666,41.374617 6.01176471,39.4844081 6.01176471,37.1527173 Z" id="Shape" fill="#FFFFFF" sketch:type="MSShapeGroup"></path>
            <path d="M19.735338,37.6574701 C19.735338,36.5054471 18.7908593,35.5715479 17.6257858,35.5715479 C16.4607122,35.5715479 15.5162335,36.5054471 15.5162335,37.6574701 L15.5162335,68.7371974 C15.5162335,69.8892203 16.4607122,70.8231195 17.6257858,70.8231195 C18.7908593,70.8231195 19.735338,69.8892203 19.735338,68.7371974 L19.735338,37.6574701 Z" id="Shape" fill="#DBDBDB" sketch:type="MSShapeGroup" transform="translate(17.625786, 53.197334) rotate(-270.000000) translate(-17.625786, -53.197334) "></path>
            <path d="M21.2193882,63.4507675 C21.2193882,62.2987445 20.2749095,61.3648454 19.109836,61.3648454 C17.9447624,61.3648454 17.0002837,62.2987445 17.0002837,63.4507675 L17.0002836,66.580948 C17.0002836,67.732971 17.9447623,68.6668701 19.1098358,68.6668701 C20.2749094,68.6668701 21.2193881,67.732971 21.2193881,66.580948 L21.2193882,63.4507675 Z" id="Shape" fill="#FFFFFF" sketch:type="MSShapeGroup" transform="translate(19.109836, 65.015858) rotate(-270.000000) translate(-19.109836, -65.015858) "></path>
            <path d="M30.0588235,34.6195775 C39.7822839,34.6195775 47.6647059,26.8697211 47.6647059,17.3097887 C47.6647059,7.7498564 39.7822839,0 30.0588235,0 C20.3353632,0 12.4529412,7.7498564 12.4529412,17.3097887 C12.4529412,26.8697211 20.3353632,34.6195775 30.0588235,34.6195775 L30.0588235,34.6195775 Z M30.2735294,31.2420577 C22.5659084,31.2420577 16.3176471,25.0988789 16.3176471,17.5208837 C16.3176471,9.94288858 22.5659084,3.79970972 30.2735294,3.79970972 C37.9811504,3.79970972 44.2294118,9.94288858 44.2294118,17.5208837 C44.2294118,25.0988789 37.9811504,31.2420577 30.2735294,31.2420577 L30.2735294,31.2420577 Z" id="Shape" fill="#FFFFFF" sketch:type="MSShapeGroup"></path>
            <ellipse id="Oval-53" fill="#FFFFFF" sketch:type="MSShapeGroup" cx="48.0941176" cy="35.8861474" rx="2.57647059" ry="2.53313982"></ellipse>
            <path d="M65.2705882,32.0850234 C65.2705882,31.1531282 64.5015715,30.3976778 63.5529412,30.3976778 C62.6043109,30.3976778 61.8352941,31.1531282 61.8352941,32.0850234 L61.8352941,51.0864006 C61.8352941,52.0182958 62.6043109,52.7737462 63.5529412,52.7737462 C64.5015715,52.7737462 65.2705882,52.0182958 65.2705882,51.0864006 L65.2705882,32.0850234 Z" id="Shape" fill="#FFFFFF" sketch:type="MSShapeGroup"></path>
            <path d="M49.8117647,42.6626869 C49.8117647,41.7181365 49.0427479,40.952427 48.0941176,40.952427 C47.1454874,40.952427 46.3764706,41.7181365 46.3764706,42.6626869 L46.3764706,51.4856762 C46.3764706,52.4302267 47.1454874,53.1959361 48.0941176,53.1959361 C49.0427479,53.1959361 49.8117647,52.4302267 49.8117647,51.4856762 L49.8117647,42.6626869 Z" id="Shape" fill="#FFFFFF" sketch:type="MSShapeGroup"></path>
            <path d="M63.5529412,37.5749073 C68.7704077,37.5749073 73,33.4164477 73,28.2867279 C73,23.1570082 68.7704077,18.9985486 63.5529412,18.9985486 C58.3354747,18.9985486 54.1058824,23.1570082 54.1058824,28.2867279 C54.1058824,33.4164477 58.3354747,37.5749073 63.5529412,37.5749073 L63.5529412,37.5749073 Z M63.5529412,34.6195775 C59.9955776,34.6195775 57.1117647,31.7842642 57.1117647,28.2867279 C57.1117647,24.7891917 59.9955776,21.9538784 63.5529412,21.9538784 C67.1103047,21.9538784 69.9941176,24.7891917 69.9941176,28.2867279 C69.9941176,31.7842642 67.1103047,34.6195775 63.5529412,34.6195775 L63.5529412,34.6195775 Z" id="Shape" fill="#FFFFFF" sketch:type="MSShapeGroup"></path>
            <path d="M47.5776712,35.4807868 C47.5776712,34.3287638 46.6331925,33.3948646 45.4681189,33.3948646 C44.3030454,33.3948646 43.3585667,34.3287638 43.3585667,35.4807868 L43.3585668,70.913881 C43.3585668,72.065904 44.3030455,72.9998031 45.468119,72.9998031 C46.6331926,72.9998031 47.5776713,72.065904 47.5776713,70.913881 L47.5776712,35.4807868 Z" id="Shape" fill="#FFFFFF" sketch:type="MSShapeGroup" transform="translate(45.468119, 53.197334) rotate(-270.000000) translate(-45.468119, -53.197334) "></path>
            <path d="M44.8214148,51.8032474 C44.8214148,50.6512244 43.8769361,49.7173253 42.7118625,49.7173253 C41.546789,49.7173253 40.6023103,50.6512244 40.6023103,51.8032474 L40.6023104,78.2284681 C40.6023104,79.3804911 41.5467891,80.3143902 42.7118626,80.3143902 C43.8769362,80.3143902 44.8214149,79.3804911 44.8214149,78.2284681 L44.8214148,51.8032474 Z" id="Shape" fill="#DBDBDB" sketch:type="MSShapeGroup" transform="translate(42.711863, 65.015858) rotate(-270.000000) translate(-42.711863, -65.015858) "></path>
            <path d="M64.832553,45.4356683 C64.832553,44.2836453 63.8880742,43.3497462 62.7230007,43.3497462 C61.5579272,43.3497462 60.6134484,44.2836453 60.6134484,45.4356683 L60.6134483,60.9589992 C60.6134483,62.1110222 61.557927,63.0449214 62.7230006,63.0449214 C63.8880741,63.0449214 64.8325529,62.1110222 64.8325529,60.9589992 L64.832553,45.4356683 Z" id="Shape" fill="#DBDBDB" sketch:type="MSShapeGroup" transform="translate(62.723001, 53.197334) rotate(-270.000000) translate(-62.723001, -53.197334) "></path>
            <path d="M100.025,21.782 L92.758,21.782 C92.2293307,22.7613382 91.6920027,23.6409961 91.146,24.421 L91.146,31.103 L89.95,31.103 L89.95,25.981 C89.4906644,26.5010026 89.0270023,26.9646646 88.559,27.372 L88,26.241 C89.2913398,25.2096615 90.474328,23.723343 91.549,21.782 L88.351,21.782 L88.351,20.638 L92.147,20.638 C92.3896679,20.1266641 92.6279988,19.5850029 92.862,19.013 L93.941,19.351 C93.7416657,19.7930022 93.5423343,20.2219979 93.343,20.638 L100.025,20.638 L100.025,21.782 Z M100.077,30.674 L91.952,30.674 L91.952,29.53 L95.436,29.53 L95.436,25.799 L92.511,25.799 L92.511,24.655 L95.436,24.655 L95.436,22.471 L96.632,22.471 L96.632,24.655 L99.622,24.655 L99.622,25.799 L96.632,25.799 L96.632,29.53 L100.077,29.53 L100.077,30.674 Z M108.917,28.529 L108.917,23.407 L107.643,23.407 L107.643,22.263 L108.917,22.263 L108.917,19.013 L110.061,19.013 L110.061,22.263 L111.153,22.263 L111.153,23.407 L110.061,23.407 L110.061,28.295 C110.511669,28.2083329 110.953665,28.1216671 111.387,28.035 L111.478,29.127 C110.299327,29.456335 109.003674,29.7293322 107.591,29.946 L107.396,28.763 C107.907336,28.6849996 108.414331,28.6070004 108.917,28.529 L108.917,28.529 Z M119.629,28.295 L119.629,29.543 C119.629,30.4270044 119.213004,30.869 118.381,30.869 L113.506,30.869 C112.682663,30.869 112.271,30.4573374 112.271,29.634 L112.271,23.953 L111.257,24.265 L111.257,23.147 L112.271,22.835 L112.271,20.027 L113.415,20.027 L113.415,22.497 L115.053,22.042 L115.053,19.065 L116.197,19.065 L116.197,21.691 L118.927,20.911 L118.966,20.898 L118.966,25.968 C118.966,26.7306705 118.580337,27.112 117.809,27.112 L117.081,27.112 L116.795,25.968 L117.471,25.968 C117.739668,25.968 117.874,25.833668 117.874,25.565 L117.874,22.354 L116.197,22.822 L116.197,28.204 L115.053,28.204 L115.053,23.16 L113.415,23.615 L113.415,29.231 C113.415,29.5690017 113.579665,29.738 113.909,29.738 L118.004,29.738 C118.359335,29.738 118.537,29.5603351 118.537,29.205 L118.537,28.022 L119.629,28.295 Z M139.181,24.395 L131.602,24.395 C131.246665,24.9583361 130.835002,25.4826642 130.367,25.968 L133.032,25.968 L133.032,24.902 L134.176,24.902 L134.176,25.968 L138.245,25.968 L138.245,29.101 C138.245,29.9243374 137.829004,30.336 136.997,30.336 L135.71,30.336 L135.437,29.244 L136.659,29.244 C136.953668,29.244 137.101,29.0966681 137.101,28.802 L137.101,27.021 L134.176,27.021 L134.176,31.103 L133.032,31.103 L133.032,27.021 L130.419,27.021 L130.419,30.336 L129.275,30.336 L129.275,26.969 C128.806998,27.3330018 128.295669,27.6709984 127.741,27.983 L127.026,27.06 C128.438674,26.3233296 129.539329,25.4350052 130.328,24.395 L127.143,24.395 L127.143,23.303 L131.004,23.303 C131.168667,22.9909984 131.302999,22.6616684 131.407,22.315 C130.505662,22.5143343 129.587005,22.6529996 128.651,22.731 L128.365,21.665 C129.743007,21.5609995 131.081994,21.3313351 132.382,20.976 C131.255328,20.6206649 130.102673,20.3043347 128.924,20.027 L129.444,19.104 C131.021341,19.5026687 132.542326,19.9489975 134.007,20.443 C135.029672,20.052998 136.021995,19.5720029 136.984,19 L137.842,19.754 C137.070663,20.2046689 136.290671,20.6076649 135.502,20.963 C136.394671,21.2836683 137.265662,21.6259982 138.115,21.99 L137.413,22.913 C136.329661,22.4103308 135.211672,21.9553354 134.059,21.548 C133.339663,21.7906679 132.616004,22.0073324 131.888,22.198 L132.538,22.38 C132.433999,22.6920016 132.312667,22.9996651 132.174,23.303 L139.181,23.303 L139.181,24.395 Z M147.124,25.812 C150.781352,25.9073338 154.30865,25.7513354 157.706,25.344 L158.122,26.293 C156.579326,26.5096677 154.963008,26.6699995 153.273,26.774 L153.273,27.749 L157.862,27.749 L157.862,28.685 L153.273,28.685 L153.273,29.66 L158.681,29.66 L158.681,30.648 L146.539,30.648 L146.539,29.66 L152.129,29.66 L152.129,28.685 L147.514,28.685 L147.514,27.749 L152.129,27.749 L152.129,26.826 C150.603659,26.886667 149.017675,26.8910003 147.371,26.839 L147.124,25.812 Z M157.966,19.494 L157.966,24.07 C157.966,24.7806702 157.641003,25.136 156.991,25.136 L154.755,25.136 L154.482,24.2 L156.523,24.2 C156.757001,24.2 156.874,24.0786679 156.874,23.836 L156.874,23.381 L153.351,23.381 C153.177666,24.2303376 152.848336,24.8976642 152.363,25.383 L151.414,24.759 C152.081337,24.1176635 152.415,23.1340066 152.415,21.808 L152.415,19.494 L157.966,19.494 Z M153.468,22.601 L156.874,22.601 L156.874,21.912 L153.507,21.912 C153.498333,22.1373345 153.485333,22.3669988 153.468,22.601 L153.468,22.601 Z M156.874,20.391 L153.507,20.391 L153.507,21.119 L156.874,21.119 L156.874,20.391 Z M151.83,21.327 L148.58,21.327 L148.58,23.251 C148.58,23.4936679 148.696999,23.615 148.931,23.615 L151.323,23.615 L151.323,24.707 L148.554,24.707 C147.84333,24.707 147.488,24.3516702 147.488,23.641 L147.488,21.327 L146.591,21.327 L146.591,20.287 L148.853,20.287 C148.775,19.9316649 148.679667,19.5590019 148.567,19.169 L149.698,19.052 C149.802001,19.4766688 149.893,19.8883313 149.971,20.287 L151.83,20.287 L151.83,21.327 Z" id="在地希望" fill="#FFFFFF" sketch:type="MSShapeGroup"></path>
            <path d="M94.006,54.334 L94.006,52.722 L89.807,52.722 L89.807,45.078 L88,45.078 L88,54.334 L94.006,54.334 Z M101.924858,54.334 L101.924858,45.078 L100.117858,45.078 L100.117858,54.334 L101.924858,54.334 Z M115.316715,50.538 L115.316715,49.186 L111.819715,49.186 L111.819715,50.707 L113.522715,50.707 L113.522715,51.045 C113.522715,51.526 113.405715,51.942 113.106715,52.28 C112.820715,52.605 112.378715,52.8 111.819715,52.8 C111.325715,52.8 110.935715,52.618 110.662715,52.319 C110.324715,51.929 110.220715,51.474 110.220715,49.706 C110.220715,47.938 110.324715,47.496 110.662715,47.106 C110.935715,46.807 111.325715,46.612 111.819715,46.612 C112.742715,46.612 113.275715,47.08 113.483715,47.964 L115.303715,47.964 C115.056715,46.404 113.977715,45 111.819715,45 C110.766715,45 109.986715,45.351 109.349715,45.975 C108.426715,46.898 108.413715,47.938 108.413715,49.706 C108.413715,51.474 108.426715,52.514 109.349715,53.437 C109.986715,54.061 110.766715,54.412 111.819715,54.412 C112.807715,54.412 113.665715,54.165 114.432715,53.359 C115.108715,52.657 115.316715,51.877 115.316715,50.538 L115.316715,50.538 Z M128.552573,54.334 L128.552573,45.078 L126.745573,45.078 L126.745573,48.861 L123.612573,48.861 L123.612573,45.078 L121.805573,45.078 L121.805573,54.334 L123.612573,54.334 L123.612573,50.46 L126.745573,50.46 L126.745573,54.334 L128.552573,54.334 Z M141.30743,46.69 L141.30743,45.078 L134.66443,45.078 L134.66443,46.69 L137.08243,46.69 L137.08243,54.334 L138.88943,54.334 L138.88943,46.69 L141.30743,46.69 Z M161.747145,51.162 L161.747145,45.078 L159.953145,45.078 L159.953145,51.097 C159.953145,52.163 159.316145,52.8 158.341145,52.8 C157.366145,52.8 156.742145,52.163 156.742145,51.097 L156.742145,45.078 L154.935145,45.078 L154.935145,51.162 C154.935145,53.125 156.443145,54.412 158.341145,54.412 C160.239145,54.412 161.747145,53.125 161.747145,51.162 L161.747145,51.162 Z M175.048003,47.964 C175.048003,46.391 173.917003,45.078 171.993003,45.078 L168.405003,45.078 L168.405003,54.334 L170.212003,54.334 L170.212003,50.85 L171.993003,50.85 C173.917003,50.85 175.048003,49.537 175.048003,47.964 L175.048003,47.964 Z M173.241003,47.964 C173.241003,48.718 172.721003,49.225 171.902003,49.225 L170.212003,49.225 L170.212003,46.69 L171.902003,46.69 C172.721003,46.69 173.241003,47.21 173.241003,47.964 L173.241003,47.964 Z M194.824718,46.69 L194.824718,45.078 L188.181718,45.078 L188.181718,46.69 L190.599718,46.69 L190.599718,54.334 L192.406718,54.334 L192.406718,46.69 L194.824718,46.69 Z M207.176576,54.334 L203.796576,45.078 L202.379576,45.078 L199.012576,54.334 L200.897576,54.334 L201.456576,52.696 L204.745576,52.696 L205.291576,54.334 L207.176576,54.334 Z M204.264576,51.175 L201.963576,51.175 L203.133576,47.808 L204.264576,51.175 Z M214.770433,54.334 L214.770433,45.078 L212.963433,45.078 L212.963433,54.334 L214.770433,54.334 Z M231.945291,45.078 L230.060291,45.078 L228.617291,50.915 L226.927291,45.078 L225.575291,45.078 L223.885291,50.915 L222.455291,45.078 L220.570291,45.078 L223.040291,54.334 L224.548291,54.334 L226.251291,48.718 L227.954291,54.334 L229.462291,54.334 L231.945291,45.078 Z M244.635148,54.334 L241.255148,45.078 L239.838148,45.078 L236.471148,54.334 L238.356148,54.334 L238.915148,52.696 L242.204148,52.696 L242.750148,54.334 L244.635148,54.334 Z M241.723148,51.175 L239.422148,51.175 L240.592148,47.808 L241.723148,51.175 Z M257.507006,54.334 L257.507006,45.078 L255.700006,45.078 L255.700006,50.746 L252.034006,45.078 L250.422006,45.078 L250.422006,54.334 L252.229006,54.334 L252.229006,48.653 L255.895006,54.334 L257.507006,54.334 Z" id="LIGHT-UP-TAIWAN" fill="#FFFFFF" sketch:type="MSShapeGroup"></path>
        </g>
    </g>
</svg>