<?xml version="1.0" encoding="UTF-8" standalone="no"?>
<svg width="154px" height="45px" viewBox="0 0 154 45" version="1.1" xmlns="http://www.w3.org/2000/svg" xmlns:xlink="http://www.w3.org/1999/xlink" xmlns:sketch="http://www.bohemiancoding.com/sketch/ns">
    <!-- Generator: Sketch 3.3.2 (12043) - http://www.bohemiancoding.com/sketch -->
    <title>logo-white-small</title>
    <desc>Created with Sketch.</desc>
    <defs></defs>
    <g id="Page-1" stroke="none" stroke-width="1" fill="none" fill-rule="evenodd" sketch:type="MSPage">
        <g id="logo-white-small" sketch:type="MSLayerGroup">
            <g id="logo_white_small" transform="translate(67.031250, 14.594595)" fill="#FFFFFF" sketch:type="MSShapeGroup">
                <path d="M15.0770257,4.06337838 L6.13248884,4.06337838 C5.43344517,5.35987135 4.72382057,6.51931921 4.00359375,7.54175676 L4.00359375,15.5262162 L2.85970982,15.5262162 L2.85970982,9.04378378 C2.25599028,9.73946294 1.6469841,10.3560784 1.03267299,10.8936486 L0.476618304,9.77108108 C2.10772021,8.45350693 3.59581359,6.55095838 4.94094308,4.06337838 L0.873800223,4.06337838 L0.873800223,2.925 L5.52877232,2.925 C5.84651945,2.28202381 6.1589661,1.58635509 6.46612165,0.837972973 L7.54645647,1.17 C7.26048406,1.77081381 6.98510735,2.35580796 6.72031808,2.925 L15.0770257,2.925 L15.0770257,4.06337838 Z M15.0770257,14.877973 L5.21102679,14.877973 L5.21102679,13.7395946 L9.61180246,13.7395946 L9.61180246,9.01216216 L5.89417969,9.01216216 L5.89417969,7.87378378 L9.61180246,7.87378378 L9.61180246,5.02783784 L10.7715737,5.02783784 L10.7715737,7.87378378 L14.520971,7.87378378 L14.520971,9.01216216 L10.7715737,9.01216216 L10.7715737,13.7395946 L15.0770257,13.7395946 L15.0770257,14.877973 Z M26.0710212,12.5221622 L26.0710212,6.03972973 L24.3869699,6.03972973 L24.3869699,4.90135135 L26.0710212,4.90135135 L26.0710212,0.822162162 L27.2149051,0.822162162 L27.2149051,4.90135135 L28.6765346,4.90135135 L28.6765346,6.03972973 L27.2149051,6.03972973 L27.2149051,12.285 C27.8080331,12.1585129 28.3852651,12.0320277 28.9466183,11.9055405 L29.0578292,12.9806757 C27.6173756,13.4022994 26.0339595,13.7606742 24.3075335,14.0558108 L24.1168862,12.87 C24.7735636,12.7540535 25.4249354,12.6381087 26.0710212,12.5221622 L26.0710212,12.5221622 Z M37.7958315,13.3917568 L37.7958315,11.8264865 L38.9397154,12.0636486 L38.9397154,13.5656757 C38.9397154,14.6513568 38.4366233,15.1941892 37.4304241,15.1941892 L31.6156808,15.1941892 C30.6094816,15.1941892 30.1063895,14.6882483 30.1063895,13.6763514 L30.1063895,6.71959459 L28.7877455,7.13067568 L28.7877455,5.94486486 L30.1063895,5.53378378 L30.1063895,2.05540541 L31.2502734,2.05540541 L31.2502734,5.21756757 L33.5698158,4.55351351 L33.5698158,0.885405405 L34.7295871,0.885405405 L34.7295871,4.20567568 L38.1612388,3.24121622 L38.1612388,9.2177027 C38.1612388,10.1452749 37.6952167,10.6090541 36.7631585,10.6090541 L35.873471,10.6090541 L35.6192746,9.47067568 L36.5883984,9.47067568 C36.9167371,9.47067568 37.080904,9.30729893 37.080904,8.98054054 L37.080904,4.75905405 L34.7295871,5.4072973 L34.7295871,12.0004054 L33.5698158,12.0004054 L33.5698158,5.73932432 L31.2502734,6.40337838 L31.2502734,13.4391892 C31.2502734,13.8397317 31.4515103,14.04 31.85399,14.04 L37.1444531,14.04 C37.5787075,14.04 37.7958315,13.8239211 37.7958315,13.3917568 L37.7958315,13.3917568 Z M62.9295033,7.28878378 L53.6195592,7.28878378 C53.1217553,8.0371659 52.5551148,8.73283462 51.9196205,9.37581081 L55.5419196,9.37581081 L55.5419196,7.98445946 L56.6858036,7.98445946 L56.6858036,9.37581081 L61.6585212,9.37581081 L61.6585212,12.9648649 C61.6585212,13.9767618 61.1501334,14.4827027 60.1333426,14.4827027 L58.7034877,14.4827027 L58.4651786,13.3917568 L59.9585826,13.3917568 C60.3292876,13.3917568 60.5146373,13.2125694 60.5146373,12.8541892 L60.5146373,10.4667568 L56.6858036,10.4667568 L56.6858036,15.5262162 L55.5419196,15.5262162 L55.5419196,10.4667568 L52.0943806,10.4667568 L52.0943806,14.5459459 L50.9504967,14.5459459 L50.9504967,10.2454054 C50.3150024,10.7408133 49.6265606,11.194052 48.8851507,11.6051351 L48.1861105,10.6881081 C49.9866775,9.74999531 51.3741525,8.61689853 52.348577,7.28878378 L48.2814342,7.28878378 L48.2814342,6.13459459 L53.0476172,6.13459459 C53.2700402,5.68134909 53.4606856,5.20175929 53.6195592,4.69581081 C52.4544864,4.96986624 51.2682482,5.1701345 50.0608092,5.29662162 L49.7589509,4.22148649 C51.5701095,4.07391818 53.3176925,3.74716469 55.0017522,3.24121622 C53.5189323,2.74580833 51.993769,2.30838028 50.4262165,1.92891892 L50.9822712,0.964459459 C52.9311202,1.50202971 54.7952087,2.08175365 56.5745926,2.70364865 C57.8667643,2.22932195 59.1165509,1.62851715 60.32399,0.901216216 L61.1977902,1.64432432 C60.1598162,2.25567873 59.1059708,2.79324092 58.0362221,3.25702703 C59.222478,3.71027254 60.3663505,4.1793219 61.4678739,4.66418919 L60.7529464,5.56540541 C59.4184085,4.92242922 58.041525,4.34270529 56.6222545,3.82621622 C55.6584215,4.15297461 54.6893073,4.43229614 53.7148828,4.66418919 L54.7316685,4.94878378 C54.5833865,5.34932633 54.4192197,5.74459264 54.2391629,6.13459459 L62.9295033,6.13459459 L62.9295033,7.28878378 Z M72.668404,9.18608108 C77.15923,9.29148701 81.4911175,9.09648896 85.6641964,8.60108108 L86.1090402,9.59716216 C84.0860502,9.83959581 82.0577948,10.013513 80.0242132,10.1189189 L80.0242132,11.5102703 L85.7118583,11.5102703 L85.7118583,12.537973 L80.0242132,12.537973 L80.0242132,13.9135135 L86.7604185,13.9135135 L86.7604185,14.9412162 L71.9852511,14.9412162 L71.9852511,13.9135135 L78.8803292,13.9135135 L78.8803292,12.537973 L73.2244587,12.537973 L73.2244587,11.5102703 L78.8803292,11.5102703 L78.8803292,10.1821622 C76.8891139,10.2664869 74.8979285,10.2875678 72.9067132,10.2454054 L72.668404,9.18608108 Z M79.1186384,1.40716216 L85.8548438,1.40716216 L85.8548438,6.8777027 C85.8548438,7.74203135 85.4576658,8.17418919 84.663298,8.17418919 L81.9783482,8.17418919 L81.7400391,7.22554054 L84.2820033,7.22554054 C84.5679758,7.22554054 84.7109598,7.07797445 84.7109598,6.78283784 L84.7109598,6.07135135 L80.071875,6.07135135 C79.8706352,7.10432949 79.4522744,7.92121321 78.8167801,8.52202703 L77.831769,7.85797297 C78.6896862,7.04634729 79.1186384,5.83419725 79.1186384,4.22148649 L79.1186384,1.40716216 Z M80.2148605,5.24918919 L84.7109598,5.24918919 L84.7109598,4.28472973 L80.2784096,4.28472973 C80.267818,4.60094753 80.2466352,4.9224308 80.2148605,5.24918919 L80.2148605,5.24918919 Z M84.7109598,2.37162162 L80.2784096,2.37162162 L80.2784096,3.44675676 L84.7109598,3.44675676 L84.7109598,2.37162162 Z M78.3242746,3.54162162 L74.3206808,3.54162162 L74.3206808,6.10297297 C74.3206808,6.39810958 74.4636649,6.54567568 74.7496373,6.54567568 L77.6411217,6.54567568 L77.6411217,7.62081081 L74.4795536,7.62081081 C73.6004532,7.62081081 73.1609096,7.18865297 73.1609096,6.32432432 L73.1609096,3.54162162 L71.9852511,3.54162162 L71.9852511,2.46648649 L74.8608482,2.46648649 C74.7761156,2.00270038 74.6596101,1.53365102 74.5113281,1.05932432 L75.6552121,0.948648649 C75.803494,1.45459712 75.9252953,1.96053801 76.0206194,2.46648649 L78.3242746,2.46648649 L78.3242746,3.54162162 Z" id="在地希望"></path>
            </g>
            <g id="Group" sketch:type="MSShapeGroup">
                <path d="M20.2973221,22.9100145 C26.8631216,22.9100145 32.1857537,17.7814331 32.1857537,11.4550073 C32.1857537,5.12858144 26.8631216,0 20.2973221,0 C13.7315227,0 8.4088906,5.12858144 8.4088906,11.4550073 C8.4088906,17.7814331 13.7315227,22.9100145 20.2973221,22.9100145 L20.2973221,22.9100145 Z M20.442303,20.6748911 C15.2377059,20.6748911 11.0185463,16.6095522 11.0185463,11.5947025 C11.0185463,6.57985273 15.2377059,2.51451379 20.442303,2.51451379 C25.6469001,2.51451379 29.8660597,6.57985273 29.8660597,11.5947025 C29.8660597,16.6095522 25.6469001,20.6748911 20.442303,20.6748911 L20.442303,20.6748911 Z" id="Shape" fill="#FFFFFF"></path>
                <ellipse id="Oval-53" fill="#FFFFFF" cx="32.4757154" cy="23.7481858" rx="1.73977047" ry="1.67634253"></ellipse>
                <path d="M44.0741852,21.2327361 C44.0741852,20.6160407 43.554904,20.1161103 42.9143382,20.1161103 C42.2737724,20.1161103 41.7544913,20.6160407 41.7544913,21.2327361 L41.7544913,33.8071768 C41.7544913,34.4238722 42.2737724,34.9238026 42.9143382,34.9238026 C43.554904,34.9238026 44.0741852,34.4238722 44.0741852,33.8071768 L44.0741852,21.2327361 Z" id="Shape" fill="#FFFFFF"></path>
                <path d="M33.6355624,28.2326605 C33.6355624,27.6075903 33.1162812,27.1008708 32.4757154,27.1008708 C31.8351496,27.1008708 31.3158684,27.6075903 31.3158684,28.2326605 L31.3158684,34.0714034 C31.3158684,34.6964735 31.8351496,35.203193 32.4757154,35.203193 C33.1162812,35.203193 33.6355624,34.6964735 33.6355624,34.0714034 L33.6355624,28.2326605 Z" id="Shape" fill="#FFFFFF"></path>
                <path d="M21.4571691,13.6965146 C21.4571691,13.0757766 20.9378879,12.5725689 20.2973221,12.5725689 C19.6567563,12.5725689 19.1374752,13.0757766 19.1374752,13.6965146 L19.1374752,34.0792473 C19.1374752,34.6999854 19.6567563,35.203193 20.2973221,35.203193 C20.9378879,35.203193 21.4571691,34.6999854 21.4571691,34.0792473 L21.4571691,13.6965146 Z" id="Shape" fill="#FFFFFF"></path>
                <path d="M8.11892886,25.997687 C8.11892886,25.3725341 7.59964767,24.8657475 6.95908188,24.8657475 C6.31851608,24.8657475 5.7992349,25.3725341 5.7992349,25.997687 L5.7992349,34.0712535 C5.7992349,34.6964064 6.31851608,35.203193 6.95908188,35.203193 C7.59964767,35.203193 8.11892886,34.6964064 8.11892886,34.0712535 L8.11892886,25.997687 Z" id="Shape" fill="#FFFFFF"></path>
                <path d="M6.95908188,29.3359942 C9.68148652,29.3359942 11.8884315,27.2095092 11.8884315,24.586357 C11.8884315,21.9632049 9.68148652,19.8367199 6.95908188,19.8367199 C4.23667723,19.8367199 2.02973221,21.9632049 2.02973221,24.586357 C2.02973221,27.2095092 4.23667723,29.3359942 6.95908188,29.3359942 L6.95908188,29.3359942 Z M4.05946443,24.586357 C4.05946443,23.0433264 5.35766738,21.7924528 6.95908188,21.7924528 C8.56049637,21.7924528 9.85869932,23.0433264 9.85869932,24.586357 C9.85869932,26.1293877 8.56049637,27.3802612 6.95908188,27.3802612 C5.35766738,27.3802612 4.05946443,26.1293877 4.05946443,24.586357 Z" id="Shape" fill="#FFFFFF"></path>
                <path d="M42.9143382,24.8657475 C46.4374501,24.8657475 49.2934966,22.1138257 49.2934966,18.7191582 C49.2934966,15.3244907 46.4374501,12.5725689 42.9143382,12.5725689 C39.3912263,12.5725689 36.5351798,15.3244907 36.5351798,18.7191582 C36.5351798,22.1138257 39.3912263,24.8657475 42.9143382,24.8657475 L42.9143382,24.8657475 Z M42.9143382,22.9100145 C40.5122165,22.9100145 38.5649121,21.0337042 38.5649121,18.7191582 C38.5649121,16.4046122 40.5122165,14.5283019 42.9143382,14.5283019 C45.31646,14.5283019 47.2637644,16.4046122 47.2637644,18.7191582 C47.2637644,21.0337042 45.31646,22.9100145 42.9143382,22.9100145 L42.9143382,22.9100145 Z" id="Shape" fill="#FFFFFF"></path>
                <path d="M32.1269832,23.4799324 C32.1269832,22.7175643 31.4892208,22.0995428 30.7025009,22.0995428 C29.9157811,22.0995428 29.2780186,22.7175643 29.2780186,23.4799324 L29.2780187,46.9283036 C29.2780187,47.6906718 29.9157811,48.3086933 30.702501,48.3086933 C31.4892208,48.3086933 32.1269833,47.6906718 32.1269833,46.9283036 L32.1269832,23.4799324 Z" id="Shape" fill="#FFFFFF" transform="translate(30.702501, 35.204118) rotate(-270.000000) translate(-30.702501, -35.204118) "></path>
                <path d="M13.3263537,24.9203846 C13.3263537,24.1580165 12.6885912,23.539995 11.9018714,23.539995 C11.1151515,23.539995 10.4773891,24.1580165 10.4773891,24.9203846 L10.4773891,45.4878512 C10.4773891,46.2502193 11.1151515,46.8682408 11.9018714,46.8682408 C12.6885912,46.8682408 13.3263537,46.2502193 13.3263537,45.4878512 L13.3263537,24.9203846 Z" id="Shape" fill="#DBDBDB" transform="translate(11.901871, 35.204118) rotate(-270.000000) translate(-11.901871, -35.204118) "></path>
                <path d="M30.2658118,34.2815608 C30.2658118,33.5191926 29.6280493,32.9011711 28.8413295,32.9011711 C28.0546096,32.9011711 27.4168472,33.5191926 27.4168472,34.2815608 L27.4168473,51.7688392 C27.4168473,52.5312073 28.0546097,53.1492288 28.8413295,53.1492288 C29.6280494,53.1492288 30.2658118,52.5312073 30.2658118,51.7688392 L30.2658118,34.2815608 Z" id="Shape" fill="#DBDBDB" transform="translate(28.841330, 43.025200) rotate(-270.000000) translate(-28.841330, -43.025200) "></path>
                <path d="M14.3284636,41.9894785 C14.3284636,41.2271104 13.6907011,40.6090889 12.9039813,40.6090889 C12.1172614,40.6090889 11.479499,41.2271104 11.479499,41.9894785 L11.4794989,44.0609215 C11.4794989,44.8232896 12.1172614,45.4413111 12.9039812,45.4413111 C13.6907011,45.4413111 14.3284635,44.8232896 14.3284635,44.0609215 L14.3284636,41.9894785 Z" id="Shape" fill="#FFFFFF" transform="translate(12.903981, 43.025200) rotate(-270.000000) translate(-12.903981, -43.025200) "></path>
                <path d="M43.7784004,30.0677217 C43.7784004,29.3053535 43.140638,28.687332 42.3539181,28.687332 C41.5671983,28.687332 40.9294358,29.3053535 40.9294358,30.0677217 L40.9294358,40.3405142 C40.9294358,41.1028823 41.5671982,41.7209038 42.353918,41.7209038 C43.1406379,41.7209038 43.7784003,41.1028823 43.7784003,40.3405142 L43.7784004,30.0677217 Z" id="Shape" fill="#DBDBDB" transform="translate(42.353918, 35.204118) rotate(-270.000000) translate(-42.353918, -35.204118) "></path>
            </g>
        </g>
    </g>
</svg>