<?xml version="1.0" encoding="UTF-8" standalone="no"?>
<svg width="257px" height="68px" viewBox="0 0 257 68" version="1.1" xmlns="http://www.w3.org/2000/svg" xmlns:xlink="http://www.w3.org/1999/xlink" xmlns:sketch="http://www.bohemiancoding.com/sketch/ns">
    <!-- Generator: Sketch 3.3.2 (12043) - http://www.bohemiancoding.com/sketch -->
    <title>logo</title>
    <desc>Created with Sketch.</desc>
    <defs></defs>
    <g id="Page-1" stroke="none" stroke-width="1" fill="none" fill-rule="evenodd" sketch:type="MSPage">
        <g id="logo" sketch:type="MSLayerGroup">
            <g id="logo-color" sketch:type="MSShapeGroup">
                <g id="Group">
                    <path d="M30.0588235,34.6195775 C39.7822839,34.6195775 47.6647059,26.8697211 47.6647059,17.3097887 C47.6647059,7.7498564 39.7822839,0 30.0588235,0 C20.3353632,0 12.4529412,7.7498564 12.4529412,17.3097887 C12.4529412,26.8697211 20.3353632,34.6195775 30.0588235,34.6195775 L30.0588235,34.6195775 Z M30.2735294,31.2420577 C22.5659084,31.2420577 16.3176471,25.0988789 16.3176471,17.5208837 C16.3176471,9.94288858 22.5659084,3.79970972 30.2735294,3.79970972 C37.9811504,3.79970972 44.2294118,9.94288858 44.2294118,17.5208837 C44.2294118,25.0988789 37.9811504,31.2420577 30.2735294,31.2420577 L30.2735294,31.2420577 Z" id="Shape" fill="#E7E879"></path>
                    <ellipse id="Oval-53" fill="#E7E879" cx="48.0941176" cy="35.8861474" rx="2.57647059" ry="2.53313982"></ellipse>
                    <path d="M65.2705882,32.0850234 C65.2705882,31.1531282 64.5015715,30.3976778 63.5529412,30.3976778 C62.6043109,30.3976778 61.8352941,31.1531282 61.8352941,32.0850234 L61.8352941,51.0864006 C61.8352941,52.0182958 62.6043109,52.7737462 63.5529412,52.7737462 C64.5015715,52.7737462 65.2705882,52.0182958 65.2705882,51.0864006 L65.2705882,32.0850234 Z" id="Shape" fill="#88C8AB"></path>
                    <path d="M49.8117647,42.6626869 C49.8117647,41.7181365 49.0427479,40.952427 48.0941176,40.952427 C47.1454874,40.952427 46.3764706,41.7181365 46.3764706,42.6626869 L46.3764706,51.4856762 C46.3764706,52.4302267 47.1454874,53.1959361 48.0941176,53.1959361 C49.0427479,53.1959361 49.8117647,52.4302267 49.8117647,51.4856762 L49.8117647,42.6626869 Z" id="Shape" fill="#81BF63"></path>
                    <path d="M31.7764706,20.6969555 C31.7764706,19.7589513 31.0074538,18.9985486 30.0588235,18.9985486 C29.1101933,18.9985486 28.3411765,19.7589513 28.3411765,20.6969555 L28.3411765,51.4975293 C28.3411765,52.4355335 29.1101933,53.1959361 30.0588235,53.1959361 C31.0074538,53.1959361 31.7764706,52.4355335 31.7764706,51.4975293 L31.7764706,20.6969555 Z" id="Shape" fill="#81BF63"></path>
                    <path d="M12.0235294,39.2853937 C12.0235294,38.3407181 11.2545126,37.5749073 10.3058824,37.5749073 C9.35725208,37.5749073 8.58823529,38.3407181 8.58823529,39.2853937 L8.58823529,51.4854497 C8.58823529,52.4301253 9.35725208,53.1959361 10.3058824,53.1959361 C11.2545126,53.1959361 12.0235294,52.4301253 12.0235294,51.4854497 L12.0235294,39.2853937 Z" id="Shape" fill="#88C8AB"></path>
                    <path d="M10.3058824,44.3299468 C14.337561,44.3299468 17.6058824,41.1165917 17.6058824,37.1527173 C17.6058824,33.1888429 14.337561,29.9754878 10.3058824,29.9754878 C6.27420368,29.9754878 3.00588235,33.1888429 3.00588235,37.1527173 C3.00588235,41.1165917 6.27420368,44.3299468 10.3058824,44.3299468 L10.3058824,44.3299468 Z M6.01176471,37.1527173 C6.01176471,34.8210265 7.93430666,32.9308176 10.3058824,32.9308176 C12.677458,32.9308176 14.6,34.8210265 14.6,37.1527173 C14.6,39.4844081 12.677458,41.374617 10.3058824,41.374617 C7.93430666,41.374617 6.01176471,39.4844081 6.01176471,37.1527173 Z" id="Shape" fill="#53B375"></path>
                    <path d="M63.5529412,37.5749073 C68.7704077,37.5749073 73,33.4164477 73,28.2867279 C73,23.1570082 68.7704077,18.9985486 63.5529412,18.9985486 C58.3354747,18.9985486 54.1058824,23.1570082 54.1058824,28.2867279 C54.1058824,33.4164477 58.3354747,37.5749073 63.5529412,37.5749073 L63.5529412,37.5749073 Z M63.5529412,34.6195775 C59.9955776,34.6195775 57.1117647,31.7842642 57.1117647,28.2867279 C57.1117647,24.7891917 59.9955776,21.9538784 63.5529412,21.9538784 C67.1103047,21.9538784 69.9941176,24.7891917 69.9941176,28.2867279 C69.9941176,31.7842642 67.1103047,34.6195775 63.5529412,34.6195775 L63.5529412,34.6195775 Z" id="Shape" fill="#81BF63"></path>
                    <path d="M47.5776712,35.4807868 C47.5776712,34.3287638 46.6331925,33.3948646 45.4681189,33.3948646 C44.3030454,33.3948646 43.3585667,34.3287638 43.3585667,35.4807868 L43.3585668,70.913881 C43.3585668,72.065904 44.3030455,72.9998031 45.468119,72.9998031 C46.6331926,72.9998031 47.5776713,72.065904 47.5776713,70.913881 L47.5776712,35.4807868 Z" id="Shape" fill="#E7E879" transform="translate(45.468119, 53.197334) rotate(-270.000000) translate(-45.468119, -53.197334) "></path>
                    <path d="M19.735338,37.6574701 C19.735338,36.5054471 18.7908593,35.5715479 17.6257858,35.5715479 C16.4607122,35.5715479 15.5162335,36.5054471 15.5162335,37.6574701 L15.5162335,68.7371974 C15.5162335,69.8892203 16.4607122,70.8231195 17.6257858,70.8231195 C18.7908593,70.8231195 19.735338,69.8892203 19.735338,68.7371974 L19.735338,37.6574701 Z" id="Shape" fill="#55B36C" transform="translate(17.625786, 53.197334) rotate(-270.000000) translate(-17.625786, -53.197334) "></path>
                    <path d="M44.8214148,51.8032474 C44.8214148,50.6512244 43.8769361,49.7173253 42.7118625,49.7173253 C41.546789,49.7173253 40.6023103,50.6512244 40.6023103,51.8032474 L40.6023104,78.2284681 C40.6023104,79.3804911 41.5467891,80.3143902 42.7118626,80.3143902 C43.8769362,80.3143902 44.8214149,79.3804911 44.8214149,78.2284681 L44.8214148,51.8032474 Z" id="Shape" fill="#55B36C" transform="translate(42.711863, 65.015858) rotate(-270.000000) translate(-42.711863, -65.015858) "></path>
                    <path d="M21.2193882,63.4507675 C21.2193882,62.2987445 20.2749095,61.3648454 19.109836,61.3648454 C17.9447624,61.3648454 17.0002837,62.2987445 17.0002837,63.4507675 L17.0002836,66.580948 C17.0002836,67.732971 17.9447623,68.6668701 19.1098358,68.6668701 C20.2749094,68.6668701 21.2193881,67.732971 21.2193881,66.580948 L21.2193882,63.4507675 Z" id="Shape" fill="#E7E879" transform="translate(19.109836, 65.015858) rotate(-270.000000) translate(-19.109836, -65.015858) "></path>
                    <path d="M64.832553,45.4356683 C64.832553,44.2836453 63.8880742,43.3497462 62.7230007,43.3497462 C61.5579272,43.3497462 60.6134484,44.2836453 60.6134484,45.4356683 L60.6134483,60.9589992 C60.6134483,62.1110222 61.557927,63.0449214 62.7230006,63.0449214 C63.8880741,63.0449214 64.8325529,62.1110222 64.8325529,60.9589992 L64.832553,45.4356683 Z" id="Shape" fill="#81BF63" transform="translate(62.723001, 53.197334) rotate(-270.000000) translate(-62.723001, -53.197334) "></path>
                </g>
            </g>
            <path d="M100.025,24.782 L92.758,24.782 C92.2293307,25.7613382 91.6920027,26.6409961 91.146,27.421 L91.146,34.103 L89.95,34.103 L89.95,28.981 C89.4906644,29.5010026 89.0270023,29.9646646 88.559,30.372 L88,29.241 C89.2913398,28.2096615 90.474328,26.723343 91.549,24.782 L88.351,24.782 L88.351,23.638 L92.147,23.638 C92.3896679,23.1266641 92.6279988,22.5850029 92.862,22.013 L93.941,22.351 C93.7416657,22.7930022 93.5423343,23.2219979 93.343,23.638 L100.025,23.638 L100.025,24.782 Z M100.077,33.674 L91.952,33.674 L91.952,32.53 L95.436,32.53 L95.436,28.799 L92.511,28.799 L92.511,27.655 L95.436,27.655 L95.436,25.471 L96.632,25.471 L96.632,27.655 L99.622,27.655 L99.622,28.799 L96.632,28.799 L96.632,32.53 L100.077,32.53 L100.077,33.674 Z M108.917,31.529 L108.917,26.407 L107.643,26.407 L107.643,25.263 L108.917,25.263 L108.917,22.013 L110.061,22.013 L110.061,25.263 L111.153,25.263 L111.153,26.407 L110.061,26.407 L110.061,31.295 C110.511669,31.2083329 110.953665,31.1216671 111.387,31.035 L111.478,32.127 C110.299327,32.456335 109.003674,32.7293322 107.591,32.946 L107.396,31.763 C107.907336,31.6849996 108.414331,31.6070004 108.917,31.529 L108.917,31.529 Z M119.629,31.295 L119.629,32.543 C119.629,33.4270044 119.213004,33.869 118.381,33.869 L113.506,33.869 C112.682663,33.869 112.271,33.4573374 112.271,32.634 L112.271,26.953 L111.257,27.265 L111.257,26.147 L112.271,25.835 L112.271,23.027 L113.415,23.027 L113.415,25.497 L115.053,25.042 L115.053,22.065 L116.197,22.065 L116.197,24.691 L118.927,23.911 L118.966,23.898 L118.966,28.968 C118.966,29.7306705 118.580337,30.112 117.809,30.112 L117.081,30.112 L116.795,28.968 L117.471,28.968 C117.739668,28.968 117.874,28.833668 117.874,28.565 L117.874,25.354 L116.197,25.822 L116.197,31.204 L115.053,31.204 L115.053,26.16 L113.415,26.615 L113.415,32.231 C113.415,32.5690017 113.579665,32.738 113.909,32.738 L118.004,32.738 C118.359335,32.738 118.537,32.5603351 118.537,32.205 L118.537,31.022 L119.629,31.295 Z M139.181,27.395 L131.602,27.395 C131.246665,27.9583361 130.835002,28.4826642 130.367,28.968 L133.032,28.968 L133.032,27.902 L134.176,27.902 L134.176,28.968 L138.245,28.968 L138.245,32.101 C138.245,32.9243374 137.829004,33.336 136.997,33.336 L135.71,33.336 L135.437,32.244 L136.659,32.244 C136.953668,32.244 137.101,32.0966681 137.101,31.802 L137.101,30.021 L134.176,30.021 L134.176,34.103 L133.032,34.103 L133.032,30.021 L130.419,30.021 L130.419,33.336 L129.275,33.336 L129.275,29.969 C128.806998,30.3330018 128.295669,30.6709984 127.741,30.983 L127.026,30.06 C128.438674,29.3233296 129.539329,28.4350052 130.328,27.395 L127.143,27.395 L127.143,26.303 L131.004,26.303 C131.168667,25.9909984 131.302999,25.6616684 131.407,25.315 C130.505662,25.5143343 129.587005,25.6529996 128.651,25.731 L128.365,24.665 C129.743007,24.5609995 131.081994,24.3313351 132.382,23.976 C131.255328,23.6206649 130.102673,23.3043347 128.924,23.027 L129.444,22.104 C131.021341,22.5026687 132.542326,22.9489975 134.007,23.443 C135.029672,23.052998 136.021995,22.5720029 136.984,22 L137.842,22.754 C137.070663,23.2046689 136.290671,23.6076649 135.502,23.963 C136.394671,24.2836683 137.265662,24.6259982 138.115,24.99 L137.413,25.913 C136.329661,25.4103308 135.211672,24.9553354 134.059,24.548 C133.339663,24.7906679 132.616004,25.0073324 131.888,25.198 L132.538,25.38 C132.433999,25.6920016 132.312667,25.9996651 132.174,26.303 L139.181,26.303 L139.181,27.395 Z M147.124,28.812 C150.781352,28.9073338 154.30865,28.7513354 157.706,28.344 L158.122,29.293 C156.579326,29.5096677 154.963008,29.6699995 153.273,29.774 L153.273,30.749 L157.862,30.749 L157.862,31.685 L153.273,31.685 L153.273,32.66 L158.681,32.66 L158.681,33.648 L146.539,33.648 L146.539,32.66 L152.129,32.66 L152.129,31.685 L147.514,31.685 L147.514,30.749 L152.129,30.749 L152.129,29.826 C150.603659,29.886667 149.017675,29.8910003 147.371,29.839 L147.124,28.812 Z M157.966,22.494 L157.966,27.07 C157.966,27.7806702 157.641003,28.136 156.991,28.136 L154.755,28.136 L154.482,27.2 L156.523,27.2 C156.757001,27.2 156.874,27.0786679 156.874,26.836 L156.874,26.381 L153.351,26.381 C153.177666,27.2303376 152.848336,27.8976642 152.363,28.383 L151.414,27.759 C152.081337,27.1176635 152.415,26.1340066 152.415,24.808 L152.415,22.494 L157.966,22.494 Z M153.468,25.601 L156.874,25.601 L156.874,24.912 L153.507,24.912 C153.498333,25.1373345 153.485333,25.3669988 153.468,25.601 L153.468,25.601 Z M156.874,23.391 L153.507,23.391 L153.507,24.119 L156.874,24.119 L156.874,23.391 Z M151.83,24.327 L148.58,24.327 L148.58,26.251 C148.58,26.4936679 148.696999,26.615 148.931,26.615 L151.323,26.615 L151.323,27.707 L148.554,27.707 C147.84333,27.707 147.488,27.3516702 147.488,26.641 L147.488,24.327 L146.591,24.327 L146.591,23.287 L148.853,23.287 C148.775,22.9316649 148.679667,22.5590019 148.567,22.169 L149.698,22.052 C149.802001,22.4766688 149.893,22.8883313 149.971,23.287 L151.83,23.287 L151.83,24.327 Z" id="在地希望" fill="#4A4A4A" sketch:type="MSShapeGroup"></path>
            <path d="M93.8589331,57.3374144 L93.8589331,56.1316133 L89.4030261,56.1316133 L89.4030261,48.4865856 L88,48.4865856 L88,57.3374144 L93.8589331,57.3374144 Z M101.499487,57.3374144 L101.499487,48.4865856 L100.096461,48.4865856 L100.096461,57.3374144 L101.499487,57.3374144 Z M114.921028,53.9064751 L114.921028,52.5515028 L111.543372,52.5515028 L111.543372,53.6951492 L113.518002,53.6951492 L113.518002,54.1923867 C113.518002,54.7642099 113.401083,55.2117238 113.063317,55.5846519 C112.69957,55.9948729 112.153949,56.2186298 111.543372,56.2186298 C110.98476,56.2186298 110.517085,56.0197348 110.166328,55.6716685 C109.711644,55.1992928 109.620707,54.6647624 109.620707,52.912 C109.620707,51.1592376 109.711644,50.6247072 110.166328,50.1523315 C110.517085,49.8042652 110.98476,49.6053702 111.543372,49.6053702 C112.582651,49.6053702 113.258182,50.1771934 113.49202,51.1468066 L114.895046,51.1468066 C114.648217,49.642663 113.49202,48.412 111.543372,48.412 C110.530076,48.412 109.750617,48.7352044 109.153032,49.3070276 C108.256654,50.1771934 108.217681,51.0597901 108.217681,52.912 C108.217681,54.7642099 108.256654,55.6468066 109.153032,56.5169724 C109.750617,57.0887956 110.530076,57.412 111.543372,57.412 C112.517696,57.412 113.401083,57.1012265 114.089605,56.4050939 C114.700181,55.771116 114.921028,55.0625525 114.921028,53.9064751 L114.921028,53.9064751 Z M128.186677,57.3374144 L128.186677,48.4865856 L126.783651,48.4865856 L126.783651,52.2655912 L123.029257,52.2655912 L123.029257,48.4865856 L121.626231,48.4865856 L121.626231,57.3374144 L123.029257,57.3374144 L123.029257,53.4713923 L126.783651,53.4713923 L126.783651,57.3374144 L128.186677,57.3374144 Z M140.919696,49.6923867 L140.919696,48.4865856 L134.424205,48.4865856 L134.424205,49.6923867 L136.970437,49.6923867 L136.970437,57.3374144 L138.373463,57.3374144 L138.373463,49.6923867 L140.919696,49.6923867 Z M161.410188,54.353989 L161.410188,48.4865856 L160.007161,48.4865856 L160.007161,54.2918343 C160.007161,55.4727735 159.240693,56.2061989 158.084496,56.2061989 C156.928299,56.2061989 156.174822,55.4727735 156.174822,54.2918343 L156.174822,48.4865856 L154.771796,48.4865856 L154.771796,54.353989 C154.771796,56.181337 156.200804,57.412 158.084496,57.412 C159.968188,57.412 161.410188,56.181337 161.410188,54.353989 L161.410188,54.353989 Z M174.792756,51.1716685 C174.792756,49.630232 173.636558,48.4865856 171.830812,48.4865856 L168.323246,48.4865856 L168.323246,57.3374144 L169.726272,57.3374144 L169.726272,53.8443204 L171.830812,53.8443204 C173.636558,53.8443204 174.792756,52.713105 174.792756,51.1716685 L174.792756,51.1716685 Z M173.389729,51.1716685 C173.389729,52.103989 172.74018,52.6509503 171.752866,52.6509503 L169.726272,52.6509503 L169.726272,49.6923867 L171.752866,49.6923867 C172.74018,49.6923867 173.389729,50.2269171 173.389729,51.1716685 L173.389729,51.1716685 Z M194.568743,49.6923867 L194.568743,48.4865856 L188.073252,48.4865856 L188.073252,49.6923867 L190.619484,49.6923867 L190.619484,57.3374144 L192.022511,57.3374144 L192.022511,49.6923867 L194.568743,49.6923867 Z M206.834087,57.3374144 L203.44344,48.4865856 L202.313225,48.4865856 L198.922578,57.3374144 L200.416541,57.3374144 L201.053099,55.5597901 L204.703566,55.5597901 L205.340124,57.3374144 L206.834087,57.3374144 Z M204.313836,54.4161436 L201.468811,54.4161436 L202.91081,50.4879669 L204.313836,54.4161436 Z M214.188839,57.3374144 L214.188839,48.4865856 L212.785813,48.4865856 L212.785813,57.3374144 L214.188839,57.3374144 Z M231.208882,48.4865856 L229.72791,48.4865856 L228.117028,54.8139337 L226.259318,48.4865856 L225.129102,48.4865856 L223.271392,54.8139337 L221.66051,48.4865856 L220.179538,48.4865856 L222.595861,57.3374144 L223.817013,57.3374144 L225.687714,51.1343757 L227.571407,57.3374144 L228.792559,57.3374144 L231.208882,48.4865856 Z M243.876946,57.3374144 L240.4863,48.4865856 L239.356084,48.4865856 L235.965438,57.3374144 L237.459401,57.3374144 L238.095959,55.5597901 L241.746425,55.5597901 L242.382983,57.3374144 L243.876946,57.3374144 Z M241.356695,54.4161436 L238.51167,54.4161436 L239.953669,50.4879669 L241.356695,54.4161436 Z M256.791839,57.3374144 L256.791839,48.4865856 L255.388813,48.4865856 L255.388813,54.7020552 L251.114779,48.4865856 L249.828672,48.4865856 L249.828672,57.3374144 L251.231698,57.3374144 L251.231698,51.1095138 L255.505731,57.3374144 L256.791839,57.3374144 Z" id="LIGHT-UP-TAIWAN" fill="#4A4A4A" sketch:type="MSShapeGroup"></path>
        </g>
    </g>
</svg>