<?xml version="1.0" encoding="UTF-8" standalone="no"?>
<svg width="14px" height="8px" viewBox="0 0 14 8" version="1.1" xmlns="http://www.w3.org/2000/svg" xmlns:xlink="http://www.w3.org/1999/xlink" xmlns:sketch="http://www.bohemiancoding.com/sketch/ns">
    <!-- Generator: Sketch 3.3.2 (12043) - http://www.bohemiancoding.com/sketch -->
    <title>select-arrow</title>
    <desc>Created with Sketch.</desc>
    <defs></defs>
    <g id="Page-1" stroke="none" stroke-width="1" fill="none" fill-rule="evenodd" sketch:type="MSPage">
        <path d="M2.00277526,5.13333333 C2.00093725,5.11135112 2,5.08911688 2,5.06666667 L2,-3.2 C2,-3.6418278 2.36301236,-4 2.81081081,-4 C3.25860926,-4 3.62162162,-3.6418278 3.62162162,-3.2 L3.62162162,4.4 L11.1891892,4.4 C11.6369876,4.4 12,4.75817221 12,5.2 C12,5.64182779 11.6369876,6 11.1891892,6 L2.81081081,6 C2.36301236,6 2,5.64182779 2,5.2 C2,5.17754979 2.00093725,5.15531555 2.00277526,5.13333333 L2.00277526,5.13333333 Z" id="Shape" fill="#000000" sketch:type="MSShapeGroup" transform="translate(7.000000, 1.000000) rotate(-45.000000) translate(-7.000000, -1.000000) "></path>
    </g>
</svg>