<?xml version="1.0" encoding="UTF-8" standalone="no"?>
<svg width="41px" height="60px" viewBox="0 0 41 60" version="1.1" xmlns="http://www.w3.org/2000/svg" xmlns:xlink="http://www.w3.org/1999/xlink" xmlns:sketch="http://www.bohemiancoding.com/sketch/ns">
    <!-- Generator: Sketch 3.3.2 (12043) - http://www.bohemiancoding.com/sketch -->
    <title>tile-submit-icon</title>
    <desc>Created with Sketch.</desc>
    <defs>
        <rect id="path-1" x="0" y="0" width="768" height="1024"></rect>
    </defs>
    <g id="Page-1" stroke="none" stroke-width="1" fill="none" fill-rule="evenodd" sketch:type="MSPage">
        <g id="Tablet-Portrait" sketch:type="MSArtboardGroup" transform="translate(-449.000000, -918.000000)">
            <mask id="mask-2" sketch:name="Mask" fill="white">
                <use xlink:href="#path-1"></use>
            </mask>
            <use id="Mask" sketch:type="MSShapeGroup" xlink:href="#path-1"></use>
            <path d="M459.886563,962.705199 L459.886563,967.411784 C459.886563,967.94113 460.287337,968.370745 460.783819,968.370745 C461.279104,968.370745 461.681075,967.94113 461.681075,967.411784 L461.681075,962.324172 C461.681075,962.079956 461.592545,961.844691 461.435825,961.665685 L452.561367,951.606815 L468.884244,922.399397 L468.884244,941.402183 C467.477347,941.824126 466.436531,943.192245 466.436531,944.827595 C466.436531,946.800499 467.937939,948.40644 469.7815,948.40644 C471.628651,948.40644 473.132452,946.800499 473.132452,944.827595 C473.132452,943.190967 472.089242,941.822848 470.678756,941.400905 L470.678756,922.404511 L487.011205,951.619601 L478.452581,961.678471 C478.301842,961.856198 478.219294,962.086349 478.219294,962.324172 L478.219294,967.411784 C478.219294,967.94113 478.621265,968.370745 479.11655,968.370745 C479.611835,968.370745 480.013806,967.94113 480.013806,967.411784 L480.013806,962.69497 L488.786575,952.384213 C489.053359,952.070953 489.096427,951.609372 488.894246,951.246245 L470.550748,918.43441 C470.225343,917.855197 469.334069,917.855197 469.00986,918.43441 L450.672344,951.246245 C450.466573,951.614487 450.515623,952.083739 450.790782,952.395721 L459.886563,962.705199 L459.886563,962.705199 Z M469.7815,943.173066 C470.639277,943.173066 471.33794,943.915942 471.33794,944.827595 C471.33794,945.743083 470.639277,946.488516 469.7815,946.488516 C468.927313,946.488516 468.231042,945.743083 468.231042,944.827595 C468.231042,943.915942 468.927313,943.173066 469.7815,943.173066 L469.7815,943.173066 Z M488.842803,971.086525 C488.754274,970.642845 488.388193,970.325749 487.964689,970.325749 L451.033639,970.325749 C450.608938,970.325749 450.242858,970.642845 450.155525,971.086525 L449.019001,976.842853 C448.963969,977.125427 449.029768,977.420787 449.199648,977.644545 C449.370725,977.869581 449.626742,978 449.897115,978 L489.102409,978 C489.372782,978 489.628799,977.869581 489.798679,977.644545 C489.969756,977.420787 490.036751,977.125427 489.980523,976.842853 L488.842803,971.086525 L488.842803,971.086525 Z M451.00373,976.082076 L451.761014,972.243672 L487.237313,972.243672 L487.995793,976.082076 L451.00373,976.082076 L451.00373,976.082076 Z" id="Fill-40-Copy" fill="#FFFFFF" sketch:type="MSShapeGroup" mask="url(#mask-2)"></path>
        </g>
    </g>
</svg>