<?xml version="1.0" encoding="UTF-8" standalone="no"?>
<svg width="72px" height="72px" viewBox="0 0 72 72" version="1.1" xmlns="http://www.w3.org/2000/svg" xmlns:xlink="http://www.w3.org/1999/xlink" xmlns:sketch="http://www.bohemiancoding.com/sketch/ns">
    <!-- Generator: Sketch 3.3.2 (12043) - http://www.bohemiancoding.com/sketch -->
    <title>tile-event-icon</title>
    <desc>Created with Sketch.</desc>
    <defs>
        <rect id="path-1" x="0" y="0" width="768" height="1024"></rect>
    </defs>
    <g id="Page-1" stroke="none" stroke-width="1" fill="none" fill-rule="evenodd" sketch:type="MSPage">
        <g id="Tablet-Portrait" sketch:type="MSArtboardGroup" transform="translate(-574.000000, -909.000000)">
            <mask id="mask-2" sketch:name="Mask" fill="white">
                <use xlink:href="#path-1"></use>
            </mask>
            <use id="Mask" sketch:type="MSShapeGroup" xlink:href="#path-1"></use>
            <path d="M598.590232,926.448313 C598.80055,926.834919 599.199536,927.052965 599.609347,927.052965 C599.798015,927.052965 599.98823,927.008119 600.16298,926.91224 C600.72589,926.606048 600.934662,925.902425 600.628463,925.339526 L594.37304,913.84031 C594.066841,913.277411 593.361656,913.071737 592.800292,913.374836 C592.237381,913.682575 592.028609,914.386198 592.334808,914.949097 L598.590232,926.448313 L598.590232,926.448313 Z M579.746639,927.680814 L590.887323,934.559312 C591.077538,934.675294 591.287856,934.730965 591.496628,934.730965 C591.884789,934.730965 592.265218,934.536115 592.484815,934.180438 C592.820396,933.636096 592.651832,932.920101 592.105932,932.582981 L580.965248,925.706029 C580.420894,925.372001 579.704884,925.539015 579.369303,926.084903 C579.032175,926.629245 579.202285,927.345239 579.746639,927.680814 L579.746639,927.680814 Z M610,924.410125 C610.640234,924.410125 611.159844,923.890526 611.159844,923.250306 L611.159844,910.159819 C611.159844,909.519599 610.640234,909 610,909 C609.359766,909 608.840156,909.519599 608.840156,910.159819 L608.840156,923.250306 C608.840156,923.890526 609.359766,924.410125 610,924.410125 L610,924.410125 Z M589.413549,945.000773 C589.413549,944.360553 588.893939,943.840954 588.253705,943.840954 L575.159844,943.840954 C574.51961,943.840954 574,944.360553 574,945.000773 C574,945.640993 574.51961,946.160592 575.159844,946.160592 L588.253705,946.160592 C588.893939,946.160592 589.413549,945.640993 589.413549,945.000773 L589.413549,945.000773 Z M628.087375,935.160871 C628.297693,935.547477 628.696679,935.76707 629.106491,935.76707 C629.293612,935.76707 629.483827,935.722223 629.660123,935.626345 L641.161132,929.374149 C641.724043,929.067957 641.932815,928.364333 641.62507,927.801435 C641.320418,927.238536 640.615233,927.032862 640.052322,927.335961 L628.551312,933.588157 C627.989948,933.894349 627.781176,934.597972 628.087375,935.160871 L628.087375,935.160871 Z M620.817475,927.482871 C621.006143,927.601946 621.218008,927.657617 621.425233,927.657617 C621.813394,927.657617 622.193823,927.462768 622.41342,927.10709 L629.293612,915.968191 C629.63074,915.423849 629.462176,914.707855 628.916276,914.37228 C628.37347,914.033613 627.659006,914.20372 627.320332,914.748062 L620.440139,925.886961 C620.103011,926.432849 620.271575,927.148843 620.817475,927.482871 L620.817475,927.482871 Z M640.254908,962.320733 L629.112677,955.440688 C628.56987,955.103568 627.85386,955.270581 627.516732,955.816469 C627.179604,956.360811 627.348168,957.076806 627.894068,957.41238 L639.036299,964.292425 C639.224967,964.409953 639.435285,964.467171 639.644057,964.467171 C640.032218,964.467171 640.412647,964.272321 640.632244,963.916643 C640.969372,963.372302 640.799261,962.656307 640.254908,962.320733 L640.254908,962.320733 Z M591.912625,954.836036 C591.607973,954.274684 590.902788,954.069009 590.339877,954.370562 L578.838868,960.622758 C578.277503,960.92895 578.068731,961.63412 578.37493,962.197019 C578.585249,962.583625 578.984235,962.801671 579.394046,962.801671 C579.581168,962.801671 579.771382,962.756825 579.947678,962.662493 L591.448688,956.410297 C592.011598,956.102558 592.22037,955.398935 591.912625,954.836036 L591.912625,954.836036 Z M610,965.586782 C609.359766,965.586782 608.840156,966.106381 608.840156,966.746601 L608.840156,979.840181 C608.840156,980.480401 609.359766,981 610,981 C610.640234,981 611.159844,980.480401 611.159844,979.840181 L611.159844,966.746601 C611.159844,966.106381 610.640234,965.586782 610,965.586782 L610,965.586782 Z M644.840156,943.840954 L631.749388,943.840954 C631.109154,943.840954 630.589544,944.360553 630.589544,945.000773 C630.589544,945.640993 631.109154,946.160592 631.749388,946.160592 L644.840156,946.160592 C645.481937,946.160592 646,945.640993 646,945.000773 C646,944.360553 645.481937,943.840954 644.840156,943.840954 L644.840156,943.840954 Z M621.408222,963.550141 C621.10357,962.987242 620.396838,962.781567 619.835474,963.084667 C619.272563,963.390859 619.065338,964.094482 619.371537,964.658927 L625.625413,976.162783 C625.835732,976.549389 626.234718,976.768981 626.644529,976.768981 C626.831651,976.768981 627.023412,976.722589 627.198161,976.628257 C627.761072,976.322064 627.969844,975.616895 627.663645,975.053996 L621.408222,963.550141 L621.408222,963.550141 Z M599.182525,962.517129 C598.639718,962.180008 597.923708,962.347022 597.585034,962.89291 L590.706388,974.031809 C590.36926,974.577697 590.53937,975.293692 591.083724,975.62772 C591.273938,975.745248 591.484256,975.802466 591.693028,975.802466 C592.081189,975.802466 592.460071,975.607616 592.679668,975.251938 L599.559861,964.113039 C599.895442,963.567151 599.726878,962.852703 599.182525,962.517129 L599.182525,962.517129 Z M624.211951,944.99768 C624.211951,937.160399 617.83745,930.786035 610.001546,930.786035 C602.164096,930.786035 595.788049,937.160399 595.788049,944.99768 C595.788049,952.834962 602.164096,959.210872 610.001546,959.210872 C617.83745,959.210872 624.211951,952.834962 624.211951,944.99768 L624.211951,944.99768 Z M598.107737,944.99768 C598.107737,938.439292 603.443017,933.105672 610.001546,933.105672 C616.558529,933.105672 621.892263,938.439292 621.892263,944.99768 C621.892263,951.556069 616.558529,956.891235 610.001546,956.891235 C603.443017,956.891235 598.107737,951.556069 598.107737,944.99768 L598.107737,944.99768 Z" id="Fill-27-Copy" fill="#FFFFFF" sketch:type="MSShapeGroup" mask="url(#mask-2)"></path>
        </g>
    </g>
</svg>